<svg width="164" height="48" viewBox="0 0 164 48" fill="none" xmlns="http://www.w3.org/2000/svg">
<path d="M24.72,35.28,12.36,12.96h3.36l8.64,15.624L33,12.96h3.36L24,35.28Z" fill="#008C45"/>
<path d="M45.36,35.28V12.96h12.24V15.84H48.72V22.8h8.16v2.88H48.72v6.72h8.88v2.88Z" fill="#008C45"/>
<path d="M66.24,35.28,60.48,27.36h-1.44v7.92H55.68V12.96h5.04q4.32,0,6.6,2.28a7.68,7.68,0,0,1,2.28,6,7.2,7.2,0,0,1-2.16,5.52L73.44,35.28Zm-5.76-10.8a4.32,4.32,0,0,0,3.12-1.2,4.8,4.8,0,0,0,1.2-3.36,4.8,4.8,0,0,0-1.2-3.36,4.32,4.32,0,0,0-3.12-1.2H59.04v9.12Z" fill="#008C45"/>
<path d="M82.8,35.28V12.96h3.36V35.28Z" fill="#008C45"/>
<path d="M94.56,35.28,88.8,27.36h-1.44v7.92H84V12.96h5.04q4.32,0,6.6,2.28a7.68,7.68,0,0,1,2.28,6,7.2,7.2,0,0,1-2.16,5.52L101.76,35.28Zm-5.76-10.8a4.32,4.32,0,0,0,3.12-1.2,4.8,4.8,0,0,0,1.2-3.36,4.8,4.8,0,0,0-1.2-3.36,4.32,4.32,0,0,0-3.12-1.2H87.36v9.12Z" fill="#008C45"/>
<path d="M111.36,35.28V12.96h3.36V35.28Z" fill="#008C45"/>
<path d="M123.36,35.28l-2.88-5.04H117.6l-2.88,5.04H111.36l8.64-15.12,8.64,15.12Zm-2.88-7.92-2.16-3.84-2.16,3.84Z" fill="#008C45"/>
<path d="M132.48,35.28V12.96h3.36v19.44l11.52-11.52h4.32L138.48,24,152.64,35.28h-4.32l-10.8-10.8V35.28Z" fill="#008C45"/>
</svg>