<svg width="1440" height="776" viewBox="0 0 1440 776" fill="none" xmlns="http://www.w3.org/2000/svg">
<path d="M1440 0V776H0V0H1440Z" fill="url(#paint0_radial_410_11162)"/>
<path d="M1359.12 625.747L1317.98 765.301" stroke="url(#paint1_linear_410_11162)" stroke-width="0.784012" stroke-miterlimit="10" stroke-linecap="round" stroke-linejoin="round"/>
<path d="M1359.13 625.748L1434.01 550.482L1359.13 440.721L1285.05 563.027L1195.68 591.251L1113.74 584.979L1255.26 765.302L1285.05 563.027V765.302L1359.13 625.748ZM1359.13 625.748L1285.05 563.027L1434.01 605.363L1359.13 625.748ZM1359.13 625.748L1434.01 765.302" stroke="url(#paint2_linear_410_11162)" stroke-width="0.784012" stroke-miterlimit="10" stroke-linecap="round" stroke-linejoin="round"/>
<path d="M1359.12 440.721L1195.67 591.251L1255.26 765.302L1112.57 695.525L1113.74 584.979L1359.12 440.721Z" stroke="url(#paint3_linear_410_11162)" stroke-width="0.784012" stroke-miterlimit="10" stroke-linecap="round" stroke-linejoin="round"/>
<path d="M1359.12 440.721L1434.01 340.367L1396.57 230.605L1359.12 440.721Z" stroke="url(#paint4_linear_410_11162)" stroke-width="0.784012" stroke-miterlimit="10" stroke-linecap="round" stroke-linejoin="round"/>
<path d="M1434.01 340.367L1175.29 265.102L1396.57 230.605L1434.01 175.725" stroke="url(#paint5_linear_410_11162)" stroke-width="0.784012" stroke-miterlimit="10" stroke-linecap="round" stroke-linejoin="round"/>
<path d="M1359.12 440.72L1175.29 265.102L1235.85 410.928L1101.27 425.04L1195.67 591.251L1235.85 410.928L1359.12 440.72ZM1359.12 440.72L1434.01 512.849" stroke="url(#paint6_linear_410_11162)" stroke-width="0.784012" stroke-miterlimit="10" stroke-linecap="round" stroke-linejoin="round"/>
<path d="M1101.27 425.04L1005.37 500.305L1113.74 584.978L1017.04 708.852L1112.57 695.524" stroke="url(#paint7_linear_410_11162)" stroke-width="0.784012" stroke-miterlimit="10" stroke-linecap="round" stroke-linejoin="round"/>
<path d="M1396.57 230.606L1345.61 94.9717L1296.22 203.165L1137.5 191.405L1175.29 265.102" stroke="url(#paint8_linear_410_11162)" stroke-width="0.784012" stroke-miterlimit="10" stroke-linecap="round" stroke-linejoin="round"/>
<path d="M1434.01 3.24219L1345.61 94.9716L1434.01 108.3L1396.57 230.606L1296.22 203.165L1175.29 265.102L1101.26 425.041L1113.74 584.979L908.724 603.011L1017.04 708.853L866.387 728.582L908.724 603.011L1005.37 500.306L824.051 545.778L866.387 728.582" stroke="url(#paint9_linear_410_11162)" stroke-width="0.784012" stroke-miterlimit="10" stroke-linecap="round" stroke-linejoin="round"/>
<path d="M908.724 603.011L824.051 545.778L720.561 695.525L866.387 728.582L739.704 667.825L650 708.853L720.561 695.525L803.666 765.302L866.387 728.582L904.02 765.302L908.724 603.011Z" stroke="url(#paint10_linear_410_11162)" stroke-width="0.784012" stroke-miterlimit="10" stroke-linecap="round" stroke-linejoin="round"/>
<path d="M720.561 695.524L650 765.301" stroke="url(#paint11_linear_410_11162)" stroke-width="0.784012" stroke-miterlimit="10" stroke-linecap="round" stroke-linejoin="round"/>
<path d="M953.461 406.224L998.479 456.401L1005.37 354.479L953.461 406.224Z" stroke="url(#paint12_linear_410_11162)" stroke-width="0.784012" stroke-miterlimit="10"/>
<path d="M685.28 448.561L728.401 536.37L676.656 666.516L739.377 625.747" stroke="url(#paint13_linear_410_11162)" stroke-width="0.784012" stroke-miterlimit="10"/>
<path d="M759.762 472.081L766.034 566.946L813.075 526.962L759.762 472.081Z" stroke="url(#paint14_linear_410_11162)" stroke-width="0.784012" stroke-miterlimit="10"/>
<path d="M824.051 365.912L852.275 405.44L863.251 365.912H824.051Z" stroke="url(#paint15_linear_410_11162)" stroke-width="0.784012" stroke-miterlimit="10"/>
<path d="M941.684 241.582L1020.49 203.949L1081.03 340.367L1151.77 272.158" stroke="url(#paint16_linear_410_11162)" stroke-width="0.784012" stroke-miterlimit="10"/>
<path d="M1285.05 164.749L1228.6 67.5312L1304.65 108.3L1285.05 164.749Z" stroke="url(#paint17_linear_410_11162)" stroke-width="0.784012" stroke-miterlimit="10"/>
<path d="M1007.09 22.0586L953.461 116.14L1057.83 94.9717L1007.09 22.0586Z" stroke="url(#paint18_linear_410_11162)" stroke-width="0.784012" stroke-miterlimit="10"/>
<g opacity="0.8">
<path d="M1121.92 417.868C1124.95 417.868 1124.95 413.164 1121.92 413.164C1118.89 413.164 1118.89 417.868 1121.92 417.868Z" fill="white"/>
<path d="M1164.89 572.348C1167.92 572.348 1167.93 567.644 1164.89 567.644C1161.87 567.644 1161.86 572.348 1164.89 572.348Z" fill="white"/>
<path d="M1326.35 446.905C1329.37 446.905 1329.38 442.201 1326.35 442.201C1323.32 442.201 1323.31 446.905 1326.35 446.905Z" fill="white"/>
<path d="M1335.63 378.378C1338.66 378.378 1338.67 373.674 1335.63 373.674C1332.61 373.674 1332.6 378.378 1335.63 378.378Z" fill="white"/>
<path d="M1353.06 387.67C1356.08 387.67 1356.09 382.966 1353.06 382.966C1350.03 382.966 1350.03 387.67 1353.06 387.67Z" fill="white"/>
<path d="M1098.69 690.821C1101.71 690.821 1101.72 686.117 1098.69 686.117C1095.66 686.117 1095.65 690.821 1098.69 690.821Z" fill="white"/>
<path d="M1083.59 690.821C1086.61 690.821 1086.62 686.117 1083.59 686.117C1080.56 686.117 1080.56 690.821 1083.59 690.821Z" fill="white"/>
<path d="M720.042 716.373C723.068 716.373 723.075 711.669 720.042 711.669C717.014 711.669 717.01 716.373 720.042 716.373Z" fill="white"/>
<path d="M733.98 730.311C737.006 730.311 737.011 725.606 733.98 725.606C730.952 725.606 730.947 730.311 733.98 730.311Z" fill="white"/>
<path d="M1411.13 753.542C1414.16 753.542 1414.17 748.838 1411.13 748.838C1408.11 748.838 1408.1 753.542 1411.13 753.542Z" fill="white"/>
<path d="M1393.71 738.442C1396.74 738.442 1396.74 733.738 1393.71 733.738C1390.68 733.738 1390.68 738.442 1393.71 738.442Z" fill="white"/>
<path d="M1337.96 624.616C1340.99 624.616 1340.99 619.912 1337.96 619.912C1334.93 619.912 1334.93 624.616 1337.96 624.616Z" fill="white"/>
<path d="M1361.19 649.007C1364.22 649.007 1364.22 644.303 1361.19 644.303C1358.16 644.303 1358.16 649.007 1361.19 649.007Z" fill="white"/>
<path d="M1329.83 637.392C1332.86 637.392 1332.86 632.688 1329.83 632.688C1326.8 632.688 1326.8 637.392 1329.83 637.392Z" fill="white"/>
<path d="M989.506 489.882C992.532 489.882 992.538 485.178 989.506 485.178C986.48 485.178 986.475 489.882 989.506 489.882Z" fill="white"/>
<path d="M999.963 488.721C1002.99 488.721 1003 484.017 999.963 484.017C996.937 484.017 996.932 488.721 999.963 488.721Z" fill="white"/>
<path d="M812.96 529.373C815.986 529.373 815.991 524.669 812.96 524.669C809.932 524.669 809.928 529.373 812.96 529.373Z" fill="white"/>
<path d="M943.05 243.644C946.076 243.644 946.083 238.939 943.05 238.939C940.022 238.939 940.017 243.644 943.05 243.644Z" fill="white"/>
<path d="M1285.69 168.146C1288.72 168.146 1288.73 163.442 1285.69 163.442C1282.67 163.442 1282.66 168.146 1285.69 168.146Z" fill="white"/>
<path d="M1059.2 97.2939C1062.22 97.2939 1062.23 92.5898 1059.2 92.5898C1056.17 92.5898 1056.17 97.2939 1059.2 97.2939Z" fill="white"/>
<path d="M1411.13 323.787C1414.16 323.787 1414.17 319.083 1411.13 319.083C1408.11 319.083 1408.1 323.787 1411.13 323.787Z" fill="white"/>
<path d="M1400.68 315.656C1403.71 315.656 1403.71 310.952 1400.68 310.952C1397.65 310.952 1397.65 315.656 1400.68 315.656Z" fill="white"/>
<path d="M1010.65 637.508C1013.67 637.508 1013.68 632.804 1010.65 632.804C1007.62 632.804 1007.61 637.508 1010.65 637.508Z" fill="white"/>
<path d="M1023.19 643.78C1026.22 643.78 1026.22 639.076 1023.19 639.076C1020.16 639.076 1020.16 643.78 1023.19 643.78Z" fill="white"/>
<path d="M1156.47 427.393C1159.5 427.393 1159.5 422.688 1156.47 422.688C1153.44 422.688 1153.44 427.393 1156.47 427.393Z" fill="white"/>
<path d="M1179.99 460.321C1183.02 460.321 1183.02 455.617 1179.99 455.617C1176.96 455.617 1176.96 460.321 1179.99 460.321Z" fill="white"/>
<path d="M1234.87 413.28C1237.9 413.28 1237.91 408.576 1234.87 408.576C1231.85 408.576 1231.84 413.28 1234.87 413.28Z" fill="white"/>
<path d="M816.21 505.794C819.236 505.794 819.242 501.09 816.21 501.09C813.183 501.09 813.177 505.794 816.21 505.794Z" fill="white"/>
<path d="M728.401 540.291C731.427 540.291 731.434 535.587 728.401 535.587C725.375 535.587 725.368 540.291 728.401 540.291Z" fill="white"/>
<path d="M786.417 626.532C789.443 626.532 789.449 621.828 786.417 621.828C783.39 621.828 783.384 626.532 786.417 626.532Z" fill="white"/>
<path d="M811.506 628.1C814.533 628.1 814.539 623.396 811.506 623.396C808.48 623.396 808.474 628.1 811.506 628.1Z" fill="white"/>
<path d="M783.28 657.893C786.306 657.893 786.312 653.188 783.28 653.188C780.254 653.188 780.247 657.893 783.28 657.893Z" fill="white"/>
<path d="M824.049 548.131C827.076 548.131 827.082 543.427 824.049 543.427C821.023 543.427 821.017 548.131 824.049 548.131Z" fill="white"/>
<path d="M1137.66 193.758C1140.68 193.758 1140.69 189.054 1137.66 189.054C1134.63 189.054 1134.62 193.758 1137.66 193.758Z" fill="white"/>
</g>
<g opacity="0.8">
<path d="M1104.67 414.151C1107.7 414.151 1107.7 409.447 1104.67 409.447C1101.64 409.447 1101.64 414.151 1104.67 414.151Z" fill="white"/>
<path d="M1147.64 259.671C1150.67 259.671 1150.68 254.967 1147.64 254.967C1144.62 254.967 1144.61 259.671 1147.64 259.671Z" fill="white"/>
<path d="M1309.1 385.113C1312.12 385.113 1312.13 380.409 1309.1 380.409C1306.07 380.409 1306.06 385.113 1309.1 385.113Z" fill="white"/>
<path d="M1318.39 453.642C1321.42 453.642 1321.42 448.938 1318.39 448.938C1315.36 448.938 1315.36 453.642 1318.39 453.642Z" fill="white"/>
<path d="M1335.81 444.35C1338.83 444.35 1338.84 439.646 1335.81 439.646C1332.78 439.646 1332.78 444.35 1335.81 444.35Z" fill="white"/>
<path d="M1081.44 141.198C1084.47 141.198 1084.47 136.494 1081.44 136.494C1078.41 136.494 1078.41 141.198 1081.44 141.198Z" fill="white"/>
<path d="M1066.34 141.198C1069.37 141.198 1069.38 136.494 1066.34 136.494C1063.32 136.494 1063.31 141.198 1066.34 141.198Z" fill="white"/>
<path d="M702.792 115.645C705.818 115.645 705.824 110.94 702.792 110.94C699.765 110.94 699.759 115.645 702.792 115.645Z" fill="white"/>
<path d="M716.726 101.708C719.752 101.708 719.758 97.0039 716.726 97.0039C713.698 97.0039 713.693 101.708 716.726 101.708Z" fill="white"/>
<path d="M1393.89 78.4775C1396.91 78.4775 1396.92 73.7734 1393.89 73.7734C1390.86 73.7734 1390.85 78.4775 1393.89 78.4775Z" fill="white"/>
<path d="M1376.46 93.5761C1379.49 93.5761 1379.49 88.8721 1376.46 88.8721C1373.43 88.8721 1373.43 93.5761 1376.46 93.5761Z" fill="white"/>
<path d="M1320.71 207.404C1323.74 207.404 1323.74 202.7 1320.71 202.7C1317.68 202.7 1317.68 207.404 1320.71 207.404Z" fill="white"/>
<path d="M1343.94 183.012C1346.96 183.012 1346.97 178.308 1343.94 178.308C1340.91 178.308 1340.9 183.012 1343.94 183.012Z" fill="white"/>
<path d="M1312.58 194.628C1315.6 194.628 1315.61 189.924 1312.58 189.924C1309.55 189.924 1309.54 194.628 1312.58 194.628Z" fill="white"/>
<path d="M972.261 342.138C975.287 342.138 975.293 337.434 972.261 337.434C969.233 337.434 969.228 342.138 972.261 342.138Z" fill="white"/>
<path d="M982.713 343.3C985.739 343.3 985.745 338.596 982.713 338.596C979.687 338.596 979.682 343.3 982.713 343.3Z" fill="white"/>
<path d="M795.709 302.647C798.735 302.647 798.742 297.943 795.709 297.943C792.683 297.943 792.678 302.647 795.709 302.647Z" fill="white"/>
<path d="M925.799 588.376C928.825 588.376 928.83 583.672 925.799 583.672C922.773 583.672 922.768 588.376 925.799 588.376Z" fill="white"/>
<path d="M1257.47 663.874C1260.49 663.874 1260.5 659.17 1257.47 659.17C1254.44 659.17 1254.44 663.874 1257.47 663.874Z" fill="white"/>
<path d="M1041.95 734.724C1044.98 734.724 1044.98 730.02 1041.95 730.02C1038.92 730.02 1038.92 734.724 1041.95 734.724Z" fill="white"/>
<path d="M1393.89 508.231C1396.91 508.231 1396.92 503.527 1393.89 503.527C1390.86 503.527 1390.85 508.231 1393.89 508.231Z" fill="white"/>
<path d="M1383.43 516.363C1386.46 516.363 1386.46 511.659 1383.43 511.659C1380.41 511.659 1380.4 516.363 1383.43 516.363Z" fill="white"/>
<path d="M993.396 194.512C996.423 194.512 996.427 189.808 993.396 189.808C990.37 189.808 990.365 194.512 993.396 194.512Z" fill="white"/>
<path d="M1005.94 188.239C1008.97 188.239 1008.97 183.535 1005.94 183.535C1002.91 183.535 1002.91 188.239 1005.94 188.239Z" fill="white"/>
<path d="M1139.22 404.627C1142.25 404.627 1142.25 399.923 1139.22 399.923C1136.19 399.923 1136.19 404.627 1139.22 404.627Z" fill="white"/>
<path d="M1162.74 371.698C1165.77 371.698 1165.78 366.994 1162.74 366.994C1159.72 366.994 1159.71 371.698 1162.74 371.698Z" fill="white"/>
<path d="M1217.62 418.739C1220.65 418.739 1220.66 414.035 1217.62 414.035C1214.6 414.035 1214.59 418.739 1217.62 418.739Z" fill="white"/>
<path d="M798.963 326.226C801.989 326.226 801.995 321.521 798.963 321.521C795.937 321.521 795.932 326.226 798.963 326.226Z" fill="white"/>
<path d="M711.15 291.728C714.177 291.728 714.183 287.024 711.15 287.024C708.124 287.024 708.119 291.728 711.15 291.728Z" fill="white"/>
<path d="M769.17 205.487C772.196 205.487 772.201 200.783 769.17 200.783C766.144 200.783 766.139 205.487 769.17 205.487Z" fill="white"/>
<path d="M794.256 203.92C797.282 203.92 797.288 199.216 794.256 199.216C791.23 199.216 791.225 203.92 794.256 203.92Z" fill="white"/>
<path d="M766.033 174.127C769.059 174.127 769.064 169.423 766.033 169.423C763.007 169.423 763.002 174.127 766.033 174.127Z" fill="white"/>
<path d="M806.803 283.889C809.829 283.889 809.835 279.185 806.803 279.185C803.776 279.185 803.772 283.889 806.803 283.889Z" fill="white"/>
<path d="M1120.4 638.262C1123.43 638.262 1123.44 633.558 1120.4 633.558C1117.38 633.558 1117.37 638.262 1120.4 638.262Z" fill="white"/>
</g>
<g opacity="0.5">
<path d="M1342.6 352.417C1343.61 352.417 1343.61 350.849 1342.6 350.849C1341.59 350.849 1341.59 352.417 1342.6 352.417Z" fill="white"/>
<path d="M1346.09 368.679C1347.09 368.679 1347.1 367.111 1346.09 367.111C1345.08 367.111 1345.07 368.679 1346.09 368.679Z" fill="white"/>
<path d="M1350.73 360.548C1351.73 360.548 1351.74 358.979 1350.73 358.979C1349.72 358.979 1349.72 360.548 1350.73 360.548Z" fill="white"/>
<path d="M1121.91 402.361C1122.92 402.361 1122.92 400.793 1121.91 400.793C1120.9 400.793 1120.9 402.361 1121.91 402.361Z" fill="white"/>
<path d="M1133.53 401.2C1134.54 401.2 1134.54 399.632 1133.53 399.632C1132.52 399.632 1132.52 401.2 1133.53 401.2Z" fill="white"/>
<path d="M1010.41 470.89C1011.42 470.89 1011.42 469.322 1010.41 469.322C1009.4 469.322 1009.4 470.89 1010.41 470.89Z" fill="white"/>
<path d="M1030.16 505.735C1031.17 505.735 1031.17 504.167 1030.16 504.167C1029.15 504.167 1029.15 505.735 1030.16 505.735Z" fill="white"/>
<path d="M1035.96 495.281C1036.97 495.281 1036.98 493.713 1035.96 493.713C1034.96 493.713 1034.95 495.281 1035.96 495.281Z" fill="white"/>
<path d="M1046.42 501.09C1047.43 501.09 1047.43 499.521 1046.42 499.521C1045.41 499.521 1045.41 501.09 1046.42 501.09Z" fill="white"/>
<path d="M717.71 729.904C718.718 729.904 718.721 728.336 717.71 728.336C716.702 728.336 716.7 729.904 717.71 729.904Z" fill="white"/>
<path d="M696.805 731.066C697.813 731.066 697.815 729.498 696.805 729.498C695.795 729.498 695.793 731.066 696.805 731.066Z" fill="white"/>
<path d="M1015.06 660.215C1016.07 660.215 1016.07 658.647 1015.06 658.647C1014.05 658.647 1014.05 660.215 1015.06 660.215Z" fill="white"/>
<path d="M996.469 633.5C997.477 633.5 997.48 631.932 996.469 631.932C995.459 631.932 995.458 633.5 996.469 633.5Z" fill="white"/>
<path d="M1041.77 631.176C1042.78 631.176 1042.78 629.608 1041.77 629.608C1040.76 629.608 1040.76 631.176 1041.77 631.176Z" fill="white"/>
<path d="M1031.32 570.779C1032.32 570.779 1032.33 569.211 1031.32 569.211C1030.31 569.211 1030.31 570.779 1031.32 570.779Z" fill="white"/>
<path d="M988.344 563.81C989.352 563.81 989.355 562.242 988.344 562.242C987.334 562.242 987.333 563.81 988.344 563.81Z" fill="white"/>
<path d="M1015.06 552.195C1016.07 552.195 1016.07 550.627 1015.06 550.627C1014.05 550.627 1014.05 552.195 1015.06 552.195Z" fill="white"/>
<path d="M880.32 555.68C881.329 555.68 881.332 554.112 880.32 554.112C879.311 554.112 879.309 555.68 880.32 555.68Z" fill="white"/>
<path d="M886.133 569.618C887.141 569.618 887.144 568.05 886.133 568.05C885.123 568.05 885.122 569.618 886.133 569.618Z" fill="white"/>
<path d="M900.065 547.549C901.074 547.549 901.077 545.981 900.065 545.981C899.057 545.981 899.056 547.549 900.065 547.549Z" fill="white"/>
<path d="M776.945 508.058C777.954 508.058 777.955 506.49 776.945 506.49C775.936 506.49 775.934 508.058 776.945 508.058Z" fill="white"/>
<path d="M792.051 520.835C793.059 520.835 793.062 519.267 792.051 519.267C791.041 519.267 791.04 520.835 792.051 520.835Z" fill="white"/>
<path d="M797.858 495.281C798.867 495.281 798.87 493.713 797.858 493.713C796.85 493.713 796.849 495.281 797.858 495.281Z" fill="white"/>
<path d="M1184.63 220.007C1185.64 220.007 1185.64 218.438 1184.63 218.438C1183.62 218.438 1183.62 220.007 1184.63 220.007Z" fill="white"/>
<path d="M1191.6 439.53C1192.61 439.53 1192.62 437.962 1191.6 437.962C1190.6 437.962 1190.59 439.53 1191.6 439.53Z" fill="white"/>
<path d="M1337.96 545.226C1338.97 545.226 1338.97 543.658 1337.96 543.658C1336.95 543.658 1336.95 545.226 1337.96 545.226Z" fill="white"/>
<path d="M1347.25 521.995C1348.26 521.995 1348.26 520.427 1347.25 520.427C1346.24 520.427 1346.24 521.995 1347.25 521.995Z" fill="white"/>
<path d="M1372.8 533.612C1373.81 533.612 1373.81 532.044 1372.8 532.044C1371.79 532.044 1371.79 533.612 1372.8 533.612Z" fill="white"/>
<path d="M1351.89 535.933C1352.9 535.933 1352.9 534.365 1351.89 534.365C1350.88 534.365 1350.88 535.933 1351.89 535.933Z" fill="white"/>
<path d="M1420.42 439.53C1421.43 439.53 1421.43 437.962 1420.42 437.962C1419.41 437.962 1419.41 439.53 1420.42 439.53Z" fill="white"/>
<path d="M1404.16 441.852C1405.16 441.852 1405.17 440.284 1404.16 440.284C1403.15 440.284 1403.15 441.852 1404.16 441.852Z" fill="white"/>
<path d="M1274.07 325.703C1275.08 325.703 1275.08 324.135 1274.07 324.135C1273.06 324.135 1273.06 325.703 1274.07 325.703Z" fill="white"/>
<path d="M1290.33 326.865C1291.34 326.865 1291.34 325.297 1290.33 325.297C1289.32 325.297 1289.32 326.865 1290.33 326.865Z" fill="white"/>
<path d="M1256.64 305.958C1257.65 305.958 1257.66 304.39 1256.64 304.39C1255.63 304.39 1255.63 305.958 1256.64 305.958Z" fill="white"/>
<path d="M1354.21 257.173C1355.22 257.173 1355.22 255.605 1354.21 255.605C1353.2 255.605 1353.2 257.173 1354.21 257.173Z" fill="white"/>
<path d="M1364.67 256.013C1365.68 256.013 1365.68 254.445 1364.67 254.445C1363.66 254.445 1363.66 256.013 1364.67 256.013Z" fill="white"/>
<path d="M1368.15 244.397C1369.16 244.397 1369.16 242.829 1368.15 242.829C1367.14 242.829 1367.14 244.397 1368.15 244.397Z" fill="white"/>
<path d="M1375.12 274.597C1376.13 274.597 1376.14 273.029 1375.12 273.029C1374.12 273.029 1374.11 274.597 1375.12 274.597Z" fill="white"/>
<path d="M1390.22 159.608C1391.23 159.608 1391.23 158.04 1390.22 158.04C1389.21 158.04 1389.21 159.608 1390.22 159.608Z" fill="white"/>
<path d="M1371.64 118.955C1372.64 118.955 1372.65 117.387 1371.64 117.387C1370.63 117.387 1370.63 118.955 1371.64 118.955Z" fill="white"/>
<path d="M1132.95 523.042C1133.96 523.042 1133.96 521.474 1132.95 521.474C1131.94 521.474 1131.94 523.042 1132.95 523.042Z" fill="white"/>
<path d="M1150.2 523.042C1151.21 523.042 1151.21 521.474 1150.2 521.474C1149.19 521.474 1149.19 523.042 1150.2 523.042Z" fill="white"/>
<path d="M1264.66 405.439C1265.67 405.439 1265.68 403.871 1264.66 403.871C1263.65 403.871 1263.65 405.439 1264.66 405.439Z" fill="white"/>
<path d="M1288.18 408.576C1289.19 408.576 1289.2 407.008 1288.18 407.008C1287.17 407.008 1287.17 408.576 1288.18 408.576Z" fill="white"/>
<path d="M1252.12 383.487C1253.13 383.487 1253.13 381.919 1252.12 381.919C1251.11 381.919 1251.11 383.487 1252.12 383.487Z" fill="white"/>
<path d="M1354.04 174.94C1355.05 174.94 1355.05 173.372 1354.04 173.372C1353.03 173.372 1353.03 174.94 1354.04 174.94Z" fill="white"/>
<path d="M1198.81 637.507C1199.82 637.507 1199.82 635.939 1198.81 635.939C1197.8 635.939 1197.8 637.507 1198.81 637.507Z" fill="white"/>
<path d="M1230.17 654.756C1231.18 654.756 1231.18 653.188 1230.17 653.188C1229.16 653.188 1229.16 654.756 1230.17 654.756Z" fill="white"/>
<path d="M1227.03 612.419C1228.04 612.419 1228.04 610.851 1227.03 610.851C1226.02 610.851 1226.02 612.419 1227.03 612.419Z" fill="white"/>
<path d="M1220.76 637.507C1221.77 637.507 1221.77 635.939 1220.76 635.939C1219.75 635.939 1219.75 637.507 1220.76 637.507Z" fill="white"/>
<path d="M1158.04 708.068C1159.05 708.068 1159.05 706.5 1158.04 706.5C1157.03 706.5 1157.03 708.068 1158.04 708.068Z" fill="white"/>
<path d="M1187.83 745.701C1188.84 745.701 1188.84 744.133 1187.83 744.133C1186.82 744.133 1186.82 745.701 1187.83 745.701Z" fill="white"/>
<path d="M1300.73 662.595C1301.73 662.595 1301.74 661.027 1300.73 661.027C1299.72 661.027 1299.72 662.595 1300.73 662.595Z" fill="white"/>
<path d="M963.602 294.11C964.61 294.11 964.612 292.542 963.602 292.542C962.592 292.542 962.59 294.11 963.602 294.11Z" fill="white"/>
<path d="M999.668 297.246C1000.68 297.246 1000.68 295.678 999.668 295.678C998.658 295.678 998.657 297.246 999.668 297.246Z" fill="white"/>
<path d="M883.633 206.3C884.641 206.3 884.643 204.732 883.633 204.732C882.623 204.732 882.622 206.3 883.633 206.3Z" fill="white"/>
<path d="M867.953 91.8346C868.961 91.8346 868.963 90.2666 867.953 90.2666C866.943 90.2666 866.942 91.8346 867.953 91.8346Z" fill="white"/>
<path d="M904.02 142.011C905.028 142.011 905.029 140.443 904.02 140.443C903.01 140.443 903.008 142.011 904.02 142.011Z" fill="white"/>
<path d="M866.387 76.1549C867.395 76.1549 867.397 74.5869 866.387 74.5869C865.377 74.5869 865.375 76.1549 866.387 76.1549Z" fill="white"/>
<path d="M878.93 74.5866C879.938 74.5866 879.94 73.0186 878.93 73.0186C877.92 73.0186 877.918 74.5866 878.93 74.5866Z" fill="white"/>
<path d="M781.711 124.763C782.719 124.763 782.721 123.195 781.711 123.195C780.701 123.195 780.7 124.763 781.711 124.763Z" fill="white"/>
<path d="M831.891 187.484C832.899 187.484 832.901 185.916 831.891 185.916C830.881 185.916 830.879 187.484 831.891 187.484Z" fill="white"/>
<path d="M740.945 167.1C741.954 167.1 741.955 165.532 740.945 165.532C739.936 165.532 739.934 167.1 740.945 167.1Z" fill="white"/>
<path d="M740.945 350.558C741.954 350.558 741.955 348.99 740.945 348.99C739.936 348.99 739.934 350.558 740.945 350.558Z" fill="white"/>
<path d="M780.145 435.232C781.153 435.232 781.154 433.664 780.145 433.664C779.135 433.664 779.133 435.232 780.145 435.232Z" fill="white"/>
<path d="M1186.26 380.351C1187.27 380.351 1187.27 378.783 1186.26 378.783C1185.25 378.783 1185.25 380.351 1186.26 380.351Z" fill="white"/>
<path d="M1206.65 391.328C1207.66 391.328 1207.66 389.76 1206.65 389.76C1205.64 389.76 1205.64 391.328 1206.65 391.328Z" fill="white"/>
<path d="M1190.96 403.872C1191.97 403.872 1191.98 402.304 1190.96 402.304C1189.96 402.304 1189.95 403.872 1190.96 403.872Z" fill="white"/>
<path d="M1101.59 659.46C1102.6 659.46 1102.6 657.892 1101.59 657.892C1100.58 657.892 1100.58 659.46 1101.59 659.46Z" fill="white"/>
<path d="M1156.47 678.276C1157.48 678.276 1157.48 676.708 1156.47 676.708C1155.46 676.708 1155.46 678.276 1156.47 678.276Z" fill="white"/>
<path d="M1183.13 704.932C1184.13 704.932 1184.14 703.364 1183.13 703.364C1182.12 703.364 1182.11 704.932 1183.13 704.932Z" fill="white"/>
<path d="M944.785 679.843C945.794 679.843 945.795 678.275 944.785 678.275C943.775 678.275 943.774 679.843 944.785 679.843Z" fill="white"/>
</g>
<path d="M909.343 765.301C909.343 768.332 906.886 770.789 903.855 770.789C900.824 770.789 898.367 768.332 898.367 765.301C898.367 762.27 900.824 759.812 903.855 759.812C906.886 759.812 909.343 762.27 909.343 765.301Z" stroke="#29EFBB" stroke-width="0.784012" stroke-miterlimit="10"/>
<path d="M906.76 765.302C906.76 766.907 905.458 768.209 903.852 768.209C902.247 768.209 900.945 766.907 900.945 765.302C900.945 763.696 902.247 762.395 903.852 762.395C905.458 762.395 906.76 763.696 906.76 765.302Z" fill="white"/>
<path d="M1009.95 500.436C1009.95 502.965 1007.9 505.016 1005.37 505.016C1002.84 505.016 1000.79 502.965 1000.79 500.436C1000.79 497.906 1002.84 495.855 1005.37 495.855C1007.9 495.855 1009.95 497.906 1009.95 500.436Z" stroke="#29EFBB" stroke-width="0.784012" stroke-miterlimit="10"/>
<path d="M1007.8 500.435C1007.8 501.775 1006.71 502.861 1005.37 502.861C1004.03 502.861 1002.95 501.775 1002.95 500.435C1002.95 499.096 1004.03 498.01 1005.37 498.01C1006.71 498.01 1007.8 499.096 1007.8 500.435Z" fill="white"/>
<path d="M1201.16 591.251C1201.16 594.282 1198.7 596.739 1195.67 596.739C1192.64 596.739 1190.18 594.282 1190.18 591.251C1190.18 588.22 1192.64 585.763 1195.67 585.763C1198.7 585.763 1201.16 588.22 1201.16 591.251Z" stroke="#29EFBB" stroke-width="0.784012" stroke-miterlimit="10"/>
<path d="M1198.58 591.251C1198.58 592.857 1197.27 594.158 1195.67 594.158C1194.06 594.158 1192.76 592.857 1192.76 591.251C1192.76 589.645 1194.06 588.344 1195.67 588.344C1197.27 588.344 1198.58 589.645 1198.58 591.251Z" fill="white"/>
<path d="M914.211 603.012C914.211 606.043 911.753 608.5 908.722 608.5C905.691 608.5 903.234 606.043 903.234 603.012C903.234 599.981 905.691 597.523 908.722 597.523C911.753 597.523 914.211 599.981 914.211 603.012Z" stroke="#29EFBB" stroke-width="0.784012" stroke-miterlimit="10"/>
<path d="M908.724 605.92C910.329 605.92 911.631 604.618 911.631 603.013C911.631 601.407 910.329 600.105 908.724 600.105C907.118 600.105 905.816 601.407 905.816 603.013C905.816 604.618 907.118 605.92 908.724 605.92Z" fill="white"/>
<path d="M1011.14 354.479C1011.14 357.51 1008.68 359.967 1005.65 359.967C1002.62 359.967 1000.16 357.51 1000.16 354.479C1000.16 351.448 1002.62 348.991 1005.65 348.991C1008.68 348.991 1011.14 351.448 1011.14 354.479Z" stroke="#29EFBB" stroke-width="0.784012" stroke-miterlimit="10"/>
<path d="M1008.55 354.479C1008.55 356.085 1007.25 357.387 1005.65 357.387C1004.04 357.387 1002.74 356.085 1002.74 354.479C1002.74 352.874 1004.04 351.572 1005.65 351.572C1007.25 351.572 1008.55 352.874 1008.55 354.479Z" fill="white"/>
<path d="M1439.5 340.367C1439.5 343.398 1437.04 345.855 1434.01 345.855C1430.98 345.855 1428.52 343.398 1428.52 340.367C1428.52 337.336 1430.98 334.879 1434.01 334.879C1437.04 334.879 1439.5 337.336 1439.5 340.367Z" stroke="#29EFBB" stroke-width="0.784012" stroke-miterlimit="10"/>
<path d="M1436.92 340.367C1436.92 341.973 1435.61 343.274 1434.01 343.274C1432.4 343.274 1431.1 341.973 1431.1 340.367C1431.1 338.761 1432.4 337.46 1434.01 337.46C1435.61 337.46 1436.92 338.761 1436.92 340.367Z" fill="white"/>
<path d="M1106.75 425.041C1106.75 428.072 1104.3 430.529 1101.27 430.529C1098.23 430.529 1095.78 428.072 1095.78 425.041C1095.78 422.01 1098.23 419.553 1101.27 419.553C1104.3 419.553 1106.75 422.01 1106.75 425.041Z" stroke="#29EFBB" stroke-width="0.784012" stroke-miterlimit="10"/>
<path d="M1104.17 425.041C1104.17 426.647 1102.87 427.948 1101.26 427.948C1099.66 427.948 1098.36 426.647 1098.36 425.041C1098.36 423.435 1099.66 422.134 1101.26 422.134C1102.87 422.134 1104.17 423.435 1104.17 425.041Z" fill="white"/>
<path d="M873.538 728.582C873.538 732.514 870.351 735.701 866.42 735.701C862.489 735.701 859.301 732.513 859.301 728.582C859.301 724.651 862.489 721.463 866.42 721.463C870.351 721.463 873.538 724.651 873.538 728.582Z" stroke="#29EFBB" stroke-width="0.784012" stroke-miterlimit="10"/>
<path d="M870.195 728.582C870.195 730.664 868.506 732.353 866.423 732.353C864.341 732.353 862.652 730.664 862.652 728.582C862.652 726.499 864.341 724.811 866.423 724.811C868.506 724.811 870.195 726.499 870.195 728.582Z" fill="white"/>
<path d="M727.683 695.524C727.683 699.457 724.495 702.643 720.564 702.643C716.633 702.643 713.445 699.455 713.445 695.524C713.445 691.593 716.633 688.405 720.564 688.405C724.495 688.405 727.683 691.592 727.683 695.524Z" stroke="#29EFBB" stroke-width="0.784012" stroke-miterlimit="10"/>
<path d="M724.335 695.524C724.335 697.606 722.646 699.295 720.564 699.295C718.482 699.295 716.793 697.606 716.793 695.524C716.793 693.442 718.482 691.753 720.564 691.753C722.646 691.753 724.335 693.442 724.335 695.524Z" fill="white"/>
<path d="M1182.41 265.102C1182.41 269.035 1179.22 272.221 1175.29 272.221C1171.36 272.221 1168.17 269.033 1168.17 265.102C1168.17 261.171 1171.36 257.983 1175.29 257.983C1179.22 257.983 1182.41 261.17 1182.41 265.102Z" stroke="#29EFBB" stroke-width="0.784012" stroke-miterlimit="10"/>
<path d="M1179.06 265.102C1179.06 267.184 1177.37 268.873 1175.29 268.873C1173.21 268.873 1171.52 267.184 1171.52 265.102C1171.52 263.02 1173.21 261.331 1175.29 261.331C1177.37 261.331 1179.06 263.02 1179.06 265.102Z" fill="white"/>
<path d="M1366.24 625.748C1366.24 629.68 1363.05 632.867 1359.12 632.867C1355.19 632.867 1352 629.679 1352 625.748C1352 621.817 1355.19 618.629 1359.12 618.629C1363.05 618.629 1366.24 621.815 1366.24 625.748Z" stroke="#29EFBB" stroke-width="0.784012" stroke-miterlimit="10"/>
<path d="M1362.89 625.748C1362.89 627.83 1361.2 629.519 1359.12 629.519C1357.04 629.519 1355.35 627.83 1355.35 625.748C1355.35 623.665 1357.04 621.977 1359.12 621.977C1361.2 621.977 1362.89 623.665 1362.89 625.748Z" fill="white"/>
<path d="M1369.33 440.721C1369.33 446.358 1364.76 450.928 1359.12 450.928C1353.48 450.928 1348.91 446.358 1348.91 440.721C1348.91 435.083 1353.48 430.513 1359.12 430.513C1364.76 430.513 1369.33 435.083 1369.33 440.721Z" stroke="#29EFBB" stroke-width="0.784012" stroke-miterlimit="10"/>
<path d="M1364.53 440.721C1364.53 443.708 1362.11 446.129 1359.13 446.129C1356.14 446.129 1353.72 443.708 1353.72 440.721C1353.72 437.734 1356.14 435.312 1359.13 435.312C1362.11 435.312 1364.53 437.734 1364.53 440.721Z" fill="white"/>
<path d="M1123.94 585.764C1123.94 591.401 1119.37 595.971 1113.74 595.971C1108.1 595.971 1103.53 591.401 1103.53 585.764C1103.53 580.126 1108.1 575.556 1113.74 575.556C1119.37 575.556 1123.94 580.126 1123.94 585.764Z" stroke="#29EFBB" stroke-width="0.784012" stroke-miterlimit="10"/>
<path d="M1119.14 585.763C1119.14 588.75 1116.72 591.171 1113.74 591.171C1110.75 591.171 1108.33 588.75 1108.33 585.763C1108.33 582.776 1110.75 580.354 1113.74 580.354C1116.72 580.354 1119.14 582.776 1119.14 585.763Z" fill="white"/>
<path d="M1406.78 230.605C1406.78 236.242 1402.2 240.813 1396.57 240.813C1390.93 240.813 1386.36 236.242 1386.36 230.605C1386.36 224.968 1390.93 220.397 1396.57 220.397C1402.2 220.397 1406.78 224.968 1406.78 230.605Z" stroke="#29EFBB" stroke-width="0.784012" stroke-miterlimit="10"/>
<path d="M1401.98 230.605C1401.98 233.592 1399.56 236.014 1396.57 236.014C1393.58 236.014 1391.16 233.592 1391.16 230.605C1391.16 227.618 1393.58 225.197 1396.57 225.197C1399.56 225.197 1401.98 227.618 1401.98 230.605Z" fill="white"/>
<path d="M1266.63 765.302C1266.63 770.939 1262.06 775.509 1256.42 775.509C1250.78 775.509 1246.21 770.939 1246.21 765.302C1246.21 759.665 1250.78 755.094 1256.42 755.094C1262.06 755.094 1266.63 759.665 1266.63 765.302Z" stroke="#29EFBB" stroke-width="0.784012" stroke-miterlimit="10"/>
<path d="M1261.83 765.301C1261.83 768.288 1259.41 770.709 1256.42 770.709C1253.43 770.709 1251.01 768.288 1251.01 765.301C1251.01 762.314 1253.43 759.893 1256.42 759.893C1259.41 759.893 1261.83 762.314 1261.83 765.301Z" fill="white"/>
<defs>
<radialGradient id="paint0_radial_410_11162" cx="0" cy="0" r="1" gradientUnits="userSpaceOnUse" gradientTransform="translate(1437.12 772.896) rotate(90) scale(1093.04 2028.33)">
<stop stop-color="#29EFBB"/>
<stop offset="0.2107" stop-color="#2BB7B1"/>
<stop offset="0.4893" stop-color="#2E74A6"/>
<stop offset="0.7233" stop-color="#2F439D"/>
<stop offset="0.9005" stop-color="#312498"/>
<stop offset="1" stop-color="#311996"/>
</radialGradient>
<linearGradient id="paint1_linear_410_11162" x1="1317.58" y1="695.524" x2="1359.51" y2="695.524" gradientUnits="userSpaceOnUse">
<stop stop-color="#29EFBB"/>
<stop offset="0.1601" stop-color="#4EF1C7"/>
<stop offset="0.5723" stop-color="#A9F6E3"/>
<stop offset="0.8615" stop-color="#E3FAF5"/>
<stop offset="1" stop-color="#F9FBFC"/>
</linearGradient>
<linearGradient id="paint2_linear_410_11162" x1="1113.35" y1="603.011" x2="1434.41" y2="603.011" gradientUnits="userSpaceOnUse">
<stop stop-color="#29EFBB"/>
<stop offset="0.1601" stop-color="#4EF1C7"/>
<stop offset="0.5723" stop-color="#A9F6E3"/>
<stop offset="0.8615" stop-color="#E3FAF5"/>
<stop offset="1" stop-color="#F9FBFC"/>
</linearGradient>
<linearGradient id="paint3_linear_410_11162" x1="1112.18" y1="603.011" x2="1359.52" y2="603.011" gradientUnits="userSpaceOnUse">
<stop stop-color="#29EFBB"/>
<stop offset="0.1601" stop-color="#4EF1C7"/>
<stop offset="0.5723" stop-color="#A9F6E3"/>
<stop offset="0.8615" stop-color="#E3FAF5"/>
<stop offset="1" stop-color="#F9FBFC"/>
</linearGradient>
<linearGradient id="paint4_linear_410_11162" x1="1358.73" y1="335.663" x2="1434.4" y2="335.663" gradientUnits="userSpaceOnUse">
<stop stop-color="#29EFBB"/>
<stop offset="0.1601" stop-color="#4EF1C7"/>
<stop offset="0.5723" stop-color="#A9F6E3"/>
<stop offset="0.8615" stop-color="#E3FAF5"/>
<stop offset="1" stop-color="#F9FBFC"/>
</linearGradient>
<linearGradient id="paint5_linear_410_11162" x1="1174.9" y1="258.046" x2="1434.4" y2="258.046" gradientUnits="userSpaceOnUse">
<stop stop-color="#29EFBB"/>
<stop offset="0.1601" stop-color="#4EF1C7"/>
<stop offset="0.5723" stop-color="#A9F6E3"/>
<stop offset="0.8615" stop-color="#E3FAF5"/>
<stop offset="1" stop-color="#F9FBFC"/>
</linearGradient>
<linearGradient id="paint6_linear_410_11162" x1="1100.87" y1="428.176" x2="1434.4" y2="428.176" gradientUnits="userSpaceOnUse">
<stop stop-color="#29EFBB"/>
<stop offset="0.1601" stop-color="#4EF1C7"/>
<stop offset="0.5723" stop-color="#A9F6E3"/>
<stop offset="0.8615" stop-color="#E3FAF5"/>
<stop offset="1" stop-color="#F9FBFC"/>
</linearGradient>
<linearGradient id="paint7_linear_410_11162" x1="1004.98" y1="566.946" x2="1114.13" y2="566.946" gradientUnits="userSpaceOnUse">
<stop stop-color="#29EFBB"/>
<stop offset="0.1601" stop-color="#4EF1C7"/>
<stop offset="0.5723" stop-color="#A9F6E3"/>
<stop offset="0.8615" stop-color="#E3FAF5"/>
<stop offset="1" stop-color="#F9FBFC"/>
</linearGradient>
<linearGradient id="paint8_linear_410_11162" x1="1137.1" y1="180.037" x2="1396.96" y2="180.037" gradientUnits="userSpaceOnUse">
<stop stop-color="#29EFBB"/>
<stop offset="0.1601" stop-color="#4EF1C7"/>
<stop offset="0.5723" stop-color="#A9F6E3"/>
<stop offset="0.8615" stop-color="#E3FAF5"/>
<stop offset="1" stop-color="#F9FBFC"/>
</linearGradient>
<linearGradient id="paint9_linear_410_11162" x1="823.659" y1="365.912" x2="1434.4" y2="365.912" gradientUnits="userSpaceOnUse">
<stop stop-color="#29EFBB"/>
<stop offset="0.1601" stop-color="#4EF1C7"/>
<stop offset="0.5723" stop-color="#A9F6E3"/>
<stop offset="0.8615" stop-color="#E3FAF5"/>
<stop offset="1" stop-color="#F9FBFC"/>
</linearGradient>
<linearGradient id="paint10_linear_410_11162" x1="649.608" y1="655.54" x2="909.116" y2="655.54" gradientUnits="userSpaceOnUse">
<stop stop-color="#29EFBB"/>
<stop offset="0.1601" stop-color="#4EF1C7"/>
<stop offset="0.5723" stop-color="#A9F6E3"/>
<stop offset="0.8615" stop-color="#E3FAF5"/>
<stop offset="1" stop-color="#F9FBFC"/>
</linearGradient>
<linearGradient id="paint11_linear_410_11162" x1="649.608" y1="730.413" x2="720.953" y2="730.413" gradientUnits="userSpaceOnUse">
<stop stop-color="#29EFBB"/>
<stop offset="0.1601" stop-color="#4EF1C7"/>
<stop offset="0.5723" stop-color="#A9F6E3"/>
<stop offset="0.8615" stop-color="#E3FAF5"/>
<stop offset="1" stop-color="#F9FBFC"/>
</linearGradient>
<linearGradient id="paint12_linear_410_11162" x1="952.921" y1="405.41" x2="1005.83" y2="405.41" gradientUnits="userSpaceOnUse">
<stop stop-color="#29EFBB"/>
<stop offset="0.1601" stop-color="#4EF1C7"/>
<stop offset="0.5723" stop-color="#A9F6E3"/>
<stop offset="0.8615" stop-color="#E3FAF5"/>
<stop offset="1" stop-color="#F9FBFC"/>
</linearGradient>
<linearGradient id="paint13_linear_410_11162" x1="675.837" y1="557.952" x2="739.591" y2="557.952" gradientUnits="userSpaceOnUse">
<stop stop-color="#29EFBB"/>
<stop offset="0.1601" stop-color="#4EF1C7"/>
<stop offset="0.5723" stop-color="#A9F6E3"/>
<stop offset="0.8615" stop-color="#E3FAF5"/>
<stop offset="1" stop-color="#F9FBFC"/>
</linearGradient>
<linearGradient id="paint14_linear_410_11162" x1="759.3" y1="519.397" x2="813.648" y2="519.397" gradientUnits="userSpaceOnUse">
<stop stop-color="#29EFBB"/>
<stop offset="0.1601" stop-color="#4EF1C7"/>
<stop offset="0.5723" stop-color="#A9F6E3"/>
<stop offset="0.8615" stop-color="#E3FAF5"/>
<stop offset="1" stop-color="#F9FBFC"/>
</linearGradient>
<linearGradient id="paint15_linear_410_11162" x1="823.289" y1="385.928" x2="863.767" y2="385.928" gradientUnits="userSpaceOnUse">
<stop stop-color="#29EFBB"/>
<stop offset="0.1601" stop-color="#4EF1C7"/>
<stop offset="0.5723" stop-color="#A9F6E3"/>
<stop offset="0.8615" stop-color="#E3FAF5"/>
<stop offset="1" stop-color="#F9FBFC"/>
</linearGradient>
<linearGradient id="paint16_linear_410_11162" x1="941.516" y1="272.23" x2="1152.04" y2="272.23" gradientUnits="userSpaceOnUse">
<stop stop-color="#29EFBB"/>
<stop offset="0.1601" stop-color="#4EF1C7"/>
<stop offset="0.5723" stop-color="#A9F6E3"/>
<stop offset="0.8615" stop-color="#E3FAF5"/>
<stop offset="1" stop-color="#F9FBFC"/>
</linearGradient>
<linearGradient id="paint17_linear_410_11162" x1="1227.57" y1="116.108" x2="1305.13" y2="116.108" gradientUnits="userSpaceOnUse">
<stop stop-color="#29EFBB"/>
<stop offset="0.1601" stop-color="#4EF1C7"/>
<stop offset="0.5723" stop-color="#A9F6E3"/>
<stop offset="0.8615" stop-color="#E3FAF5"/>
<stop offset="1" stop-color="#F9FBFC"/>
</linearGradient>
<linearGradient id="paint18_linear_410_11162" x1="952.693" y1="69.0104" x2="1058.5" y2="69.0104" gradientUnits="userSpaceOnUse">
<stop stop-color="#29EFBB"/>
<stop offset="0.1601" stop-color="#4EF1C7"/>
<stop offset="0.5723" stop-color="#A9F6E3"/>
<stop offset="0.8615" stop-color="#E3FAF5"/>
<stop offset="1" stop-color="#F9FBFC"/>
</linearGradient>
</defs>
</svg>
