<svg width="1440" height="430" viewBox="0 0 1440 430" fill="none" xmlns="http://www.w3.org/2000/svg">
<g opacity="0.4">
<path d="M5.94531 40.2969C58.8152 61.4172 105.656 90.9879 143.548 127.165C199.395 181.148 196.357 214.22 249.996 245.058C302.13 275.007 373.683 283.259 431.736 271.946C510.949 256.496 514.532 214.447 616.073 147.848C675.787 108.716 787.765 35.2502 919.838 42.3652C986.563 45.964 1052.9 69.8321 1114.56 92.0042C1190.14 119.182 1200.99 133.143 1241.78 139.575C1290.22 147.228 1365.13 141.788 1472.85 73.3896" stroke="black" stroke-opacity="0.3" stroke-width="0.812532" stroke-miterlimit="10"/>
<path d="M4.46094 48.0312C52.1017 66.5857 95.0498 91.9658 131.16 122.903C134.613 125.903 138.066 128.984 141.545 132.149C197.962 184.435 195.729 216.018 248.694 246.091C271.781 259.251 297.921 268.622 325.596 273.661C345.418 277.256 365.749 278.758 386.063 278.129C401.254 277.652 416.33 275.813 431.005 272.648C447.357 269.3 462.902 263.821 477.011 256.433C502.974 242.782 521.148 224.353 549.11 201.23C570.173 183.827 593.088 167.911 617.6 153.659C630.581 146.006 645.744 136.782 663.269 127.33C710.158 101.972 770.158 74.4227 842.153 64.9085C866.582 61.5878 891.405 60.4777 916.147 61.5993C919.938 61.7647 923.702 62.0129 927.415 62.3025C964.178 65.136 999.202 72.6439 1034.98 82.6131C1061.75 89.9762 1087.06 99.1595 1112.17 107.784C1122.68 111.466 1132.08 114.816 1140.57 117.96C1191.85 137.009 1205.17 147.227 1240.19 151.694C1266.8 155.086 1301.23 154.486 1344.92 142.408C1380.75 132.521 1423.18 114.713 1472.84 85.2605" stroke="black" stroke-opacity="0.3" stroke-width="0.812532" stroke-miterlimit="10"/>
<path d="M3.09375 55.8086C50.2411 73.6619 92.9248 98.1903 129.066 128.199C132.527 131.094 135.989 134.059 139.451 137.093C196.569 187.704 195.193 217.756 247.43 247.126C270.572 260.457 296.796 270.01 324.592 275.234C344.532 278.852 364.995 280.299 385.423 279.536C400.637 278.918 415.701 276.835 430.287 273.331C446.558 269.585 462.019 263.887 476.137 256.433C503.139 242.369 522.299 224.54 549.95 202.947C571.111 186.558 594.292 171.909 619.141 159.223C632.122 152.439 646.947 144.125 664.29 135.893C710.504 113.948 766.843 90.9282 838.111 83.4203C862.734 80.7178 887.616 79.8315 912.443 80.7729C916.286 80.9384 920.076 81.1452 923.815 81.4141C961.201 84.0201 995.343 90.4525 1031.85 99.3255C1059.34 106.027 1084.42 115.045 1109.73 123.545C1120.25 127.061 1129.75 130.267 1138.45 133.266C1189.88 151.074 1203.67 160.464 1238.56 163.774C1265.15 166.297 1299.32 164.911 1343.25 152.687C1379.13 142.677 1422.09 125.2 1472.85 97.1745" stroke="black" stroke-opacity="0.3" stroke-width="0.812532" stroke-miterlimit="10"/>
<path d="M1.45312 63.4629C48.215 80.6401 90.7245 104.368 126.958 133.516C130.411 136.329 133.89 139.183 137.343 142.099C195.214 191.015 194.565 219.578 246.101 248.162C270.506 261.688 294.548 271.43 323.497 276.828C343.57 280.476 364.185 281.869 384.743 280.965C399.986 280.201 415.04 277.865 429.529 274.015C445.727 269.874 461.124 263.957 475.275 256.435C503.263 241.957 523.385 224.769 550.749 204.727C572.029 189.343 595.495 175.995 620.667 164.954C633.779 159.039 648.162 151.634 665.298 144.623C711.07 125.884 763.515 107.538 834.056 101.995C858.872 99.919 883.843 99.2623 908.777 100.03C912.646 100.175 916.566 100.361 920.201 100.609C956.883 103.003 993.191 108.205 1028.62 116.142C1056.84 122.161 1081.72 131.096 1107.34 139.369C1117.86 142.761 1127.44 145.802 1136.37 148.656C1187.93 165.202 1202.21 173.724 1236.95 175.937C1263.53 177.633 1297.52 175.399 1341.6 163.031C1377.56 153.02 1421 135.667 1472.85 108.965" stroke="black" stroke-opacity="0.3" stroke-width="0.812532" stroke-miterlimit="10"/>
<path d="M-0.0507812 71.1758C46.2592 87.6853 88.5445 110.581 124.857 138.809C128.31 141.539 131.815 144.269 135.242 147.082C193.736 194.384 193.996 221.272 244.805 249.215C269.755 262.886 292.992 272.896 322.46 278.419C342.649 282.103 363.401 283.433 384.07 282.369C399.382 281.485 414.465 278.902 428.882 274.696C444.971 270.193 460.288 264.099 474.472 256.557C503.447 241.645 524.659 225.16 551.634 206.484C570.665 193.329 593.175 181.829 622.279 170.661C635.494 165.573 649.566 159.058 666.416 153.287C712.007 137.671 760.298 124.124 829.982 120.546C854.956 119.079 880.01 118.644 905.041 119.243C908.961 119.367 912.829 119.532 916.542 119.739C953.292 121.659 989.771 126.059 1025.59 132.894C1054.59 138.23 1079.1 147.103 1104.98 155.086C1115.37 158.354 1125.21 161.291 1134.34 163.959C1186.01 179.348 1200.78 186.897 1235.42 187.993C1262 188.841 1295.76 185.801 1340.02 173.308C1375.98 163.153 1419.94 146.11 1472.85 120.773" stroke="black" stroke-opacity="0.3" stroke-width="0.812532" stroke-miterlimit="10"/>
<path d="M-1.53125 78.8926C44.3162 94.7454 86.3668 116.81 122.753 144.106C126.206 146.733 129.711 149.339 133.138 152.027C192.333 197.53 193.398 223.073 243.454 250.23C268.95 264.067 291.382 274.346 321.343 279.993C341.666 283.708 362.573 284.977 383.368 283.757C398.684 282.744 413.726 279.921 427.998 275.38C443.992 270.497 459.242 264.19 473.459 256.58C503.446 241.274 525.774 225.555 552.308 208.244C571.91 195.503 594.914 185.492 623.68 176.351C637.051 172.09 650.812 166.506 667.298 161.873C713.07 149.256 756.922 140.631 825.879 138.977C849.843 138.397 876.351 137.673 901.301 138.356C905.274 138.459 909.09 138.604 912.881 138.77C949.64 140.214 986.216 143.809 1022.31 149.525C1052.04 154.178 1076.37 162.989 1102.54 170.808C1113.05 173.951 1122.84 176.661 1132.21 179.226C1183.98 193.559 1199.33 200.591 1233.73 200.157C1260.32 199.826 1293.86 196.289 1338.28 183.61C1374.27 173.269 1418.77 156.578 1472.74 132.627" stroke="black" stroke-opacity="0.3" stroke-width="0.812532" stroke-miterlimit="10"/>
<path d="M-3.03906 86.5859C42.3543 101.798 84.1773 123.038 120.648 149.4C124.101 151.923 127.632 154.426 131.033 156.991C190.955 200.838 192.825 224.81 242.128 251.263C268.091 265.224 289.77 275.793 320.277 281.585C340.695 285.309 361.71 286.516 382.587 285.163C397.954 284.009 412.997 280.938 427.166 276.062C443.029 270.777 458.203 264.265 472.471 256.62C503.445 240.881 526.993 225.844 552.956 209.98C573.155 197.571 596.677 189.173 625.055 182.038C638.633 178.604 653.406 176.619 668.153 170.641C716.003 169.049 753.649 154.095 821.645 157.611C845.661 158.873 872.585 157.115 897.431 157.611C901.455 157.715 905.35 157.818 909.088 157.963C949.123 159.473 979.759 161.231 1019.02 166.236C1049.47 170.186 1073.54 178.956 1099.99 186.526C1110.38 189.546 1120.37 192.11 1129.98 194.53C1181.78 207.602 1197.67 213.145 1232.01 212.111C1258.63 211.263 1291.96 206.588 1336.54 193.806C1372.58 183.465 1417.55 166.918 1472.64 144.353" stroke="black" stroke-opacity="0.3" stroke-width="0.812532" stroke-miterlimit="10"/>
<path d="M-4.54297 94.3008C40.3911 108.871 81.9844 129.272 118.547 154.674C122.026 157.115 125.557 159.493 128.932 161.934C189.711 204.086 192.359 226.527 240.91 252.298C267.522 266.404 288.292 277.241 319.292 283.177C339.887 286.948 361.104 288.086 382.148 286.549C399.257 285.411 413.303 281.316 426.648 276.724C442.394 271.048 457.514 264.33 471.85 256.641C503.81 240.488 528.682 226.237 554.048 211.718C574.818 199.784 598.964 192.896 626.744 187.705C640.608 185.12 655.044 184.52 669.349 179.308C717.199 182.245 750.431 174.034 817.753 176.122C841.898 176.888 869.133 176.433 893.902 176.867C897.952 176.867 901.899 177.012 905.611 177.115C946.321 178.336 976.074 178.956 1016.03 183.113C1047.19 186.381 1071.02 195.089 1097.76 202.431C1108.15 205.327 1118.22 207.726 1128.06 210.001C1179.99 221.956 1196.37 226.547 1230.59 224.334C1257.2 222.659 1290.3 217.178 1335.06 204.251C1371.13 193.91 1416.61 177.529 1472.8 156.35" stroke="black" stroke-opacity="0.3" stroke-width="0.812532" stroke-miterlimit="10"/>
<path d="M-6.02344 101.994C38.4307 115.945 79.7804 135.499 116.443 159.906C119.922 162.264 123.479 164.539 126.984 166.835C188.386 207.291 191.891 228.181 239.611 253.248C266.768 267.499 286.734 278.626 318.253 284.666C338.947 288.479 360.284 289.569 381.42 287.892C398.764 286.631 412.576 282.205 425.843 277.344C442.225 271.346 455.7 264.314 470.888 256.661C503.861 240.115 533.693 230.166 554.8 213.454C578.712 205.326 601.066 189.814 628.301 193.392C642.477 195.253 656.601 192.399 670.413 187.973C718.289 195.419 747.289 190.724 813.754 194.654C838.003 196.081 865.68 195.75 890.241 196.06C894.369 196.06 898.315 196.06 902.054 196.246C943.387 197.177 972.283 196.598 1012.92 199.866C1044.88 202.41 1068.4 211.076 1095.4 218.191C1105.78 220.962 1115.96 223.217 1126.01 225.326C1177.94 236.185 1194.97 239.68 1229.06 236.433C1255.69 233.889 1288.59 227.602 1333.48 214.53C1369.59 204.064 1415.47 187.973 1472.85 168.18" stroke="black" stroke-opacity="0.3" stroke-width="0.812532" stroke-miterlimit="10"/>
<path d="M-7.53125 109.688C36.4686 123.049 77.5854 141.792 114.338 165.242C117.817 167.496 121.374 169.565 124.905 171.819C187.216 210.579 191.292 229.917 238.311 254.303C266.039 268.677 285.174 280.094 317.186 286.278C338.011 290.109 359.493 291.136 380.743 289.319C398.32 287.933 411.899 283.114 425.114 278.047C441.185 271.842 454.504 264.479 470.004 256.681C503.963 239.68 535.352 230.91 555.681 215.171C580.424 207.931 604.18 193.412 629.909 199.058C643.981 202.14 658.183 200.299 671.45 196.639C719.351 208.593 744.146 207.456 809.728 213.185C834.081 215.253 861.965 215.088 886.578 215.253H898.443C940.451 215.874 968.543 214.157 1009.8 216.494C1042.51 218.335 1065.75 226.98 1093.03 233.847C1103.42 236.495 1113.68 238.584 1123.96 240.528C1175.88 250.331 1193.54 252.751 1227.5 248.429C1254.13 245.016 1286.82 237.922 1331.87 224.726C1368.01 214.157 1414.51 198.335 1472.87 179.906" stroke="black" stroke-opacity="0.3" stroke-width="0.812532" stroke-miterlimit="10"/>
<path d="M-9.03906 117.361C34.4538 130.155 75.2963 148.065 112.13 170.496C115.635 172.564 119.192 174.632 122.722 176.701C185.708 213.744 190.667 231.531 236.959 255.296C265.259 269.774 283.692 281.501 316.094 287.809C337.035 291.689 358.659 292.661 380.014 290.684C397.851 289.175 411.17 284.086 424.307 278.688C440.067 272.152 453.256 264.603 469.067 256.682C504.039 239.267 536.96 231.635 556.354 216.888C581.954 210.517 605.684 208.242 631.309 204.705C646.004 206.939 659.557 208.159 672.382 205.284C720.284 221.831 740.82 224.189 805.572 231.655C830.029 234.489 858.276 234.634 882.785 234.406C886.991 234.406 891.016 234.406 894.728 234.406C937.411 233.972 964.568 231.821 1006.55 233.269C1040.04 234.406 1062.97 243.01 1090.57 249.649C1100.95 252.152 1111.34 254.117 1121.72 255.854C1173.65 264.603 1191.82 265.906 1225.73 260.508C1252.39 256.247 1284.85 248.346 1330.1 235.006C1366.27 224.354 1413.18 208.78 1472.71 191.716" stroke="black" stroke-opacity="0.3" stroke-width="0.812532" stroke-miterlimit="10"/>
<path d="M-10.5156 125.055C32.5482 137.273 73.1877 154.352 110.16 175.769C113.639 177.838 117.222 179.761 120.753 181.705C184.569 217.011 190.255 233.268 235.716 256.309C264.587 270.952 282.06 282.948 315.085 289.401C336.205 293.327 358.033 294.23 379.55 292.069C397.724 290.435 410.836 285.037 423.687 279.37C439.265 272.565 452.246 264.768 468.317 256.619C504.25 238.79 538.755 232.296 557.266 218.542C583.696 213.061 607.79 212.337 632.948 210.268C647.825 213.578 661.17 215.936 673.528 213.826C721.429 234.819 737.734 240.858 801.629 250.062C826.189 253.599 854.775 253.847 879.206 253.496C883.464 253.496 887.488 253.496 891.226 253.496C934.532 252.73 960.859 249.359 1003.52 249.959C1037.73 250.393 1060.4 258.977 1088.28 265.368C1098.67 267.767 1109.05 269.504 1119.83 271.18C1171.76 278.915 1190.66 279.081 1224.33 272.607C1250.99 267.477 1283.24 258.791 1328.65 245.305C1364.84 234.571 1412.38 219.245 1472.9 203.567" stroke="black" stroke-opacity="0.3" stroke-width="0.812532" stroke-miterlimit="10"/>
<path d="M-12.0195 132.73C30.5818 144.404 70.9814 160.659 108.059 181.046C111.564 183.114 115.147 184.81 118.678 186.651C183.351 220.199 189.764 234.925 234.42 257.324C263.862 272.071 280.504 284.357 314.048 290.955C335.246 294.905 357.169 295.753 378.748 293.458C396.922 291.679 410.111 285.97 422.884 280.014C438.047 272.94 450.924 264.894 467.385 256.725C504.33 238.462 540.366 233.125 558.021 220.343C585.308 215.731 609.661 216.434 634.43 216.062C649.462 220.426 662.625 223.942 674.49 222.598C722.418 248.121 734.465 257.759 797.528 268.7C822.193 272.961 851.116 273.002 875.417 272.837C879.727 272.837 883.777 272.837 887.516 272.837C931.497 271.74 956.966 268.1 1000.3 266.921C1035.24 265.97 1057.65 275.195 1085.82 281.399C1096.31 283.652 1106.94 285.447 1117.68 286.777C1169.6 293.52 1189.13 292.527 1222.67 284.978C1249.36 278.98 1281.37 269.507 1326.94 255.877C1363.29 245.06 1411.21 229.961 1472.82 215.669" stroke="black" stroke-opacity="0.3" stroke-width="0.812532" stroke-miterlimit="10"/>
<path d="M-13.5312 135.977C28.6131 147.153 68.7716 162.613 105.95 181.975C109.455 183.837 113.064 185.533 116.621 187.25C182.125 219.039 189.317 232.235 233.116 253.973C263.129 268.864 278.94 281.44 312.978 288.162C334.304 292.151 356.376 292.943 378.067 290.499C396.604 288.575 409.508 282.577 422.203 276.331C436.976 268.844 449.646 260.571 466.496 252.297C504.428 233.683 542.048 229.401 558.82 217.633C586.938 213.889 611.577 216.082 635.956 217.281C651.144 222.721 664.099 227.374 675.497 226.816C723.451 256.848 731.265 270.25 793.447 282.66C818.241 287.645 847.501 287.748 871.75 287.438L883.901 287.252C928.557 286.631 953.144 280.219 997.151 278.978C1032.9 277.944 1054.97 286.528 1083.43 292.422C1094.03 294.559 1104.78 296.209 1115.62 297.366C1167.42 303.115 1187.69 300.923 1221.08 292.319C1247.8 285.452 1279.6 275.193 1325.32 261.419C1361.67 250.519 1410.14 235.668 1472.84 222.762" stroke="black" stroke-opacity="0.3" stroke-width="0.812532" stroke-miterlimit="10"/>
<path d="M-15.082 137.279C26.5903 147.887 66.4994 162.471 103.776 180.713C107.307 182.492 110.916 184.064 114.473 185.657C180.938 215.73 188.752 227.478 231.825 248.491C262.435 263.487 277.39 276.372 311.946 283.239C333.409 287.234 355.632 287.936 377.424 285.307C396.17 283.239 408.917 277.034 421.432 270.415C435.945 262.825 448.537 254.262 465.568 245.844C504.513 226.754 543.665 223.672 559.58 212.896C588.554 210.021 614.388 210.476 637.468 216.495C654.007 220.818 665.586 228.905 676.413 228.905C724.366 263.445 727.923 280.612 789.273 294.697C814.146 300.447 843.795 300.592 867.915 300.157C872.329 300.157 876.431 299.992 880.143 299.909C925.475 298.958 949.179 291.367 993.887 289.216C1030.36 287.458 1052.17 296.042 1080.91 301.626C1091.62 303.673 1102.48 305.179 1113.42 306.135C1165.19 310.933 1186.12 307.521 1219.37 297.862C1246.09 290.106 1277.69 279.061 1323.56 265.162C1359.91 254.179 1408.93 239.577 1472.72 227.933" stroke="black" stroke-opacity="0.3" stroke-width="0.812532" stroke-miterlimit="10"/>
<path d="M-16.5156 138.543C24.7017 148.648 64.3691 162.399 101.745 179.537C105.302 181.212 108.937 182.66 112.468 184.149C179.764 212.36 188.279 222.536 230.521 243.012C261.676 258.111 275.8 271.307 311.006 278.298C332.581 282.412 354.959 283.115 376.874 280.366C395.879 278.153 408.445 271.576 420.803 264.771C435.031 256.932 447.467 248.08 464.94 239.538C504.845 220.034 545.554 218.11 560.639 208.307C590.418 206.238 616.771 208.534 639.203 215.856C656.052 221.357 667.294 230.334 677.731 231.347C725.685 270.417 724.984 291.328 785.529 307.005C810.505 313.521 840.441 313.686 864.534 313.21L876.841 312.879C922.821 311.618 945.668 302.828 991.077 299.808C1028.33 297.305 1049.83 306.013 1078.88 311.287C1089.69 313.261 1100.66 314.644 1111.7 315.423C1163.42 319.291 1185.02 314.637 1218.15 303.924C1244.86 295.299 1276.23 283.468 1322.29 269.425C1371.04 253.972 1421.42 242.011 1472.84 233.684" stroke="black" stroke-opacity="0.3" stroke-width="0.812532" stroke-miterlimit="10"/>
<path d="M-18.0195 138.955C22.7513 148.607 62.1773 161.553 99.6442 177.591C103.227 179.163 106.862 180.507 110.393 181.872C178.597 208.284 187.788 217.033 229.225 236.806C261.003 252.008 274.244 265.514 309.839 272.65C331.551 276.782 354.085 277.387 376.097 274.428C395.309 272.07 407.719 265.204 419.948 258.109C433.864 250.022 446.144 240.901 463.877 232.235C504.795 212.317 546.958 211.552 561.264 202.721C591.9 201.604 618.668 205.616 640.554 214.2C657.69 220.922 668.62 230.932 678.564 232.69C726.543 276.269 721.559 300.944 781.273 318.214C806.353 325.494 836.652 325.66 860.642 325.019C865.133 324.895 869.313 324.729 873.026 324.605C919.759 323.013 941.646 313.064 987.704 309.155C1025.69 305.928 1046.93 314.553 1076.26 319.662C1087.18 321.519 1098.25 322.736 1109.39 323.302C1161.08 326.26 1183.33 320.324 1216.33 308.576C1243.05 299.062 1274.2 286.466 1320.42 272.257C1369.6 256.721 1420.69 245.318 1472.85 238.233" stroke="black" stroke-opacity="0.3" stroke-width="0.812532" stroke-miterlimit="10"/>
<path d="M-19.5273 137.775C20.8048 146.966 59.9916 159.089 97.5392 173.991C101.122 175.46 104.783 176.701 108.314 177.962C177.453 202.513 187.423 209.711 227.925 228.946C260.3 244.251 272.685 258.088 308.799 265.327C330.631 269.507 353.31 270.056 375.42 266.94C394.866 264.417 407.12 257.281 419.193 249.898C432.824 241.624 444.948 232.172 462.992 223.382C504.897 203.051 548.67 203.402 562.067 195.584C593.534 195.336 620.665 201.169 642.084 211.014C659.427 218.997 670.124 229.959 679.601 232.483C727.58 280.591 718.285 309.009 777.221 327.852C802.353 335.918 833.041 336.125 856.953 335.339C861.47 335.194 865.676 335.008 869.389 334.863C916.719 332.96 937.749 321.791 984.483 317.014C1023.22 313.043 1044.2 321.688 1073.77 326.549C1084.81 328.296 1095.99 329.368 1107.23 329.754C1158.9 331.823 1181.77 324.584 1214.64 311.802C1241.36 301.46 1272.33 288.016 1318.7 273.683C1368.24 257.99 1419.97 247.081 1472.77 241.19" stroke="black" stroke-opacity="0.3" stroke-width="0.812532" stroke-miterlimit="10"/>
<path d="M-21.0078 136.598C18.8824 145.364 57.8226 156.672 95.4356 170.414C99.0445 171.779 102.705 172.876 106.236 174.034C176.336 196.785 186.721 202.473 226.626 221.087C259.573 236.476 271.126 250.643 307.734 258.027C329.693 262.268 352.532 262.754 374.744 259.454C394.424 256.745 406.523 249.382 418.466 241.688C431.811 233.104 443.753 223.445 462.109 214.531C505.026 193.848 550.383 195.254 562.871 188.429C591.532 188.701 619.513 195.419 643.59 207.809C661.115 217.075 671.63 228.968 680.613 232.277C728.618 284.894 714.988 317.077 773.17 337.491C798.354 346.364 829.432 346.529 853.24 345.661C857.835 345.495 862.041 345.288 865.78 345.102C913.733 342.827 933.984 330.624 981.393 324.874C1020.83 320.179 1041.6 328.825 1071.46 333.437C1081.84 335.03 1092.8 335.278 1105.21 336.188C1156.67 339.973 1180.37 328.846 1213.11 315.009C1239.83 303.716 1270.59 289.569 1317.12 275.091C1367.07 259.242 1419.46 248.807 1472.9 244.066" stroke="black" stroke-opacity="0.3" stroke-width="0.812532" stroke-miterlimit="10"/>
<path d="M-22.5117 135.418C16.9559 143.77 55.6614 154.26 93.3346 166.815C96.9694 168.056 100.63 169.069 104.187 170.103C175.17 190.786 186.36 195.233 225.33 213.227C258.9 228.719 269.467 243.197 306.697 250.725C328.821 255.021 351.852 255.445 374.201 251.966C394.088 249.071 406.031 241.459 417.844 233.476C430.826 224.644 442.665 214.716 461.332 205.678C505.261 184.499 552.202 187.063 563.782 181.293C593.208 182.522 621.516 190.677 645.123 204.726C662.752 215.254 673.137 228.098 681.627 232.173C729.658 289.299 711.666 325.246 769.096 347.253C794.358 356.912 825.799 357.056 849.581 356.084C854.202 355.898 858.46 355.65 862.173 355.464C910.801 352.837 930.169 339.372 978.279 332.837C1018.5 327.397 1038.88 336.104 1069.15 340.427C1080.45 341.68 1091.83 342.453 1103.24 342.744C1154.77 345.412 1179 333.209 1211.63 318.338C1238.32 306.156 1268.91 291.243 1315.48 276.62C1365.81 260.649 1418.83 250.736 1472.82 247.209" stroke="black" stroke-opacity="0.3" stroke-width="0.812532" stroke-miterlimit="10"/>
<path d="M-24.0195 134.24C15.0433 142.2 53.5265 151.867 91.2556 163.196C94.8904 164.334 98.5512 165.265 102.108 166.154C174.025 185.017 185.89 187.954 224.134 205.452C258.197 220.922 267.907 235.752 305.631 243.405C327.848 247.762 351.003 248.13 373.42 244.48C393.541 241.399 405.354 233.539 416.986 225.266C429.759 216.207 441.365 205.989 460.37 196.827C505.259 175.234 553.836 178.998 564.481 174.076C594.757 176.216 623.461 185.767 646.653 201.418C664.334 213.249 674.615 227.003 682.638 231.843C730.669 293.499 708.315 333.334 765.044 356.789C790.358 367.254 822.162 367.378 845.84 366.303C850.514 366.096 854.798 365.827 858.51 365.6C907.84 362.621 926.299 347.998 975.109 340.594C1016.08 334.389 1036.17 343.159 1066.68 347.212C1078.09 348.397 1089.58 349.025 1101.08 349.095C1152.7 350.646 1177.44 337.367 1209.94 321.441C1236.66 308.391 1267.06 292.692 1313.8 278.007C1364.52 261.893 1418.21 252.483 1472.74 250.147" stroke="black" stroke-opacity="0.3" stroke-width="0.812532" stroke-miterlimit="10"/>
<path d="M-25.4688 133.061C19.0056 142.058 58.9106 151.22 89.1833 159.617C92.87 160.652 96.5308 161.438 100.062 162.265C172.939 179.142 185.454 180.714 222.762 197.426C257.527 213.062 266.484 228.223 304.623 236.02C326.962 240.43 350.268 240.735 372.776 236.91C393.131 233.621 404.814 225.555 416.289 216.971C428.752 207.664 440.201 197.178 459.518 187.891C505.42 165.884 555.58 170.786 565.316 166.939C596.423 170.013 625.475 180.944 648.216 198.129C665.922 211.263 677.268 225.12 683.707 231.553C743.422 291.388 704.971 341.4 761.024 366.343C786.364 377.636 818.61 377.719 842.184 376.54C846.91 376.313 851.193 376.002 854.932 375.754C904.859 372.424 922.436 356.643 971.973 348.391C1013.7 341.42 1033.5 350.231 1064.32 353.996C1075.81 355.353 1087.43 355.845 1099.03 355.464C1150.68 354.058 1175.99 341.524 1208.39 324.585C1235.08 310.624 1265.25 294.16 1312.24 279.268C1363.4 263.02 1417.77 254.106 1472.82 252.939" stroke="black" stroke-opacity="0.3" stroke-width="0.812532" stroke-miterlimit="10"/>
<path d="M-27 131.881C17.9677 140.609 57.613 148.882 87.0549 156.018C90.7676 156.928 94.4283 157.61 97.9593 158.334C171.85 173.226 184.961 173.454 221.439 189.628C256.826 205.347 264.9 220.88 303.533 228.801C326.011 233.269 349.486 233.51 372.101 229.504C392.664 225.988 404.191 217.715 415.511 208.821C427.714 199.266 438.878 188.511 458.609 179.1C505.498 156.659 557.087 162.719 566.122 159.844C601.795 163.981 629.835 178.79 649.722 195.005C667.403 209.483 678.593 224.437 684.694 231.407C742.461 297.324 701.57 349.61 756.923 376.064C782.288 388.163 814.976 388.205 838.446 386.922C843.223 386.653 847.559 386.343 851.272 386.074C901.873 382.372 918.593 365.391 968.806 356.311C1011.25 348.597 1030.78 357.47 1061.88 360.944C1073.49 362.197 1085.22 362.537 1096.91 361.958C1148.57 359.745 1174.48 345.846 1206.78 327.852C1233.45 313.001 1263.43 295.772 1310.63 280.736C1347.21 269.091 1400.39 256.454 1472.85 255.916" stroke="black" stroke-opacity="0.3" stroke-width="0.812532" stroke-miterlimit="10"/>
<path d="M-28.5078 130.703C16.9272 139.224 56.3129 146.505 84.9499 152.441C88.6885 153.206 92.3493 153.785 95.8803 154.509C170.627 167.271 184.492 166.174 220.139 181.769C255.786 197.364 263.341 213.435 302.493 221.481C325.089 226.025 348.72 226.209 371.424 222.018C392.194 218.254 403.618 209.815 414.782 200.632C426.699 190.849 437.785 179.804 457.725 170.27C505.626 147.518 558.772 154.613 566.924 152.73C603.454 157.736 631.52 174.282 651.252 191.821C668.881 207.499 679.811 223.652 685.705 231.119C741.239 302.992 698.141 357.698 752.871 385.62C778.236 398.568 811.339 398.547 834.757 397.161C839.561 396.872 843.922 396.52 847.739 396.231C898.99 392.094 914.853 374.059 965.74 364.089C1008.94 355.63 1028.21 364.565 1059.6 367.75C1071.32 368.905 1083.16 369.099 1094.93 368.329C1146.62 365.289 1173.08 350.025 1205.3 330.997C1231.94 315.257 1261.74 297.263 1309.15 282.082C1345.78 270.354 1399.45 257.945 1473 258.834" stroke="black" stroke-opacity="0.3" stroke-width="0.812532" stroke-miterlimit="10"/>
<path d="M-29.9883 129.523C15.8881 137.797 55.0141 144.126 82.8463 148.883C86.611 149.524 90.2717 150.02 93.8027 150.517C169.458 161.292 184.024 158.893 218.84 173.93C255.473 189.731 261.756 205.988 301.428 214.179C324.152 218.802 347.952 218.923 370.749 214.53C391.727 210.497 403.046 201.893 414.055 192.441C425.686 182.389 436.59 171.096 456.867 161.417C505.729 138.148 560.849 143.464 567.729 145.594C603.246 156.535 633.181 169.731 652.783 188.635C670.334 205.575 681.161 222.845 686.743 231.015C739.837 308.679 694.687 365.991 748.82 395.382C774.186 409.157 807.729 409.053 831.044 407.585C835.925 407.275 840.287 406.902 844.026 406.592C895.951 402.166 910.906 382.889 962.494 372.052C1006.42 362.827 1025.4 371.845 1057.1 374.74C1068.95 375.794 1080.89 375.843 1092.75 374.885C1144.47 371.038 1171.5 354.388 1203.59 334.326C1230.22 317.78 1259.85 298.917 1307.44 283.591C1344.1 271.781 1398.31 259.64 1472.92 261.894" stroke="black" stroke-opacity="0.3" stroke-width="0.812532" stroke-miterlimit="10"/>
<path d="M-31.4922 128.346C14.8515 136.474 53.692 141.686 80.7453 145.244C84.5359 145.74 88.1966 146.154 91.7535 146.547C168.292 155.275 183.584 151.614 217.544 166.051C254.93 181.977 260.123 198.523 300.391 206.796C323.247 211.479 347.211 211.536 370.101 206.962C391.235 202.639 402.477 193.911 413.304 184.21C424.675 173.869 435.398 162.348 455.987 152.565C505.861 128.883 562.149 137.839 568.536 138.439C607.48 142.141 634.819 165.161 654.213 185.431C667.331 199.571 678.54 214.774 687.653 230.788C738.281 314.099 691.132 374.162 744.772 405.021C770.111 419.623 804.123 419.499 827.359 417.907C832.266 417.576 836.68 417.162 840.341 416.831C892.89 411.971 906.987 391.557 959.303 379.912C1003.93 369.902 1022.68 379.064 1054.66 381.629C1066.63 382.581 1078.69 382.477 1090.62 381.319C1142.39 376.665 1169.91 358.567 1201.95 337.533C1228.54 319.973 1257.98 300.469 1305.8 285.019C1342.51 273.126 1397.19 261.213 1472.93 264.853" stroke="black" stroke-opacity="0.3" stroke-width="0.812532" stroke-miterlimit="10"/>
<path d="M-33 127.164C13.7332 134.941 52.3399 139.202 78.6403 141.642C165.668 149.708 181.609 143.71 216.244 158.188C254.149 174.052 258.641 191.095 299.325 199.554C322.309 204.316 346.44 204.316 369.424 199.554C412.99 190.04 414.184 163.111 455.102 143.71C505.963 119.594 563.782 130.204 569.339 131.301C643.385 145.779 677.915 210.537 688.768 230.579C736.877 319.35 687.729 382.329 740.693 414.657C771.433 433.416 815.674 429.135 836.756 427.067C889.954 421.896 903.195 400.303 956.185 387.769C1015.9 373.622 1029.06 393.974 1088.6 387.769C1183.57 377.779 1198.81 320.756 1304.09 286.423C1340.83 274.447 1396.02 262.782 1472.85 267.808" stroke="black" stroke-opacity="0.3" stroke-width="0.812532" stroke-miterlimit="10"/>
<path d="M-31.5938 129.75C14.3086 137.527 52.2663 142.16 78.5667 144.724C163.284 153.246 179.822 147.62 214.249 162.119C251.453 177.838 256.412 194.384 296.084 202.906C318.587 207.642 342.21 207.883 364.859 203.609C407.854 195.522 409.515 169.254 449.81 150.598C499.581 127.392 555.66 137.051 562.151 137.899C622.878 145.738 656.37 193.412 672.857 218.852C676.232 224.044 678.672 228.511 680.646 231.738C729.975 315.772 683.398 376.291 735.583 406.819C766.738 424.999 811.343 420.428 833.307 418.463C853.435 416.703 872.946 411.857 890.763 404.192C908.937 396.932 925.943 388.742 953.905 383.302C962.472 381.647 970.106 380.737 976.96 379.952C1018.5 375.174 1034.52 386.942 1084.58 379.848C1103.94 377.14 1122.59 371.832 1139.72 364.15C1186.22 343.467 1215.3 306.238 1287.29 279.06C1291.52 277.461 1295.93 275.903 1300.53 274.386C1337.61 262.1 1393.64 249.877 1471.63 254.572" stroke="black" stroke-opacity="0.3" stroke-width="0.812532" stroke-miterlimit="10"/>
<path d="M-30.1953 132.336C14.7724 140.113 52.1848 144.932 78.5112 147.786C160.865 156.742 177.923 151.53 212.246 166.07C248.776 181.458 254.176 197.859 292.731 206.236C314.772 210.96 337.905 211.456 360.234 207.684C402.58 200.921 404.838 175.501 444.484 157.466C493.19 135.314 547.79 142.45 554.904 144.497C611.087 160.527 647.539 196.722 664.519 220.693C667.972 225.575 670.361 229.856 672.308 232.876C722.78 312.277 678.954 370.19 730.309 398.98C761.724 416.561 806.821 411.721 829.669 409.839C849.955 408.18 869.727 403.736 888.111 396.705C906.571 390.149 923.836 383.054 951.461 378.856C960.054 377.532 967.739 377.036 974.593 376.25C1016 371.472 1031.32 380.759 1080.37 371.906C1099.51 368.392 1117.84 362.501 1134.68 354.45C1179.44 333.767 1209.97 295.235 1283.42 267.147C1287.71 265.534 1292.17 263.921 1296.82 262.349C1334.21 249.753 1391.06 236.971 1470.25 241.314" stroke="black" stroke-opacity="0.3" stroke-width="0.812532" stroke-miterlimit="10"/>
<path d="M-28.7969 134.922C15.2361 142.678 52.0774 147.787 78.3778 150.951C158.395 160.279 176.024 155.543 210.191 170.083C246.02 185.223 251.888 201.314 289.508 209.649C311.076 214.332 333.699 215.039 355.661 211.718C397.202 206.237 400.187 181.665 439.184 164.333C486.826 143.154 539.686 148.573 547.708 151.055C592.321 165.299 630.247 190.271 656.207 222.493C659.738 227.064 662.101 231.16 663.996 233.993C715.558 308.597 674.537 364.13 724.983 391.183C756.761 408.185 802.274 403.035 826.004 401.277C846.454 399.687 866.483 395.636 885.407 389.26C904.204 383.407 921.755 377.429 948.964 374.43C957.636 373.479 965.347 373.375 972.201 372.59C1013.56 367.791 1028.05 374.658 1076.05 364.006C1094.94 359.667 1112.94 353.204 1129.54 344.812C1172.56 323.985 1204.67 284.356 1279.42 255.276C1283.73 253.621 1288.25 251.974 1292.97 250.333C1330.67 237.447 1388.39 224.107 1468.74 228.119" stroke="black" stroke-opacity="0.3" stroke-width="0.812532" stroke-miterlimit="10"/>
<path d="M-27.3906 137.488C15.7077 145.265 52.0038 150.643 78.3561 154.035C156.037 163.735 174.263 159.474 208.17 174.035C243.272 188.947 249.711 204.687 286.189 213.002C307.304 217.708 329.453 218.696 351.096 215.897C392.039 211.761 395.544 187.975 433.918 171.326C480.495 150.953 530.993 159.061 540.521 157.675C595.433 166.506 629.963 203.177 647.929 224.357C651.538 228.597 653.849 232.485 655.874 235.153C708.579 305.02 670.361 358.03 719.873 383.305C752.066 399.727 797.917 394.288 822.556 392.612C843.187 391.1 863.48 387.443 882.919 381.733C902.08 376.583 919.839 371.743 946.71 369.923C955.434 369.323 963.171 369.634 970.077 368.848C1011.38 364.049 1025.04 368.413 1072.16 356.045C1092.13 350.791 1108.51 343.263 1124.82 335.072C1166.15 314.203 1199.69 273.251 1275.87 243.323C1280.19 241.627 1284.76 239.938 1289.58 238.256C1327.61 225.039 1386.16 211.14 1467.68 214.822" stroke="black" stroke-opacity="0.3" stroke-width="0.812532" stroke-miterlimit="10"/>
<path d="M-26.0156 140.072C16.0702 147.828 51.8989 153.475 78.3811 156.991C153.673 167.043 172.367 163.361 206.274 177.839C240.649 192.566 247.477 207.933 283.046 216.206C303.67 220.91 325.299 222.136 346.551 219.805C386.716 216.744 390.922 194.013 428.646 178.067C474.133 158.852 522.787 166.236 533.38 164.23C586.656 172.255 621.161 206.382 639.672 226.155C643.359 230.084 645.644 233.787 647.721 236.269C701.542 301.358 666.206 351.866 714.731 375.423C747.34 391.267 793.554 385.517 819.05 383.965C845.013 382.394 863.316 378.112 880.4 374.224C899.924 369.777 918.098 363.324 944.398 365.413C952.173 366.08 960.022 365.976 967.765 365.103C1009.05 360.304 1021.82 362.269 1068.03 348.06C1087.38 342.124 1103.47 333.954 1119.96 325.309C1159.6 304.46 1194.58 262.246 1272.15 231.346C1276.53 229.609 1281.15 227.871 1286.02 226.134C1324.36 212.628 1383.74 198.171 1466.46 201.501" stroke="black" stroke-opacity="0.3" stroke-width="0.812532" stroke-miterlimit="10"/>
<path d="M-24.6172 142.68C16.6378 150.436 51.8175 156.351 78.1958 160.095C151.229 170.436 170.52 167.292 204.271 181.812C238.023 196.331 245.267 211.306 279.771 219.6C309.836 226.818 334.891 225.267 342.082 223.922C380.43 216.683 386.349 200.24 423.45 184.997C467.846 166.755 514.709 173.477 526.289 170.871C577.903 178.11 612.356 209.61 631.49 228.017C635.229 231.637 637.488 235.153 639.591 237.47C694.528 297.781 662.153 345.724 709.691 367.648C742.767 382.912 789.267 376.852 815.671 375.404C842.075 373.956 860.587 370.068 877.982 366.779C897.844 363.036 916.641 357.431 942.188 361.009C949.898 362.145 957.787 362.291 965.555 361.443C1006.78 356.645 1018.7 356.21 1063.98 340.181C1082.73 333.563 1098.46 324.731 1114.97 315.713C1152.95 295.03 1189.38 251.389 1268.33 219.517C1272.75 217.738 1277.42 215.959 1282.35 214.181C1321.04 200.364 1381.25 185.349 1465.13 188.327" stroke="black" stroke-opacity="0.3" stroke-width="0.812532" stroke-miterlimit="10"/>
<path d="M-23.2109 145.201C17.1094 153.019 51.7179 159.224 78.1221 163.113C148.819 173.702 168.681 171.158 202.277 185.678C235.249 199.949 243.038 214.634 276.53 222.907C305.764 230.125 330.118 229.236 337.413 227.954C375.007 221.294 381.55 206.402 418.054 191.862C461.36 174.571 506.328 180.672 518.998 177.384C568.976 183.816 603.299 212.545 623.083 229.774C626.003 232.577 628.741 235.497 631.287 238.523C687.289 294.056 657.951 339.414 704.346 359.725C737.916 374.389 784.701 367.998 811.988 366.695C838.237 365.412 857.527 361.876 875.26 359.208C895.485 356.167 914.905 351.555 939.674 356.457C947.341 358.074 955.332 358.482 963.196 357.656C1004.4 352.837 1015.43 350.045 1059.8 332.154C1077.98 324.853 1093.3 315.401 1109.94 305.928C1146.29 285.245 1184.14 240.363 1264.47 207.519C1268.92 205.699 1273.64 203.879 1278.64 202.059C1317.59 187.932 1378.68 172.358 1463.76 175.005" stroke="black" stroke-opacity="0.3" stroke-width="0.812532" stroke-miterlimit="10"/>
<path d="M-21.8164 147.746C17.5693 155.523 51.6066 161.935 78.0627 166.154C146.397 177.033 166.83 175.068 200.4 189.588C232.672 203.631 240.928 217.944 273.381 226.176C301.941 233.394 325.463 233.167 332.966 231.946C369.833 225.928 377.103 212.525 412.88 198.667C455.095 182.349 498.324 187.809 511.928 183.962C560.245 189.588 594.386 215.752 614.923 231.533C617.87 234.104 620.635 236.804 623.205 239.62C680.323 290.355 654.023 333.086 699.276 351.825C733.34 365.91 780.384 359.229 808.554 358.029C835.036 356.871 854.768 353.707 872.812 351.659C894.26 349.309 916.018 349.4 937.434 351.928C946.573 352.859 954.258 354.679 961.034 353.996C1002.19 349.157 1012.34 344.048 1055.8 324.275C1073.3 316.312 1088.33 306.177 1105.13 296.291C1139.89 275.773 1179.1 229.464 1260.91 195.648C1265.37 193.807 1270.17 191.925 1275.26 190.043C1314.57 175.565 1376.52 159.473 1462.69 161.79" stroke="black" stroke-opacity="0.3" stroke-width="0.812532" stroke-miterlimit="10"/>
<path d="M-20.2773 151.302C18.1737 159.058 51.6658 165.78 78.1219 170.185C144.016 181.292 165.02 179.906 198.278 194.488C229.875 208.304 238.572 222.265 270.013 230.476C297.638 237.695 320.537 238.108 328.248 236.971C364.44 231.655 372.255 219.659 407.487 206.505C448.586 191.158 490.023 195.977 504.614 191.53C551.347 196.349 585.099 219.783 606.492 234.385C609.466 236.721 612.266 239.193 614.878 241.79C672.905 287.727 649.902 327.81 693.961 344.998C728.57 358.504 775.822 351.533 804.9 350.437C831.564 349.424 851.763 346.632 870.119 345.204C891.045 343.57 910.543 344.956 935.026 348.493C944.295 349.837 951.954 352.009 958.704 351.223C999.804 346.383 1009.1 338.958 1051.65 317.262C1068.53 308.637 1083.2 297.861 1100.12 287.52C1133.33 267.209 1173.88 219.473 1256.97 184.663C1261.48 182.761 1266.31 180.858 1271.48 178.914C1311.1 164.187 1373.8 147.496 1461.24 149.461" stroke="black" stroke-opacity="0.3" stroke-width="0.812532" stroke-miterlimit="10"/>
<path d="M-19.0039 160.258C18.5124 168.014 51.4333 174.943 77.9155 179.638C141.602 190.951 163.178 190.248 196.28 204.726C227.176 218.315 236.341 231.945 266.769 240.115C293.563 247.333 315.735 248.388 323.68 247.333C359.197 242.762 367.583 232.131 402.192 219.68C442.174 205.202 481.82 209.504 497.423 204.416C542.443 208.552 573.365 232.462 598.211 242.534C601.509 245.347 604.364 247.622 606.649 249.236C665.663 290.353 645.957 327.831 688.77 343.467C723.949 356.353 771.41 349.093 801.371 348.121C828.216 347.252 848.883 344.832 867.55 343.984C888.84 343.053 908.701 345.804 932.587 350.293C941.986 352.051 949.619 354.574 956.343 353.767C997.416 348.927 1005.83 339.289 1047.45 315.587C1063.73 306.341 1078.03 294.904 1095.09 284.086C1126.76 264.003 1168.64 214.799 1253.1 179.017C1257.65 177.1 1262.54 175.143 1267.77 173.143C1307.72 158.21 1371.33 140.96 1459.87 142.677" stroke="black" stroke-opacity="0.3" stroke-width="0.812532" stroke-miterlimit="10"/>
<path d="M-17.6836 168.325C18.976 176.081 51.3257 183.237 77.8338 188.18C139.21 199.68 161.46 199.68 194.277 214.241C224.472 227.581 234.104 240.88 263.494 249.029C289.457 256.227 310.902 257.84 319.107 256.951C353.975 253.166 362.906 243.879 396.995 232.131C435.94 218.687 473.716 222.266 490.332 216.578C533.69 219.804 564.3 241.542 590.003 249.919C592.697 252.059 595.549 254.069 598.545 255.937C658.467 292.277 642.137 326.942 683.677 341.193C719.454 353.458 767.07 345.908 797.914 345.081C824.967 344.336 846.101 342.289 865.054 342.103C886.707 341.875 906.958 346.032 930.324 351.431C939.827 353.623 947.46 356.477 954.184 355.567C995.18 350.707 1002.76 338.773 1043.44 313.146C1059.02 303.281 1073.07 291.202 1090.18 279.909C1120.32 260.095 1163.5 209.38 1249.33 172.606C1253.9 170.538 1258.86 168.635 1264.15 166.608C1304.42 151.24 1368.79 133.515 1458.59 134.735" stroke="black" stroke-opacity="0.3" stroke-width="0.812532" stroke-miterlimit="10"/>
<path d="M-16.2266 176.391C19.4724 184.147 51.2769 191.531 77.759 196.763C136.825 208.387 159.49 209.07 192.281 223.651C221.775 236.764 231.875 249.732 260.252 257.84C285.436 265.038 306.102 265.638 314.54 266.486C348.681 269.96 358.236 255.524 391.598 244.5C429.374 232.09 465.411 234.965 483.039 228.657C524.762 231.076 555.008 250.56 581.698 257.24C584.418 259.171 587.298 260.953 590.318 262.577C651.123 294.118 638.219 325.99 678.592 338.835C714.94 350.458 762.737 342.661 794.49 341.937C821.751 341.337 843.326 339.683 862.59 340.096C884.607 340.572 905.195 346.177 928.069 352.506C937.701 355.133 945.282 358.297 952.006 357.511C992.976 352.63 999.726 338.462 1039.42 310.85C1054.51 300.364 1068.11 287.624 1085.4 275.855C1113.96 256.33 1158.52 204.085 1245.72 166.235C1250.35 164.25 1255.34 162.182 1260.7 160.031C1301.28 144.353 1366.5 125.986 1457.48 126.938" stroke="black" stroke-opacity="0.3" stroke-width="0.812532" stroke-miterlimit="10"/>
<path d="M-14.8203 184.478C19.944 192.316 51.1513 199.824 77.6854 205.326C134.44 217.074 157.651 218.48 190.286 233.083C219.079 245.947 229.646 258.502 256.985 266.775C281.364 273.973 301.33 275.048 309.949 276.144C343.234 280.281 353.541 267.292 386.306 256.971C422.966 245.41 457.236 247.767 475.852 240.839C515.913 242.473 545.952 259.66 573.316 264.665C576.063 266.391 578.97 267.946 582.014 269.319C643.65 296.083 634.329 325.163 673.196 336.601C710.245 347.542 758.12 339.496 790.729 338.917C818.198 338.441 840.241 337.18 859.817 338.214C882.197 339.393 903.123 346.487 925.503 353.581C935.239 356.684 942.82 360.159 949.518 359.352C990.436 354.471 996.407 338.09 1035.2 308.472C1049.68 297.365 1062.92 283.983 1080.32 271.718C1107.53 252.504 1153.22 198.708 1241.81 160.03C1246.46 157.976 1251.51 155.908 1256.94 153.826C1297.86 137.858 1363.89 118.933 1456.05 119.554" stroke="black" stroke-opacity="0.3" stroke-width="0.812532" stroke-miterlimit="10"/>
<path d="M-13.4258 192.545C20.3259 200.28 51.04 208.098 77.6 213.889C132.122 225.72 155.8 227.912 188.28 242.494C216.398 255.131 227.406 267.458 253.732 275.587C277.28 282.784 296.545 284.336 305.372 285.68C337.774 290.582 348.86 278.917 381.002 269.32C416.545 258.709 449.025 260.447 468.653 252.897C507.078 253.725 536.675 268.658 565.027 271.967C567.806 273.48 570.742 274.801 573.802 275.918C636.113 297.986 630.505 324.047 667.996 334.223C705.486 344.399 753.673 336.291 787.191 335.774C814.842 335.422 837.351 334.533 857.291 336.188C880.008 338.07 901.272 346.529 923.185 354.595C933.025 358.174 940.606 361.917 947.278 361.131C988.144 356.229 993.362 337.677 1031.03 306.011C1044.98 294.305 1057.85 280.282 1075.35 267.5C1101.11 248.657 1148.05 193.269 1237.98 153.516C1242.66 151.448 1247.77 149.379 1253.28 147.125C1294.45 130.765 1361.33 111.281 1454.67 111.654" stroke="black" stroke-opacity="0.3" stroke-width="0.812532" stroke-miterlimit="10"/>
<path d="M-12.0195 200.592C20.8754 208.327 50.9664 216.352 77.5523 222.412C129.686 234.326 153.961 237.283 186.285 251.886C213.702 264.295 225.229 276.271 250.465 284.296C273.234 291.493 291.798 293.52 300.807 295.113C332.352 300.677 344.165 290.459 375.736 281.566C410.137 271.886 440.825 273.044 461.413 264.874C498.177 264.874 527.437 277.553 556.671 279.166C559.505 280.466 562.476 281.566 565.55 282.455C628.796 299.87 626.719 322.869 662.807 331.804C701.206 341.298 749.238 332.88 783.664 332.59C811.497 332.342 834.474 331.846 854.673 334.121C877.754 336.706 899.303 346.758 920.774 355.548C930.718 359.685 938.273 363.636 944.946 362.829C985.785 357.948 990.251 337.203 1026.88 303.49C1040.26 291.183 1052.85 276.602 1070.35 263.22C1094.7 244.75 1142.83 187.768 1234.15 147.023C1238.87 144.913 1244.02 142.735 1249.59 140.487C1291.13 123.941 1358.85 103.878 1453.38 103.816" stroke="black" stroke-opacity="0.3" stroke-width="0.812532" stroke-miterlimit="10"/>
<path d="M-10.6172 208.698C21.3431 216.433 50.8629 224.644 77.4748 231.015C127.323 242.97 152.144 246.734 184.286 261.377C211.002 273.518 222.945 285.183 247.22 293.167C263.112 298.131 279.512 301.993 296.238 304.708C326.926 310.913 339.466 302.143 370.44 293.974C403.698 285.225 432.751 285.7 454.274 276.993C489.376 276.228 518.324 286.61 548.441 286.548C551.32 287.628 554.319 288.494 557.398 289.134C621.215 301.875 622.98 321.751 657.615 329.466C696.741 338.173 744.824 330.127 780.108 329.466C808.148 328.948 831.566 329.259 852.103 332.134C875.469 335.422 897.382 347.005 918.412 356.581C928.433 361.131 936.015 365.433 942.661 364.627C983.449 359.725 987.213 336.829 1022.78 301.047C1035.58 288.162 1047.78 272.898 1065.41 259.019C1088.34 240.943 1137.67 182.348 1230.36 140.61C1235.11 138.541 1240.3 136.246 1245.93 133.95C1287.81 117.052 1356.35 96.4516 1452.05 96.0586" stroke="black" stroke-opacity="0.3" stroke-width="0.812532" stroke-miterlimit="10"/>
<path d="M-9.21484 216.784C21.9406 224.52 50.7853 232.896 77.3973 239.536C124.961 251.49 150.301 256.082 182.313 270.746C208.276 282.639 220.712 293.994 243.949 301.936C259.436 307.034 275.389 311.182 291.669 314.346C321.552 321.151 334.767 313.849 365.144 306.445C397.26 298.585 424.443 298.565 447.083 289.175C480.549 287.582 509.16 295.711 540.134 293.952C543.066 294.805 546.09 295.442 549.169 295.855C613.712 304.025 619.268 320.675 652.423 327.211C692.302 335.07 740.385 326.921 776.577 326.425C804.825 326.052 828.685 326.735 849.533 330.23C873.315 334.222 895.409 347.335 916.076 357.697C926.123 362.744 933.757 367.315 940.377 366.508C981.139 361.586 984.202 336.539 1018.66 298.689C1030.94 285.204 1042.8 269.34 1060.46 254.924C1082.06 237.261 1132.53 177.032 1226.62 134.28C1231.39 132.109 1236.67 129.833 1242.38 127.476C1284.59 110.288 1354.02 89.1294 1450.83 88.3848" stroke="black" stroke-opacity="0.3" stroke-width="0.812532" stroke-miterlimit="10"/>
<path d="M-7.83984 224.872C22.2771 232.586 50.7064 241.149 77.3183 248.161C122.52 260.136 148.483 265.555 180.313 280.24C205.627 291.905 218.478 302.991 240.703 310.83C255.785 315.966 271.275 320.305 287.072 323.819C316.177 331.203 330.067 325.411 359.768 318.731C390.768 311.802 416.16 311.202 439.812 301.171C471.616 298.793 499.89 304.646 531.772 301.171C534.755 301.804 537.806 302.213 540.885 302.391C606.156 306.032 615.425 319.31 647.151 324.75C687.783 331.74 735.866 323.509 772.967 323.219C801.397 322.971 825.724 324.026 846.884 328.142C871.029 332.837 893.357 347.48 913.634 358.628C923.734 364.192 931.393 368.97 938.013 368.204C978.723 363.282 981.163 336.063 1014.47 296.145C1026.21 282.081 1037.84 265.638 1055.42 250.643C1075.77 233.414 1127.28 171.634 1222.77 127.786C1227.58 125.573 1232.9 123.256 1238.69 120.857C1281.22 103.38 1351.42 81.6424 1449.48 80.6289" stroke="black" stroke-opacity="0.3" stroke-width="0.812532" stroke-miterlimit="10"/>
<path d="M-6.4375 232.958C22.7448 240.694 50.6808 249.38 77.2408 256.764C120.287 268.698 146.64 275.007 178.314 289.691C202.953 301.108 216.246 311.843 237.432 319.682C252.115 324.934 267.163 329.513 282.503 333.395C310.829 341.357 325.342 337.055 354.55 331.119C384.407 325.08 408.034 323.922 432.698 313.291C462.867 310.106 490.803 313.684 523.568 308.554C526.616 308.878 529.685 309.051 532.759 309.071C598.705 311.409 611.79 318.068 642.037 322.453C683.422 328.451 731.531 319.847 769.489 320.137C798.048 320.364 822.92 321.46 844.392 326.197C868.9 331.595 891.41 347.79 911.35 359.703C921.501 365.784 929.212 370.831 935.807 370.045C976.491 365.122 978.308 335.773 1010.42 293.787C1021.64 279.122 1032.93 262.1 1050.56 246.485C1069.52 229.69 1122.25 166.173 1218.98 121.415C1223.85 119.154 1229.2 116.803 1235.05 114.362C1277.89 96.5335 1348.95 74.258 1448.18 72.8516" stroke="black" stroke-opacity="0.3" stroke-width="0.812532" stroke-miterlimit="10"/>
<path d="M-5.03516 241.025C23.2124 248.74 50.6033 257.571 77.1633 265.307C117.977 277.179 144.797 284.376 176.315 299.102C200.253 310.271 213.988 320.695 234.187 328.493C252.88 335.732 267.938 339.869 277.934 342.971C305.507 351.472 320.643 348.679 349.254 343.529C375.135 338.795 400.605 332.736 425.507 325.39C452.82 317.738 481.327 310.126 515.261 315.897C518.341 316.239 521.471 316.183 524.529 315.732C591.358 310.478 608.052 316.766 636.845 320.137C679.008 325.06 727.092 316.58 765.958 317.035C794.803 317.366 820.039 318.875 841.822 324.212C866.668 330.416 889.386 348.08 908.988 360.758C919.165 367.356 926.954 372.651 933.548 371.844C974.154 366.901 975.401 335.401 1006.24 291.346C1016.94 276.082 1027.98 258.523 1045.53 242.307C1063.08 226.092 1117.11 160.899 1215.12 114.983C1220 112.729 1225.5 110.309 1231.34 107.806C1274.52 89.6877 1346.38 66.8538 1446.83 65.0957" stroke="black" stroke-opacity="0.3" stroke-width="0.812532" stroke-miterlimit="10"/>
<path d="M-3.63672 249.113C23.6762 256.827 50.5478 265.659 77.1078 273.932C115.663 285.742 142.976 293.85 174.313 308.597C197.679 319.517 211.751 329.631 230.912 337.388C248.8 344.647 263.339 349.177 273.361 352.548C300.207 361.587 315.914 360.284 343.954 355.919C371.501 351.638 389.779 346.178 418.312 337.512C444.015 329.693 471.38 328.184 506.975 323.24C510.246 322.785 513.388 322.827 516.322 322.413C583.981 312.733 604.31 315.422 631.649 317.821C674.565 321.565 722.674 313.333 762.398 313.933C791.45 314.388 817.153 316.291 839.248 322.206C864.458 329.032 887.331 348.308 906.621 361.773C916.825 368.888 924.795 374.431 931.26 373.624C971.814 368.681 972.515 335.009 1002.19 288.824C1012.39 272.96 1023.19 254.904 1040.64 238.027C1057.08 222.142 1112.04 155.398 1211.4 108.489C1216.33 106.194 1221.78 103.732 1227.78 101.168C1271.27 82.7599 1343.99 59.3675 1445.58 57.2578" stroke="black" stroke-opacity="0.3" stroke-width="0.812532" stroke-miterlimit="10"/>
<path d="M-2.10156 257.18C24.2767 264.894 50.655 273.891 77.1631 282.433C113.511 294.161 141.265 303.116 172.447 317.967C195.009 328.639 209.652 338.443 227.8 346.178C244.857 353.417 258.773 358.319 268.925 362.042C295.069 371.618 311.348 371.804 338.817 368.247C365.195 364.813 381.889 359.25 411.253 349.632C435.425 341.649 462.296 337.905 498.8 330.604C502.045 329.963 505.265 329.694 508.25 329.094C576.792 315.009 600.782 317.863 626.589 315.505C670.552 311.659 714.783 310.111 759 310.872C788.26 311.431 814.404 313.727 836.888 320.304C862.462 327.832 885.465 348.66 904.392 362.89C914.595 370.522 922.566 376.293 929.108 375.507C969.637 370.543 969.766 334.72 998.222 286.57C1007.93 270.127 1018.55 251.574 1035.84 234.015C1051.03 218.606 1107.01 150.145 1207.74 102.264C1212.7 99.9272 1218.13 97.4245 1224.28 94.8185C1268.11 76.0797 1341.63 52.1289 1444.42 49.709" stroke="black" stroke-opacity="0.3" stroke-width="0.812532" stroke-miterlimit="10"/>
<path d="M-0.828125 262.99C24.6155 270.705 50.5005 279.764 77.0605 288.74C111.228 300.343 139.371 310.333 170.527 325.122C192.413 335.463 207.498 345.06 224.633 352.733C240.86 359.993 254.179 365.267 264.408 369.28C289.93 379.373 306.702 381.048 333.6 378.297C358.835 375.712 374.024 370.148 404.141 359.31C426.832 351.141 453.314 345.246 490.597 335.525C493.842 334.677 497.062 334.119 500.125 333.312C569.602 314.863 597.149 313.125 621.476 310.768C665.946 306.408 710.752 304.59 755.548 305.328C784.99 306.01 811.602 308.699 834.293 315.897C860.256 324.17 883.363 346.487 902.108 361.399C912.286 369.548 920.282 375.588 926.903 374.781C967.379 369.797 967.016 331.823 994.173 281.584C1003.39 264.521 1013.9 245.513 1030.96 227.271C1044.96 212.317 1101.92 142.16 1204.03 93.2865C1209.02 90.9079 1214.6 88.3639 1220.72 85.7165C1264.86 66.6675 1339.25 42.1582 1443.2 39.3867" stroke="black" stroke-opacity="0.3" stroke-width="0.812532" stroke-miterlimit="10"/>
<path d="M0.488281 266.115C24.9972 273.829 50.4408 282.889 76.7931 292.341C108.779 303.82 137.442 314.72 168.234 329.57C189.446 339.725 204.946 348.971 221.069 356.582C236.491 363.862 249.212 369.467 259.546 373.894C284.444 384.504 301.709 387.648 328.01 385.724C352.103 383.966 365.89 378.547 396.656 366.448C417.893 358.175 444.064 350.067 481.996 337.905C485.267 336.871 488.512 336.023 491.602 335.01C562.117 312.155 593.013 305.764 615.99 303.468C660.724 299.021 709.3 296.167 751.698 297.263C781.347 298.029 808.401 301.131 831.43 308.949C857.73 317.884 880.941 341.773 899.452 357.575C909.63 366.262 917.808 372.508 924.325 371.701C964.775 366.737 963.892 326.571 989.777 274.285C998.501 256.621 1008.96 237.179 1025.71 218.213C1038.54 203.735 1096.46 131.883 1199.95 82.016C1204.98 79.6167 1210.59 77.0107 1216.8 74.3012C1261.27 54.9627 1336.46 29.895 1441.61 26.7305" stroke="black" stroke-opacity="0.3" stroke-width="0.812532" stroke-miterlimit="10"/>
<path d="M1.94922 269.091C25.5495 276.785 50.5777 285.844 76.8001 295.813C107.456 307.256 137.337 319.973 166.32 333.911C186.857 343.839 202.668 352.795 217.908 360.323C232.473 367.666 244.624 373.581 255.061 378.359C279.362 389.507 297.095 394.098 322.798 393.023C345.775 392.072 358.238 386.921 389.549 373.457C409.436 364.915 435.321 354.739 473.798 340.157C477.07 338.916 480.341 337.779 483.482 336.579C555.01 309.319 589.021 297.178 610.882 296.041C656.551 293.724 704.946 287.767 748.252 289.071C778.109 289.919 805.604 293.476 828.944 301.894C855.608 311.532 878.897 337.055 897.175 353.601C907.3 362.805 915.608 369.3 922.125 368.514C962.523 363.508 961.069 321.17 985.734 266.836C994.444 246.483 1006.23 227.05 1020.84 208.966C1032.52 194.922 1091.38 121.394 1196.21 70.5346C1201.28 68.094 1206.94 65.4466 1213.22 62.6958C1258.01 43.047 1334.05 17.4208 1440.37 13.9668" stroke="black" stroke-opacity="0.3" stroke-width="0.812532" stroke-miterlimit="10"/>
<path d="M3.34766 271.946C58.9665 290.838 112.768 312.959 164.317 338.132C247.243 378.65 269.908 400.532 317.498 400.181C352.159 399.912 360.337 388.164 465.487 342.268C544.57 307.749 584.111 290.561 605.686 288.493C683.211 281.274 767.954 272.339 826.37 294.698C868.482 310.81 901.663 367.253 919.837 365.02C973.71 358.36 952.446 281.254 1015.9 199.556C1026.47 185.947 1086.23 110.764 1192.45 58.9122C1233.68 38.7877 1316.45 5.32273 1439.09 1" stroke="black" stroke-opacity="0.3" stroke-width="0.812532" stroke-miterlimit="10"/>
</g>
</svg>
