<svg width="361" height="262" viewBox="0 0 361 262" fill="none" xmlns="http://www.w3.org/2000/svg">
<path d="M170.7 98.1758H121.122C120.02 98.1758 119.006 98.7804 118.482 99.7504L96.344 140.749C95.2647 142.748 96.7121 145.174 98.9837 145.174H148.561C149.664 145.174 150.677 144.57 151.201 143.6L173.339 102.601C174.419 100.602 172.971 98.1758 170.7 98.1758Z" fill="#167244"/>
<path d="M151.294 49.0359L173.285 4.90747C174.343 2.78536 177.328 2.67091 178.545 4.70583L231.726 93.635C232.922 95.6346 231.481 98.1747 229.151 98.1747H180.245C179.181 98.1747 178.196 97.6105 177.657 96.692L151.391 51.8913C150.878 51.017 150.842 49.943 151.294 49.0359Z" fill="#00A863"/>
<path d="M211.942 141.696L234.999 102.563C236.16 100.593 239.009 100.593 240.169 102.563L263.226 141.696C264.404 143.696 262.962 146.219 260.641 146.219H214.527C212.206 146.219 210.764 143.696 211.942 141.696Z" fill="#00A863"/>
<path d="M174.486 204.193L150.182 175.019C148.522 173.026 149.939 170 152.533 170C153.449 170 154.317 170.41 154.898 171.118L177.675 198.854C178.508 199.868 180.075 199.819 180.843 198.755L200.644 171.313C201.239 170.488 202.193 170 203.21 170C205.823 170 207.31 172.988 205.734 175.073L183.882 203.971C181.551 207.053 176.959 207.161 174.486 204.193Z" fill="#167244"/>
<path d="M128.16 170.176C146.949 170.176 146.949 206.669 128.16 206.67H75.0718C73.2597 206.67 71.7905 205.201 71.7905 203.389V172.86C71.7905 171.378 72.9926 170.176 74.4751 170.176H128.16ZM81.7808 177C79.9687 177 78.4995 178.469 78.4995 180.281V196.719C78.4995 198.531 79.9687 200 81.7808 200H127.459C137.991 200 137.991 177 127.459 177H81.7808Z" fill="#167244"/>
<path d="M29.365 172.954L6.17051 201.251C4.50435 203.284 5.95048 206.339 8.57876 206.339C9.51173 206.339 10.3956 205.921 10.987 205.199L32.5707 178.868C33.4005 177.855 34.9631 177.9 35.7339 178.958L54.7236 205.02C55.3273 205.849 56.2906 206.339 57.3157 206.339C59.9598 206.339 61.468 203.319 59.8796 201.205L38.8022 173.154C36.4651 170.043 31.8314 169.946 29.365 172.954Z" fill="#167244"/>
<path d="M27.9519 200.725C27.9519 196.234 31.5261 195.111 32.8682 195.111C34.6577 195.111 38.2366 196.234 38.2366 200.725C38.2366 205.216 34.6577 206.339 32.8682 206.339C31.5261 206.339 27.9519 205.216 27.9519 200.725Z" fill="#00A863"/>
<path d="M238.953 172.954L215.759 201.251C214.093 203.284 215.539 206.339 218.167 206.339C219.1 206.339 219.984 205.921 220.575 205.199L242.159 178.868C242.989 177.855 244.551 177.9 245.322 178.958L264.312 205.02C264.916 205.849 265.879 206.339 266.904 206.339C269.548 206.339 271.056 203.319 269.468 201.205L248.391 173.154C246.053 170.043 241.42 169.946 238.953 172.954Z" fill="#167244"/>
<path d="M237.566 200.725C237.566 196.234 241.114 195.111 242.456 195.111C244.246 195.111 247.825 196.234 247.825 200.725C247.825 205.216 244.246 206.339 242.456 206.339C241.114 206.339 237.566 205.216 237.566 200.725Z" fill="#00A863"/>
<path d="M278.777 204.225V172.685C278.777 171.3 279.899 170.178 281.284 170.178C282.668 170.178 283.791 171.3 283.791 172.685V204.225C283.791 205.61 282.668 206.732 281.284 206.732C279.899 206.732 278.777 205.61 278.777 204.225Z" fill="#167244"/>
<path d="M324.236 176.144H297.804C296.156 176.144 294.82 174.809 294.82 173.161C294.82 171.513 296.156 170.178 297.804 170.178H356.017C357.665 170.178 359 171.513 359 173.161C359 174.809 357.665 176.144 356.017 176.144H340.281C328.981 176.144 328.287 192.654 329.434 201.89C329.525 202.624 329.524 203.376 329.28 204.074C328.506 206.29 327.216 206.838 326.056 206.716C324.773 206.581 323.331 205.969 322.775 204.805C320.669 200.398 322.713 184.641 324.236 176.144Z" fill="#167244"/>
<path d="M1.82129 239V223H7.68066C8.81608 223 9.75619 223.187 10.501 223.562C11.2458 223.932 11.8031 224.435 12.1729 225.07C12.5426 225.701 12.7275 226.411 12.7275 227.203C12.7275 227.87 12.6051 228.432 12.3604 228.891C12.1156 229.344 11.7874 229.708 11.376 229.984C10.9697 230.255 10.5218 230.453 10.0322 230.578V230.734C10.5635 230.76 11.0817 230.932 11.5869 231.25C12.0973 231.562 12.5192 232.008 12.8525 232.586C13.1859 233.164 13.3525 233.867 13.3525 234.695C13.3525 235.513 13.1598 236.247 12.7744 236.898C12.3942 237.544 11.8057 238.057 11.0088 238.437C10.2119 238.812 9.19369 239 7.9541 239H1.82129ZM4.23535 236.93H7.71973C8.87598 236.93 9.7041 236.706 10.2041 236.258C10.7041 235.81 10.9541 235.25 10.9541 234.578C10.9541 234.073 10.8265 233.609 10.5713 233.187C10.3161 232.766 9.9515 232.43 9.47754 232.18C9.00879 231.93 8.4515 231.805 7.80566 231.805H4.23535V236.93ZM4.23535 229.922H7.46973C8.01139 229.922 8.49837 229.818 8.93066 229.609C9.36816 229.401 9.71452 229.109 9.96973 228.734C10.2301 228.354 10.3604 227.906 10.3604 227.391C10.3604 226.729 10.1286 226.174 9.66504 225.727C9.2015 225.279 8.49056 225.055 7.53223 225.055H4.23535V229.922ZM23.6299 234.023V227H25.9736V239H23.6768V236.922H23.5518C23.2757 237.563 22.833 238.096 22.2236 238.523C21.6195 238.945 20.8669 239.156 19.9658 239.156C19.195 239.156 18.5127 238.987 17.9189 238.648C17.3304 238.305 16.8669 237.797 16.5283 237.125C16.195 236.453 16.0283 235.622 16.0283 234.633V227H18.3643V234.352C18.3643 235.169 18.5908 235.82 19.0439 236.305C19.4971 236.789 20.0856 237.031 20.8096 237.031C21.2471 237.031 21.682 236.922 22.1143 236.703C22.5518 236.484 22.9137 236.154 23.2002 235.711C23.4919 235.268 23.6351 234.706 23.6299 234.023ZM38.1045 229.93L35.9873 230.305C35.8988 230.034 35.7581 229.776 35.5654 229.531C35.3779 229.286 35.1227 229.086 34.7998 228.93C34.4769 228.773 34.0732 228.695 33.5889 228.695C32.9274 228.695 32.3753 228.844 31.9326 229.141C31.4899 229.432 31.2686 229.81 31.2686 230.273C31.2686 230.674 31.417 230.997 31.7139 231.242C32.0107 231.487 32.4899 231.687 33.1514 231.844L35.0576 232.281C36.1618 232.536 36.9847 232.93 37.5264 233.461C38.068 233.992 38.3389 234.682 38.3389 235.531C38.3389 236.25 38.1305 236.891 37.7139 237.453C37.3024 238.01 36.7269 238.448 35.9873 238.766C35.2529 239.083 34.4014 239.242 33.4326 239.242C32.0889 239.242 30.9925 238.956 30.1436 238.383C29.2946 237.805 28.7738 236.984 28.5811 235.922L30.8389 235.578C30.9795 236.167 31.2686 236.612 31.7061 236.914C32.1436 237.211 32.7139 237.359 33.417 237.359C34.1826 237.359 34.7946 237.201 35.2529 236.883C35.7113 236.56 35.9404 236.167 35.9404 235.703C35.9404 235.328 35.7998 235.013 35.5186 234.758C35.2425 234.503 34.818 234.31 34.2451 234.18L32.2139 233.734C31.0941 233.479 30.266 233.073 29.7295 232.516C29.1982 231.958 28.9326 231.253 28.9326 230.398C28.9326 229.69 29.1305 229.07 29.5264 228.539C29.9222 228.008 30.4691 227.594 31.167 227.297C31.8649 226.995 32.6644 226.844 33.5654 226.844C34.8623 226.844 35.8831 227.125 36.6279 227.687C37.3727 228.245 37.8649 228.992 38.1045 229.93ZM40.9072 239V227H43.2432V239H40.9072ZM42.0869 225.148C41.6807 225.148 41.3317 225.013 41.04 224.742C40.7536 224.466 40.6104 224.138 40.6104 223.758C40.6104 223.372 40.7536 223.044 41.04 222.773C41.3317 222.497 41.6807 222.359 42.0869 222.359C42.4932 222.359 42.8395 222.497 43.126 222.773C43.4176 223.044 43.5635 223.372 43.5635 223.758C43.5635 224.138 43.4176 224.466 43.126 224.742C42.8395 225.013 42.4932 225.148 42.0869 225.148ZM48.7217 231.875V239H46.3857V227H48.6279V228.953H48.7764C49.0524 228.318 49.4847 227.807 50.0732 227.422C50.667 227.036 51.4144 226.844 52.3154 226.844C53.1331 226.844 53.8493 227.016 54.4639 227.359C55.0785 227.698 55.555 228.203 55.8936 228.875C56.2321 229.547 56.4014 230.378 56.4014 231.367V239H54.0654V231.648C54.0654 230.779 53.8389 230.099 53.3857 229.609C52.9326 229.115 52.3102 228.867 51.5186 228.867C50.9769 228.867 50.4951 228.984 50.0732 229.219C49.6566 229.453 49.3258 229.797 49.0811 230.25C48.8415 230.698 48.7217 231.24 48.7217 231.875ZM64.7061 239.242C63.5238 239.242 62.5055 238.99 61.6514 238.484C60.8024 237.974 60.1462 237.258 59.6826 236.336C59.2243 235.409 58.9951 234.323 58.9951 233.078C58.9951 231.849 59.2243 230.766 59.6826 229.828C60.1462 228.891 60.792 228.159 61.6201 227.633C62.4535 227.107 63.4274 226.844 64.542 226.844C65.2191 226.844 65.8753 226.956 66.5107 227.18C67.1462 227.404 67.7165 227.755 68.2217 228.234C68.7269 228.714 69.1253 229.336 69.417 230.102C69.7087 230.862 69.8545 231.786 69.8545 232.875V233.703H60.3154V231.953H67.5654C67.5654 231.339 67.4404 230.794 67.1904 230.32C66.9404 229.841 66.5889 229.464 66.1357 229.187C65.6878 228.911 65.1618 228.773 64.5576 228.773C63.9014 228.773 63.3285 228.935 62.8389 229.258C62.3545 229.576 61.9795 229.992 61.7139 230.508C61.4535 231.018 61.3232 231.573 61.3232 232.172V233.539C61.3232 234.341 61.4639 235.023 61.7451 235.586C62.0316 236.148 62.43 236.578 62.9404 236.875C63.4508 237.167 64.0472 237.312 64.7295 237.312C65.1722 237.312 65.5758 237.25 65.9404 237.125C66.305 236.995 66.6201 236.802 66.8857 236.547C67.1514 236.292 67.3545 235.977 67.4951 235.602L69.7061 236C69.529 236.651 69.2113 237.221 68.7529 237.711C68.2998 238.195 67.7295 238.573 67.042 238.844C66.3597 239.109 65.5811 239.242 64.7061 239.242ZM81.4385 229.93L79.3213 230.305C79.2327 230.034 79.0921 229.776 78.8994 229.531C78.7119 229.286 78.4567 229.086 78.1338 228.93C77.8109 228.773 77.4072 228.695 76.9229 228.695C76.2614 228.695 75.7093 228.844 75.2666 229.141C74.8239 229.432 74.6025 229.81 74.6025 230.273C74.6025 230.674 74.751 230.997 75.0479 231.242C75.3447 231.487 75.8239 231.687 76.4854 231.844L78.3916 232.281C79.4958 232.536 80.3187 232.93 80.8604 233.461C81.402 233.992 81.6729 234.682 81.6729 235.531C81.6729 236.25 81.4645 236.891 81.0479 237.453C80.6364 238.01 80.0609 238.448 79.3213 238.766C78.5869 239.083 77.7354 239.242 76.7666 239.242C75.4229 239.242 74.3265 238.956 73.4775 238.383C72.6286 237.805 72.1077 236.984 71.915 235.922L74.1729 235.578C74.3135 236.167 74.6025 236.612 75.04 236.914C75.4775 237.211 76.0479 237.359 76.751 237.359C77.5166 237.359 78.1286 237.201 78.5869 236.883C79.0452 236.56 79.2744 236.167 79.2744 235.703C79.2744 235.328 79.1338 235.013 78.8525 234.758C78.5765 234.503 78.152 234.31 77.5791 234.18L75.5479 233.734C74.4281 233.479 73.5999 233.073 73.0635 232.516C72.5322 231.958 72.2666 231.253 72.2666 230.398C72.2666 229.69 72.4645 229.07 72.8604 228.539C73.2562 228.008 73.8031 227.594 74.501 227.297C75.1989 226.995 75.9984 226.844 76.8994 226.844C78.1963 226.844 79.2171 227.125 79.9619 227.687C80.7067 228.245 81.1989 228.992 81.4385 229.93ZM93.2334 229.93L91.1162 230.305C91.0277 230.034 90.887 229.776 90.6943 229.531C90.5068 229.286 90.2516 229.086 89.9287 228.93C89.6058 228.773 89.2021 228.695 88.7178 228.695C88.0563 228.695 87.5042 228.844 87.0615 229.141C86.6188 229.432 86.3975 229.81 86.3975 230.273C86.3975 230.674 86.5459 230.997 86.8428 231.242C87.1396 231.487 87.6188 231.687 88.2803 231.844L90.1865 232.281C91.2907 232.536 92.1136 232.93 92.6553 233.461C93.1969 233.992 93.4678 234.682 93.4678 235.531C93.4678 236.25 93.2594 236.891 92.8428 237.453C92.4313 238.01 91.8558 238.448 91.1162 238.766C90.3818 239.083 89.5303 239.242 88.5615 239.242C87.2178 239.242 86.1214 238.956 85.2725 238.383C84.4235 237.805 83.9027 236.984 83.71 235.922L85.9678 235.578C86.1084 236.167 86.3975 236.612 86.835 236.914C87.2725 237.211 87.8428 237.359 88.5459 237.359C89.3115 237.359 89.9235 237.201 90.3818 236.883C90.8402 236.56 91.0693 236.167 91.0693 235.703C91.0693 235.328 90.9287 235.013 90.6475 234.758C90.3714 234.503 89.9469 234.31 89.374 234.18L87.3428 233.734C86.223 233.479 85.3949 233.073 84.8584 232.516C84.3271 231.958 84.0615 231.253 84.0615 230.398C84.0615 229.69 84.2594 229.07 84.6553 228.539C85.0511 228.008 85.598 227.594 86.2959 227.297C86.9938 226.995 87.7933 226.844 88.6943 226.844C89.9912 226.844 91.012 227.125 91.7568 227.687C92.5016 228.245 92.9938 228.992 93.2334 229.93ZM110.772 227.203C110.689 226.464 110.345 225.891 109.741 225.484C109.137 225.073 108.377 224.867 107.46 224.867C106.804 224.867 106.236 224.971 105.757 225.18C105.278 225.383 104.905 225.664 104.64 226.023C104.379 226.378 104.249 226.781 104.249 227.234C104.249 227.615 104.338 227.943 104.515 228.219C104.697 228.495 104.934 228.727 105.226 228.914C105.522 229.096 105.84 229.25 106.179 229.375C106.517 229.495 106.843 229.594 107.155 229.672L108.718 230.078C109.228 230.203 109.752 230.372 110.288 230.586C110.825 230.799 111.322 231.081 111.78 231.43C112.239 231.779 112.608 232.211 112.89 232.727C113.176 233.242 113.319 233.859 113.319 234.578C113.319 235.484 113.085 236.289 112.616 236.992C112.153 237.695 111.478 238.25 110.593 238.656C109.713 239.063 108.647 239.266 107.397 239.266C106.2 239.266 105.163 239.076 104.288 238.695C103.413 238.315 102.728 237.776 102.233 237.078C101.739 236.375 101.465 235.542 101.413 234.578H103.835C103.882 235.156 104.069 235.638 104.397 236.023C104.731 236.404 105.155 236.687 105.671 236.875C106.192 237.057 106.762 237.148 107.382 237.148C108.064 237.148 108.671 237.042 109.202 236.828C109.739 236.609 110.16 236.307 110.468 235.922C110.775 235.531 110.929 235.076 110.929 234.555C110.929 234.081 110.793 233.693 110.522 233.391C110.257 233.089 109.895 232.839 109.437 232.641C108.983 232.443 108.47 232.268 107.897 232.117L106.007 231.602C104.726 231.253 103.71 230.74 102.96 230.062C102.215 229.385 101.843 228.49 101.843 227.375C101.843 226.453 102.093 225.648 102.593 224.961C103.093 224.273 103.77 223.74 104.624 223.359C105.478 222.974 106.442 222.781 107.515 222.781C108.598 222.781 109.554 222.971 110.382 223.352C111.215 223.732 111.871 224.255 112.351 224.922C112.83 225.583 113.08 226.344 113.101 227.203H110.772ZM121.071 239.242C119.946 239.242 118.965 238.984 118.126 238.469C117.287 237.953 116.636 237.232 116.173 236.305C115.709 235.378 115.478 234.294 115.478 233.055C115.478 231.81 115.709 230.721 116.173 229.789C116.636 228.857 117.287 228.133 118.126 227.617C118.965 227.102 119.946 226.844 121.071 226.844C122.196 226.844 123.178 227.102 124.017 227.617C124.855 228.133 125.506 228.857 125.97 229.789C126.433 230.721 126.665 231.81 126.665 233.055C126.665 234.294 126.433 235.378 125.97 236.305C125.506 237.232 124.855 237.953 124.017 238.469C123.178 238.984 122.196 239.242 121.071 239.242ZM121.079 237.281C121.808 237.281 122.412 237.089 122.892 236.703C123.371 236.318 123.725 235.805 123.954 235.164C124.188 234.523 124.306 233.818 124.306 233.047C124.306 232.281 124.188 231.578 123.954 230.937C123.725 230.292 123.371 229.773 122.892 229.383C122.412 228.992 121.808 228.797 121.079 228.797C120.345 228.797 119.735 228.992 119.251 229.383C118.772 229.773 118.415 230.292 118.181 230.937C117.951 231.578 117.837 232.281 117.837 233.047C117.837 233.818 117.951 234.523 118.181 235.164C118.415 235.805 118.772 236.318 119.251 236.703C119.735 237.089 120.345 237.281 121.079 237.281ZM131.608 223V239H129.272V223H131.608ZM142.353 234.023V227H144.696V239H142.399V236.922H142.274C141.998 237.563 141.556 238.096 140.946 238.523C140.342 238.945 139.59 239.156 138.688 239.156C137.918 239.156 137.235 238.987 136.642 238.648C136.053 238.305 135.59 237.797 135.251 237.125C134.918 236.453 134.751 235.622 134.751 234.633V227H137.087V234.352C137.087 235.169 137.313 235.82 137.767 236.305C138.22 236.789 138.808 237.031 139.532 237.031C139.97 237.031 140.405 236.922 140.837 236.703C141.274 236.484 141.636 236.154 141.923 235.711C142.215 235.268 142.358 234.706 142.353 234.023ZM153.437 227V228.875H146.882V227H153.437ZM148.64 224.125H150.976V235.477C150.976 235.93 151.043 236.271 151.179 236.5C151.314 236.724 151.489 236.878 151.702 236.961C151.921 237.039 152.158 237.078 152.413 237.078C152.601 237.078 152.765 237.065 152.905 237.039C153.046 237.013 153.155 236.992 153.233 236.977L153.655 238.906C153.52 238.958 153.327 239.01 153.077 239.063C152.827 239.12 152.515 239.151 152.14 239.156C151.525 239.167 150.952 239.057 150.421 238.828C149.89 238.599 149.46 238.245 149.132 237.766C148.804 237.286 148.64 236.685 148.64 235.961V224.125ZM156.021 239V227H158.356V239H156.021ZM157.2 225.148C156.794 225.148 156.445 225.013 156.153 224.742C155.867 224.466 155.724 224.138 155.724 223.758C155.724 223.372 155.867 223.044 156.153 222.773C156.445 222.497 156.794 222.359 157.2 222.359C157.606 222.359 157.953 222.497 158.239 222.773C158.531 223.044 158.677 223.372 158.677 223.758C158.677 224.138 158.531 224.466 158.239 224.742C157.953 225.013 157.606 225.148 157.2 225.148ZM166.554 239.242C165.429 239.242 164.447 238.984 163.608 238.469C162.77 237.953 162.119 237.232 161.655 236.305C161.192 235.378 160.96 234.294 160.96 233.055C160.96 231.81 161.192 230.721 161.655 229.789C162.119 228.857 162.77 228.133 163.608 227.617C164.447 227.102 165.429 226.844 166.554 226.844C167.679 226.844 168.66 227.102 169.499 227.617C170.338 228.133 170.989 228.857 171.452 229.789C171.916 230.721 172.147 231.81 172.147 233.055C172.147 234.294 171.916 235.378 171.452 236.305C170.989 237.232 170.338 237.953 169.499 238.469C168.66 238.984 167.679 239.242 166.554 239.242ZM166.562 237.281C167.291 237.281 167.895 237.089 168.374 236.703C168.853 236.318 169.207 235.805 169.437 235.164C169.671 234.523 169.788 233.818 169.788 233.047C169.788 232.281 169.671 231.578 169.437 230.937C169.207 230.292 168.853 229.773 168.374 229.383C167.895 228.992 167.291 228.797 166.562 228.797C165.827 228.797 165.218 228.992 164.733 229.383C164.254 229.773 163.897 230.292 163.663 230.937C163.434 231.578 163.319 232.281 163.319 233.047C163.319 233.818 163.434 234.523 163.663 235.164C163.897 235.805 164.254 236.318 164.733 236.703C165.218 237.089 165.827 237.281 166.562 237.281ZM177.091 231.875V239H174.755V227H176.997V228.953H177.146C177.422 228.318 177.854 227.807 178.442 227.422C179.036 227.036 179.784 226.844 180.685 226.844C181.502 226.844 182.218 227.016 182.833 227.359C183.448 227.698 183.924 228.203 184.263 228.875C184.601 229.547 184.771 230.378 184.771 231.367V239H182.435V231.648C182.435 230.779 182.208 230.099 181.755 229.609C181.302 229.115 180.679 228.867 179.888 228.867C179.346 228.867 178.864 228.984 178.442 229.219C178.026 229.453 177.695 229.797 177.45 230.25C177.211 230.698 177.091 231.24 177.091 231.875ZM196.896 229.93L194.778 230.305C194.69 230.034 194.549 229.776 194.356 229.531C194.169 229.286 193.914 229.086 193.591 228.93C193.268 228.773 192.864 228.695 192.38 228.695C191.718 228.695 191.166 228.844 190.724 229.141C190.281 229.432 190.06 229.81 190.06 230.273C190.06 230.674 190.208 230.997 190.505 231.242C190.802 231.487 191.281 231.687 191.942 231.844L193.849 232.281C194.953 232.536 195.776 232.93 196.317 233.461C196.859 233.992 197.13 234.682 197.13 235.531C197.13 236.25 196.922 236.891 196.505 237.453C196.093 238.01 195.518 238.448 194.778 238.766C194.044 239.083 193.192 239.242 192.224 239.242C190.88 239.242 189.784 238.956 188.935 238.383C188.086 237.805 187.565 236.984 187.372 235.922L189.63 235.578C189.771 236.167 190.06 236.612 190.497 236.914C190.935 237.211 191.505 237.359 192.208 237.359C192.974 237.359 193.586 237.201 194.044 236.883C194.502 236.56 194.731 236.167 194.731 235.703C194.731 235.328 194.591 235.013 194.31 234.758C194.034 234.503 193.609 234.31 193.036 234.18L191.005 233.734C189.885 233.479 189.057 233.073 188.521 232.516C187.989 231.958 187.724 231.253 187.724 230.398C187.724 229.69 187.922 229.07 188.317 228.539C188.713 228.008 189.26 227.594 189.958 227.297C190.656 226.995 191.455 226.844 192.356 226.844C193.653 226.844 194.674 227.125 195.419 227.687C196.164 228.245 196.656 228.992 196.896 229.93ZM205.708 239V223H211.411C212.656 223 213.687 223.227 214.505 223.68C215.323 224.133 215.935 224.753 216.341 225.539C216.747 226.32 216.95 227.201 216.95 228.18C216.95 229.164 216.744 230.049 216.333 230.836C215.927 231.617 215.312 232.237 214.489 232.695C213.672 233.148 212.643 233.375 211.403 233.375H207.481V231.328H211.185C211.971 231.328 212.609 231.193 213.099 230.922C213.588 230.646 213.948 230.271 214.177 229.797C214.406 229.323 214.521 228.784 214.521 228.18C214.521 227.576 214.406 227.039 214.177 226.57C213.948 226.102 213.586 225.734 213.091 225.469C212.601 225.203 211.955 225.07 211.153 225.07H208.122V239H205.708ZM219.593 239V227H221.851V228.906H221.976C222.194 228.26 222.58 227.753 223.132 227.383C223.689 227.008 224.319 226.82 225.022 226.82C225.168 226.82 225.34 226.826 225.538 226.836C225.741 226.846 225.9 226.859 226.015 226.875V229.109C225.921 229.083 225.754 229.055 225.515 229.023C225.275 228.987 225.035 228.969 224.796 228.969C224.244 228.969 223.752 229.086 223.319 229.32C222.892 229.549 222.554 229.87 222.304 230.281C222.054 230.687 221.929 231.151 221.929 231.672V239H219.593ZM228.036 239V227H230.372V239H228.036ZM229.216 225.148C228.81 225.148 228.461 225.013 228.169 224.742C227.882 224.466 227.739 224.138 227.739 223.758C227.739 223.372 227.882 223.044 228.169 222.773C228.461 222.497 228.81 222.359 229.216 222.359C229.622 222.359 229.968 222.497 230.255 222.773C230.547 223.044 230.692 223.372 230.692 223.758C230.692 224.138 230.547 224.466 230.255 224.742C229.968 225.013 229.622 225.148 229.216 225.148ZM243.78 227L239.429 239H236.929L232.569 227H235.077L238.116 236.234H238.241L241.272 227H243.78ZM249.124 239.266C248.364 239.266 247.676 239.125 247.062 238.844C246.447 238.557 245.96 238.143 245.601 237.602C245.246 237.06 245.069 236.396 245.069 235.609C245.069 234.932 245.2 234.375 245.46 233.937C245.72 233.5 246.072 233.154 246.515 232.898C246.957 232.643 247.452 232.451 247.999 232.32C248.546 232.19 249.103 232.091 249.671 232.023C250.39 231.94 250.973 231.872 251.421 231.82C251.869 231.763 252.194 231.672 252.397 231.547C252.601 231.422 252.702 231.219 252.702 230.937V230.883C252.702 230.201 252.509 229.672 252.124 229.297C251.744 228.922 251.176 228.734 250.421 228.734C249.634 228.734 249.015 228.909 248.562 229.258C248.114 229.602 247.804 229.984 247.632 230.406L245.437 229.906C245.697 229.177 246.077 228.589 246.577 228.141C247.082 227.687 247.663 227.359 248.319 227.156C248.976 226.948 249.666 226.844 250.39 226.844C250.869 226.844 251.377 226.901 251.913 227.016C252.455 227.125 252.96 227.328 253.429 227.625C253.903 227.922 254.291 228.346 254.593 228.898C254.895 229.445 255.046 230.156 255.046 231.031V239H252.765V237.359H252.671C252.52 237.661 252.293 237.958 251.991 238.25C251.689 238.542 251.301 238.784 250.827 238.977C250.353 239.169 249.785 239.266 249.124 239.266ZM249.632 237.391C250.278 237.391 250.83 237.263 251.288 237.008C251.752 236.753 252.103 236.419 252.343 236.008C252.588 235.591 252.71 235.146 252.71 234.672V233.125C252.627 233.208 252.465 233.286 252.226 233.359C251.991 233.427 251.723 233.487 251.421 233.539C251.119 233.586 250.825 233.63 250.538 233.672C250.252 233.708 250.012 233.74 249.819 233.766C249.366 233.823 248.952 233.919 248.577 234.055C248.207 234.19 247.91 234.385 247.687 234.641C247.468 234.891 247.358 235.224 247.358 235.641C247.358 236.219 247.572 236.656 247.999 236.953C248.426 237.245 248.97 237.391 249.632 237.391ZM263.759 227V228.875H257.204V227H263.759ZM258.962 224.125H261.298V235.477C261.298 235.93 261.366 236.271 261.501 236.5C261.636 236.724 261.811 236.878 262.024 236.961C262.243 237.039 262.48 237.078 262.735 237.078C262.923 237.078 263.087 237.065 263.228 237.039C263.368 237.013 263.478 236.992 263.556 236.977L263.978 238.906C263.842 238.958 263.649 239.01 263.399 239.063C263.149 239.12 262.837 239.151 262.462 239.156C261.847 239.167 261.274 239.057 260.743 238.828C260.212 238.599 259.782 238.245 259.454 237.766C259.126 237.286 258.962 236.685 258.962 235.961V224.125ZM271.386 239.242C270.203 239.242 269.185 238.99 268.331 238.484C267.482 237.974 266.826 237.258 266.362 236.336C265.904 235.409 265.675 234.323 265.675 233.078C265.675 231.849 265.904 230.766 266.362 229.828C266.826 228.891 267.472 228.159 268.3 227.633C269.133 227.107 270.107 226.844 271.222 226.844C271.899 226.844 272.555 226.956 273.19 227.18C273.826 227.404 274.396 227.755 274.901 228.234C275.407 228.714 275.805 229.336 276.097 230.102C276.388 230.862 276.534 231.786 276.534 232.875V233.703H266.995V231.953H274.245C274.245 231.339 274.12 230.794 273.87 230.32C273.62 229.841 273.269 229.464 272.815 229.187C272.368 228.911 271.841 228.773 271.237 228.773C270.581 228.773 270.008 228.935 269.519 229.258C269.034 229.576 268.659 229.992 268.394 230.508C268.133 231.018 268.003 231.573 268.003 232.172V233.539C268.003 234.341 268.144 235.023 268.425 235.586C268.711 236.148 269.11 236.578 269.62 236.875C270.131 237.167 270.727 237.312 271.409 237.312C271.852 237.312 272.256 237.25 272.62 237.125C272.985 236.995 273.3 236.802 273.565 236.547C273.831 236.292 274.034 235.977 274.175 235.602L276.386 236C276.209 236.651 275.891 237.221 275.433 237.711C274.979 238.195 274.409 238.573 273.722 238.844C273.039 239.109 272.261 239.242 271.386 239.242ZM285.136 239V223H287.55V236.922H294.8V239H285.136ZM297.366 239V227H299.702V239H297.366ZM298.546 225.148C298.14 225.148 297.791 225.013 297.499 224.742C297.213 224.466 297.069 224.138 297.069 223.758C297.069 223.372 297.213 223.044 297.499 222.773C297.791 222.497 298.14 222.359 298.546 222.359C298.952 222.359 299.299 222.497 299.585 222.773C299.877 223.044 300.022 223.372 300.022 223.758C300.022 224.138 299.877 224.466 299.585 224.742C299.299 225.013 298.952 225.148 298.546 225.148ZM302.845 239V227H305.087V228.953H305.235C305.485 228.292 305.894 227.776 306.462 227.406C307.03 227.031 307.709 226.844 308.501 226.844C309.303 226.844 309.975 227.031 310.517 227.406C311.063 227.781 311.467 228.297 311.728 228.953H311.853C312.139 228.312 312.595 227.802 313.22 227.422C313.845 227.036 314.59 226.844 315.454 226.844C316.543 226.844 317.431 227.185 318.118 227.867C318.811 228.549 319.157 229.578 319.157 230.953V239H316.821V231.172C316.821 230.359 316.6 229.771 316.157 229.406C315.715 229.042 315.186 228.859 314.571 228.859C313.811 228.859 313.22 229.094 312.798 229.562C312.376 230.026 312.165 230.622 312.165 231.352V239H309.837V231.023C309.837 230.372 309.634 229.849 309.228 229.453C308.821 229.057 308.293 228.859 307.642 228.859C307.199 228.859 306.79 228.977 306.415 229.211C306.045 229.44 305.746 229.76 305.517 230.172C305.293 230.583 305.181 231.06 305.181 231.602V239H302.845ZM322.288 239V227H324.624V239H322.288ZM323.468 225.148C323.062 225.148 322.713 225.013 322.421 224.742C322.134 224.466 321.991 224.138 321.991 223.758C321.991 223.372 322.134 223.044 322.421 222.773C322.713 222.497 323.062 222.359 323.468 222.359C323.874 222.359 324.22 222.497 324.507 222.773C324.799 223.044 324.944 223.372 324.944 223.758C324.944 224.138 324.799 224.466 324.507 224.742C324.22 225.013 323.874 225.148 323.468 225.148ZM333.368 227V228.875H326.813V227H333.368ZM328.571 224.125H330.907V235.477C330.907 235.93 330.975 236.271 331.11 236.5C331.246 236.724 331.42 236.878 331.634 236.961C331.853 237.039 332.09 237.078 332.345 237.078C332.532 237.078 332.696 237.065 332.837 237.039C332.978 237.013 333.087 236.992 333.165 236.977L333.587 238.906C333.451 238.958 333.259 239.01 333.009 239.063C332.759 239.12 332.446 239.151 332.071 239.156C331.457 239.167 330.884 239.057 330.353 238.828C329.821 238.599 329.392 238.245 329.063 237.766C328.735 237.286 328.571 236.685 328.571 235.961V224.125ZM340.995 239.242C339.813 239.242 338.795 238.99 337.94 238.484C337.091 237.974 336.435 237.258 335.972 236.336C335.513 235.409 335.284 234.323 335.284 233.078C335.284 231.849 335.513 230.766 335.972 229.828C336.435 228.891 337.081 228.159 337.909 227.633C338.743 227.107 339.716 226.844 340.831 226.844C341.508 226.844 342.164 226.956 342.8 227.18C343.435 227.404 344.006 227.755 344.511 228.234C345.016 228.714 345.414 229.336 345.706 230.102C345.998 230.862 346.144 231.786 346.144 232.875V233.703H336.604V231.953H343.854C343.854 231.339 343.729 230.794 343.479 230.32C343.229 229.841 342.878 229.464 342.425 229.187C341.977 228.911 341.451 228.773 340.847 228.773C340.19 228.773 339.618 228.935 339.128 229.258C338.644 229.576 338.269 229.992 338.003 230.508C337.743 231.018 337.612 231.573 337.612 232.172V233.539C337.612 234.341 337.753 235.023 338.034 235.586C338.321 236.148 338.719 236.578 339.229 236.875C339.74 237.167 340.336 237.312 341.019 237.312C341.461 237.312 341.865 237.25 342.229 237.125C342.594 236.995 342.909 236.802 343.175 236.547C343.44 236.292 343.644 235.977 343.784 235.602L345.995 236C345.818 236.651 345.5 237.221 345.042 237.711C344.589 238.195 344.019 238.573 343.331 238.844C342.649 239.109 341.87 239.242 340.995 239.242ZM353.228 239.234C352.259 239.234 351.394 238.987 350.634 238.492C349.879 237.992 349.285 237.281 348.853 236.359C348.425 235.432 348.212 234.32 348.212 233.023C348.212 231.727 348.428 230.617 348.86 229.695C349.298 228.773 349.897 228.068 350.657 227.578C351.418 227.089 352.28 226.844 353.243 226.844C353.988 226.844 354.587 226.969 355.04 227.219C355.498 227.464 355.853 227.75 356.103 228.078C356.358 228.406 356.556 228.695 356.696 228.945H356.837V223H359.173V239H356.892V237.133H356.696C356.556 237.388 356.353 237.68 356.087 238.008C355.826 238.336 355.467 238.622 355.009 238.867C354.55 239.112 353.957 239.234 353.228 239.234ZM353.743 237.242C354.415 237.242 354.983 237.065 355.446 236.711C355.915 236.352 356.269 235.854 356.509 235.219C356.754 234.583 356.876 233.844 356.876 233C356.876 232.167 356.756 231.437 356.517 230.812C356.277 230.187 355.925 229.701 355.462 229.352C354.998 229.003 354.425 228.828 353.743 228.828C353.04 228.828 352.454 229.01 351.985 229.375C351.517 229.74 351.162 230.237 350.923 230.867C350.688 231.497 350.571 232.208 350.571 233C350.571 233.802 350.691 234.523 350.931 235.164C351.17 235.805 351.524 236.312 351.993 236.687C352.467 237.057 353.05 237.242 353.743 237.242Z" fill="#00A863"/>
<line x1="2" y1="259.5" x2="359" y2="259.5" stroke="#00A863" stroke-width="5"/>
</svg>
