<svg width="356" height="200" viewBox="0 0 356 200" fill="none" xmlns="http://www.w3.org/2000/svg">
<path d="M172.327 94H120.804C120.436 94 120.098 94.2022 119.924 94.5263L96.7928 137.526C96.4344 138.192 96.9169 139 97.6734 139H149.196C149.564 139 149.902 138.798 150.076 138.474L173.207 95.4737C173.566 94.8075 173.083 94 172.327 94Z" fill="#16593A"/>
<path d="M150.24 47.8597L173.184 1.64328C173.536 0.934087 174.534 0.895924 174.939 1.57615L229.099 92.4882C229.496 93.1548 229.016 94 228.24 94H177.241C176.885 94 176.556 93.8113 176.377 93.5043L150.272 48.8087C150.102 48.5179 150.09 48.1613 150.24 47.8597Z" fill="#118A57"/>
<path d="M206.884 138.494L232.138 95.4693C232.524 94.8109 233.476 94.8109 233.862 95.4693L259.116 138.494C259.507 139.16 259.027 140 258.254 140H207.746C206.973 140 206.493 139.16 206.884 138.494Z" fill="#118A57"/>
<path d="M176.053 199.15L146.521 166.673C145.937 166.03 146.393 165 147.261 165H152.514C152.796 165 153.065 165.119 153.254 165.327L176.042 190.387C176.454 190.841 177.174 190.82 177.559 190.343L197.743 165.371C197.933 165.136 198.219 165 198.521 165H203.865C204.713 165 205.176 165.989 204.633 166.64L177.561 199.118C177.173 199.584 176.462 199.599 176.053 199.15Z" fill="#16593A"/>
<path d="M125.805 165C144.541 165 144.541 199.942 125.805 199.942H70.5938C70.0416 199.942 69.5938 199.495 69.5938 198.942V166C69.5938 165.448 70.0416 165 70.5938 165H125.805ZM75.9473 170.375C75.3952 170.375 74.9474 170.823 74.9473 171.375V193.566C74.9474 194.118 75.3952 194.566 75.9473 194.566H125.958C136.46 194.566 136.46 170.375 125.958 170.375H75.9473Z" fill="#16593A"/>
<path d="M31.3261 162.93L1.40798 197.976C0.853876 198.625 1.31511 199.625 2.16853 199.625H7.56893C7.86155 199.625 8.13949 199.497 8.32948 199.274L31.3139 172.351C31.7283 171.865 32.4852 171.887 32.8711 172.396L53.2337 199.229C53.4228 199.479 53.7175 199.625 54.0303 199.625H59.5116C60.3451 199.625 60.8128 198.665 60.2991 198.009L32.8742 162.963C32.4846 162.465 31.7365 162.45 31.3261 162.93Z" fill="#16593A"/>
<path d="M26.7669 194.25C26.7669 189.95 29.4436 188.875 30.782 188.875C32.5664 188.875 36.1353 189.95 36.1353 194.25C36.1353 198.55 32.5664 199.625 30.782 199.625C29.4436 199.625 26.7669 198.55 26.7669 194.25Z" fill="#16593A"/>
<path d="M234.581 165.83L204.552 198.321C203.96 198.962 204.414 200 205.286 200H210.649C210.928 200 211.195 199.884 211.384 199.679L234.569 174.593C234.981 174.147 235.691 174.168 236.076 174.637L256.613 199.635C256.803 199.866 257.086 200 257.386 200H262.842C263.694 200 264.156 199.003 263.605 198.354L236.078 165.862C235.69 165.404 234.988 165.389 234.581 165.83Z" fill="#16593A"/>
<path d="M229.957 195C229.957 191 232.652 190 234 190C235.797 190 239.391 191 239.391 195C239.391 199 235.797 200 234 200C232.652 200 229.957 199 229.957 195Z" fill="#16593A"/>
<path d="M276 199V166C276 165.448 276.448 165 277 165H280C280.552 165 281 165.448 281 166V199C281 199.552 280.552 200 280 200H277C276.448 200 276 199.552 276 199Z" fill="#16593A"/>
<path d="M292 169.713V166C292 165.448 292.448 165 293 165H355C355.552 165 356 165.448 356 166V169.713C356 170.265 355.552 170.713 355 170.713H337.333C325.685 170.713 325.338 187.604 326.638 196.233C326.657 196.36 326.651 196.489 326.62 196.613C325.587 200.693 323.005 200.291 321.602 199.453C321.423 199.346 321.216 199.29 321.014 199.239C317.352 198.331 319.416 181.453 321.118 171.893C321.228 171.277 320.755 170.713 320.129 170.713H293C292.448 170.713 292 170.265 292 169.713Z" fill="#16593A"/>
</svg>
