<svg width="164" height="140" viewBox="0 0 164 140" fill="none" xmlns="http://www.w3.org/2000/svg">
<path d="M76.3266 94H24.8045C24.4364 94 24.0982 94.2022 23.9238 94.5263L0.792769 137.526C0.43439 138.192 0.916941 139 1.67344 139H53.1955C53.5636 139 53.9018 138.798 54.0762 138.474L77.2072 95.4737C77.5656 94.8075 77.0831 94 76.3266 94Z" fill="white" fill-opacity="0.5"/>
<path d="M54.2399 47.8597L77.1842 1.64328C77.5363 0.934087 78.5337 0.895924 78.939 1.57615L133.099 92.4882C133.496 93.1548 133.016 94 132.24 94H81.2407C80.8852 94 80.5565 93.8113 80.3772 93.5043L54.2721 48.8087C54.1023 48.5179 54.0902 48.1613 54.2399 47.8597Z" fill="white" fill-opacity="0.5"/>
<path d="M110.884 138.494L136.138 95.4693C136.524 94.8109 137.476 94.8109 137.862 95.4693L163.116 138.494C163.507 139.16 163.027 140 162.254 140H111.746C110.973 140 110.493 139.16 110.884 138.494Z" fill="white" fill-opacity="0.5"/>
</svg>
