<svg width="173" height="41" viewBox="0 0 173 41" fill="none" xmlns="http://www.w3.org/2000/svg">
<path d="M154 15V11H173V15H165V31H161V15H154Z" fill="#068771"/>
<path d="M148 31V11H152V31H148Z" fill="#068771"/>
<path d="M132.728 11.4192L120 31H125L133.5 17L142 31H147L134.272 11.4192C134.103 11.1578 133.812 11 133.5 11C133.188 11 132.897 11.1578 132.728 11.4192Z" fill="#068771"/>
<path d="M114 15L116 11H121L119 15H114Z" fill="#0AAF6B"/>
<path d="M111 12L114 7H119L116 12H111Z" fill="#068771"/>
<path d="M82 11V14H95C98.2 14 100 17 100 19V24C100 26.4429 96.6581 27.6127 95.1059 27.9758C95.0348 27.9925 94.9632 28 94.8902 28H82V31H95C101 31 102.833 26.3333 103 24V19C103 13.4 97.6667 11.3333 95 11H82Z" fill="#068771"/>
<path d="M58 31H54L65.7087 11.4855C65.8894 11.1843 66.2149 11 66.5662 11H67.4338C67.7851 11 68.1106 11.1843 68.2913 11.4855L80 31H76L73.2913 26.4855C73.1106 26.1843 72.7851 26 72.4338 26H64L66 23H69.2768C70.0446 23 70.526 22.1705 70.1451 21.5039L67 16L58 31Z" fill="#068771"/>
<path d="M114.728 30.5808L102 11H107L115.5 26L125 11H129L116.272 30.5808C116.103 30.8422 115.812 31 115.5 31C115.188 31 114.897 30.8422 114.728 30.5808Z" fill="#068771"/>
<path d="M26 31H13L7 41H20L26 31Z" fill="#00B46B"/>
<path d="M36 31L16 0H30L49 31H36Z" fill="#00B46B"/>
<path d="M0 31L11 13H24.5L13 31H0Z" fill="#058771"/>
</svg>
