<svg width="350" height="262" viewBox="0 0 350 262" fill="none" xmlns="http://www.w3.org/2000/svg">
<path d="M164.873 98.1758H117.008C115.792 98.1758 114.676 98.8476 114.108 99.9218L92.7012 140.358C91.5443 142.543 93.1285 145.174 95.6011 145.174H143.466C144.682 145.174 145.798 144.502 146.366 143.428L167.773 102.992C168.93 100.807 167.345 98.1758 164.873 98.1758Z" fill="#167244"/>
<path d="M146.421 48.9246L167.639 5.49587C168.788 3.14376 172.094 3.0184 173.418 5.27671L224.986 93.2339C226.269 95.4213 224.691 98.1747 222.156 98.1747H174.964C173.789 98.1747 172.704 97.5469 172.119 96.5286L146.524 52.0002C145.982 51.0557 145.943 49.9034 146.421 48.9246Z" fill="#00A863"/>
<path d="M206.057 141.296L228.124 103.095C229.387 100.908 232.543 100.908 233.806 103.095L255.873 141.296C257.137 143.484 255.558 146.219 253.032 146.219H208.898C206.372 146.219 204.793 143.484 206.057 141.296Z" fill="#00A863"/>
<path d="M168.64 203.918L146.753 178.349C145.103 176.421 146.473 173.445 149.011 173.445C149.879 173.445 150.704 173.825 151.268 174.484L168.56 194.686C171.279 197.862 176.236 197.72 178.768 194.392L193.786 174.655C194.365 173.893 195.268 173.445 196.225 173.445C198.783 173.445 200.216 176.392 198.638 178.404L178.788 203.701C176.231 206.959 171.333 207.064 168.64 203.918Z" fill="#167244"/>
<path d="M123.686 170.176C142.107 170.176 142.107 206.67 123.686 206.67H71.7036C69.8915 206.67 68.4224 205.201 68.4224 203.389V172.808C68.4224 171.354 69.6008 170.176 71.0542 170.176H123.686ZM76.9653 175.791C75.1531 175.791 73.6841 177.26 73.6841 179.072V197.775C73.6843 199.587 75.1533 201.057 76.9653 201.057H123.834C134.16 201.057 134.16 175.791 123.834 175.791H76.9653Z" fill="#167244"/>
<path d="M26.2374 173.69L4.02161 201.335C2.40347 203.348 3.83688 206.339 6.42006 206.339C7.35241 206.339 8.23448 205.916 8.81851 205.189L26.1558 183.615C28.8789 180.227 34.0845 180.374 36.6113 183.912L51.6845 205.013C52.2789 205.845 53.2385 206.339 54.2611 206.339C56.8578 206.339 58.3506 203.385 56.8105 201.295L36.6365 173.909C34.0819 170.441 28.9356 170.332 26.2374 173.69Z" fill="#167244"/>
<path d="M25.4429 200.725C25.4429 196.234 28.947 195.111 30.2628 195.111C32.0172 195.111 35.5259 196.234 35.5259 200.725C35.5259 205.216 32.0172 206.339 30.2628 206.339C28.947 206.339 25.4429 205.216 25.4429 200.725Z" fill="#00A863"/>
<path d="M231.716 173.69L209.501 201.335C207.882 203.348 209.316 206.339 211.899 206.339C212.831 206.339 213.713 205.916 214.298 205.189L231.635 183.615C234.358 180.227 239.563 180.374 242.09 183.912L257.164 205.013C257.758 205.845 258.718 206.339 259.74 206.339C262.337 206.339 263.83 203.385 262.289 201.295L242.116 173.909C239.561 170.441 234.415 170.332 231.716 173.69Z" fill="#167244"/>
<path d="M230.947 200.725C230.947 196.234 234.426 195.111 235.741 195.111C237.496 195.111 241.005 196.234 241.005 200.725C241.005 205.216 237.496 206.339 235.741 206.339C234.426 206.339 230.947 205.216 230.947 200.725Z" fill="#00A863"/>
<path d="M271.35 204.274V172.636C271.35 171.278 272.45 170.178 273.807 170.178C275.165 170.178 276.265 171.278 276.265 172.636V204.274C276.265 205.632 275.165 206.732 273.807 206.732C272.45 206.732 271.35 205.632 271.35 204.274Z" fill="#167244"/>
<path d="M308.101 176.144H290.062C288.414 176.144 287.079 174.809 287.079 173.161C287.079 171.513 288.414 170.178 290.062 170.178H347.017C348.664 170.178 350 171.513 350 173.161C350 174.809 348.664 176.144 347.017 176.144H331.648C320.601 176.144 319.893 192.559 321.004 201.81C321.098 202.598 321.101 203.402 320.836 204.15C320.131 206.142 319.009 206.748 317.955 206.732C316.523 206.71 314.923 205.906 314.386 204.578C312.986 201.116 313.684 191.849 314.736 183.87C315.269 179.826 312.18 176.144 308.101 176.144Z" fill="#167244"/>
<path d="M2.21875 239V223H8.07813C9.21354 223 10.1536 223.187 10.8984 223.562C11.6432 223.932 12.2005 224.435 12.5703 225.07C12.9401 225.701 13.125 226.411 13.125 227.203C13.125 227.87 13.0026 228.432 12.7578 228.891C12.513 229.344 12.1849 229.708 11.7734 229.984C11.3672 230.255 10.9193 230.453 10.4297 230.578V230.734C10.9609 230.76 11.4792 230.932 11.9844 231.25C12.4948 231.562 12.9167 232.008 13.25 232.586C13.5833 233.164 13.75 233.867 13.75 234.695C13.75 235.513 13.5573 236.247 13.1719 236.898C12.7917 237.544 12.2031 238.057 11.4063 238.437C10.6094 238.812 9.59115 239 8.35156 239H2.21875ZM4.63281 236.93H8.11719C9.27344 236.93 10.1016 236.706 10.6016 236.258C11.1016 235.81 11.3516 235.25 11.3516 234.578C11.3516 234.073 11.224 233.609 10.9688 233.187C10.7135 232.766 10.349 232.43 9.875 232.18C9.40625 231.93 8.84896 231.805 8.20313 231.805H4.63281V236.93ZM4.63281 229.922H7.86719C8.40885 229.922 8.89583 229.818 9.32813 229.609C9.76563 229.401 10.112 229.109 10.3672 228.734C10.6276 228.354 10.7578 227.906 10.7578 227.391C10.7578 226.729 10.526 226.174 10.0625 225.727C9.59896 225.279 8.88802 225.055 7.92969 225.055H4.63281V229.922ZM24.0273 234.023V227H26.3711V239H24.0742V236.922H23.9492C23.6732 237.563 23.2305 238.096 22.6211 238.523C22.0169 238.945 21.2643 239.156 20.3633 239.156C19.5924 239.156 18.9102 238.987 18.3164 238.648C17.7279 238.305 17.2643 237.797 16.9258 237.125C16.5924 236.453 16.4258 235.622 16.4258 234.633V227H18.7617V234.352C18.7617 235.169 18.9883 235.82 19.4414 236.305C19.8945 236.789 20.4831 237.031 21.207 237.031C21.6445 237.031 22.0794 236.922 22.5117 236.703C22.9492 236.484 23.3112 236.154 23.5977 235.711C23.8893 235.268 24.0326 234.706 24.0273 234.023ZM38.502 229.93L36.3848 230.305C36.2962 230.034 36.1556 229.776 35.9629 229.531C35.7754 229.286 35.5202 229.086 35.1973 228.93C34.8743 228.773 34.4707 228.695 33.9863 228.695C33.3249 228.695 32.7728 228.844 32.3301 229.141C31.8874 229.432 31.666 229.81 31.666 230.273C31.666 230.674 31.8145 230.997 32.1113 231.242C32.4082 231.487 32.8874 231.687 33.5488 231.844L35.4551 232.281C36.5592 232.536 37.3822 232.93 37.9238 233.461C38.4655 233.992 38.7363 234.682 38.7363 235.531C38.7363 236.25 38.528 236.891 38.1113 237.453C37.6999 238.01 37.1243 238.448 36.3848 238.766C35.6504 239.083 34.7988 239.242 33.8301 239.242C32.4863 239.242 31.39 238.956 30.541 238.383C29.6921 237.805 29.1712 236.984 28.9785 235.922L31.2363 235.578C31.377 236.167 31.666 236.612 32.1035 236.914C32.541 237.211 33.1113 237.359 33.8145 237.359C34.5801 237.359 35.1921 237.201 35.6504 236.883C36.1087 236.56 36.3379 236.167 36.3379 235.703C36.3379 235.328 36.1973 235.013 35.916 234.758C35.64 234.503 35.2155 234.31 34.6426 234.18L32.6113 233.734C31.4915 233.479 30.6634 233.073 30.127 232.516C29.5957 231.958 29.3301 231.253 29.3301 230.398C29.3301 229.69 29.528 229.07 29.9238 228.539C30.3197 228.008 30.8665 227.594 31.5645 227.297C32.2624 226.995 33.0618 226.844 33.9629 226.844C35.2598 226.844 36.2806 227.125 37.0254 227.687C37.7702 228.245 38.2624 228.992 38.502 229.93ZM41.3047 239V227H43.6406V239H41.3047ZM42.4844 225.148C42.0781 225.148 41.7292 225.013 41.4375 224.742C41.151 224.466 41.0078 224.138 41.0078 223.758C41.0078 223.372 41.151 223.044 41.4375 222.773C41.7292 222.497 42.0781 222.359 42.4844 222.359C42.8906 222.359 43.237 222.497 43.5234 222.773C43.8151 223.044 43.9609 223.372 43.9609 223.758C43.9609 224.138 43.8151 224.466 43.5234 224.742C43.237 225.013 42.8906 225.148 42.4844 225.148ZM49.1191 231.875V239H46.7832V227H49.0254V228.953H49.1738C49.4499 228.318 49.8822 227.807 50.4707 227.422C51.0645 227.036 51.8118 226.844 52.7129 226.844C53.5306 226.844 54.2467 227.016 54.8613 227.359C55.4759 227.698 55.9525 228.203 56.291 228.875C56.6296 229.547 56.7988 230.378 56.7988 231.367V239H54.4629V231.648C54.4629 230.779 54.2363 230.099 53.7832 229.609C53.3301 229.115 52.7077 228.867 51.916 228.867C51.3743 228.867 50.8926 228.984 50.4707 229.219C50.054 229.453 49.7233 229.797 49.4785 230.25C49.2389 230.698 49.1191 231.24 49.1191 231.875ZM65.1035 239.242C63.9212 239.242 62.903 238.99 62.0488 238.484C61.1999 237.974 60.5436 237.258 60.0801 236.336C59.6217 235.409 59.3926 234.323 59.3926 233.078C59.3926 231.849 59.6217 230.766 60.0801 229.828C60.5436 228.891 61.1895 228.159 62.0176 227.633C62.8509 227.107 63.8249 226.844 64.9395 226.844C65.6165 226.844 66.2728 226.956 66.9082 227.18C67.5436 227.404 68.1139 227.755 68.6191 228.234C69.1243 228.714 69.5228 229.336 69.8145 230.102C70.1061 230.862 70.252 231.786 70.252 232.875V233.703H60.7129V231.953H67.9629C67.9629 231.339 67.8379 230.794 67.5879 230.32C67.3379 229.841 66.9863 229.464 66.5332 229.187C66.0853 228.911 65.5592 228.773 64.9551 228.773C64.2988 228.773 63.7259 228.935 63.2363 229.258C62.752 229.576 62.377 229.992 62.1113 230.508C61.8509 231.018 61.7207 231.573 61.7207 232.172V233.539C61.7207 234.341 61.8613 235.023 62.1426 235.586C62.429 236.148 62.8275 236.578 63.3379 236.875C63.8483 237.167 64.4447 237.312 65.127 237.312C65.5697 237.312 65.9733 237.25 66.3379 237.125C66.7025 236.995 67.0176 236.802 67.2832 236.547C67.5488 236.292 67.752 235.977 67.8926 235.602L70.1035 236C69.9264 236.651 69.6087 237.221 69.1504 237.711C68.6973 238.195 68.127 238.573 67.4395 238.844C66.7572 239.109 65.9785 239.242 65.1035 239.242ZM81.8359 229.93L79.7188 230.305C79.6302 230.034 79.4896 229.776 79.2969 229.531C79.1094 229.286 78.8542 229.086 78.5313 228.93C78.2083 228.773 77.8047 228.695 77.3203 228.695C76.6589 228.695 76.1068 228.844 75.6641 229.141C75.2214 229.432 75 229.81 75 230.273C75 230.674 75.1484 230.997 75.4453 231.242C75.7422 231.487 76.2214 231.687 76.8828 231.844L78.7891 232.281C79.8932 232.536 80.7161 232.93 81.2578 233.461C81.7995 233.992 82.0703 234.682 82.0703 235.531C82.0703 236.25 81.862 236.891 81.4453 237.453C81.0339 238.01 80.4583 238.448 79.7188 238.766C78.9844 239.083 78.1328 239.242 77.1641 239.242C75.8203 239.242 74.724 238.956 73.875 238.383C73.026 237.805 72.5052 236.984 72.3125 235.922L74.5703 235.578C74.7109 236.167 75 236.612 75.4375 236.914C75.875 237.211 76.4453 237.359 77.1484 237.359C77.9141 237.359 78.526 237.201 78.9844 236.883C79.4427 236.56 79.6719 236.167 79.6719 235.703C79.6719 235.328 79.5313 235.013 79.25 234.758C78.974 234.503 78.5495 234.31 77.9766 234.18L75.9453 233.734C74.8255 233.479 73.9974 233.073 73.4609 232.516C72.9297 231.958 72.6641 231.253 72.6641 230.398C72.6641 229.69 72.862 229.07 73.2578 228.539C73.6536 228.008 74.2005 227.594 74.8984 227.297C75.5964 226.995 76.3958 226.844 77.2969 226.844C78.5938 226.844 79.6146 227.125 80.3594 227.687C81.1042 228.245 81.5964 228.992 81.8359 229.93ZM93.6309 229.93L91.5137 230.305C91.4251 230.034 91.2845 229.776 91.0918 229.531C90.9043 229.286 90.6491 229.086 90.3262 228.93C90.0033 228.773 89.5996 228.695 89.1152 228.695C88.4538 228.695 87.9017 228.844 87.459 229.141C87.0163 229.432 86.7949 229.81 86.7949 230.273C86.7949 230.674 86.9434 230.997 87.2402 231.242C87.5371 231.487 88.0163 231.687 88.6777 231.844L90.584 232.281C91.6882 232.536 92.5111 232.93 93.0527 233.461C93.5944 233.992 93.8652 234.682 93.8652 235.531C93.8652 236.25 93.6569 236.891 93.2402 237.453C92.8288 238.01 92.2533 238.448 91.5137 238.766C90.7793 239.083 89.9277 239.242 88.959 239.242C87.6152 239.242 86.5189 238.956 85.6699 238.383C84.821 237.805 84.3001 236.984 84.1074 235.922L86.3652 235.578C86.5059 236.167 86.7949 236.612 87.2324 236.914C87.6699 237.211 88.2402 237.359 88.9434 237.359C89.709 237.359 90.321 237.201 90.7793 236.883C91.2376 236.56 91.4668 236.167 91.4668 235.703C91.4668 235.328 91.3262 235.013 91.0449 234.758C90.7689 234.503 90.3444 234.31 89.7715 234.18L87.7402 233.734C86.6204 233.479 85.7923 233.073 85.2559 232.516C84.7246 231.958 84.459 231.253 84.459 230.398C84.459 229.69 84.6569 229.07 85.0527 228.539C85.4486 228.008 85.9954 227.594 86.6934 227.297C87.3913 226.995 88.1908 226.844 89.0918 226.844C90.3887 226.844 91.4095 227.125 92.1543 227.687C92.8991 228.245 93.3913 228.992 93.6309 229.93ZM111.17 227.203C111.087 226.464 110.743 225.891 110.139 225.484C109.535 225.073 108.774 224.867 107.857 224.867C107.201 224.867 106.633 224.971 106.154 225.18C105.675 225.383 105.303 225.664 105.037 226.023C104.777 226.378 104.646 226.781 104.646 227.234C104.646 227.615 104.735 227.943 104.912 228.219C105.094 228.495 105.331 228.727 105.623 228.914C105.92 229.096 106.238 229.25 106.576 229.375C106.915 229.495 107.24 229.594 107.553 229.672L109.115 230.078C109.626 230.203 110.149 230.372 110.686 230.586C111.222 230.799 111.719 231.081 112.178 231.43C112.636 231.779 113.006 232.211 113.287 232.727C113.574 233.242 113.717 233.859 113.717 234.578C113.717 235.484 113.482 236.289 113.014 236.992C112.55 237.695 111.876 238.25 110.99 238.656C110.11 239.063 109.045 239.266 107.795 239.266C106.597 239.266 105.561 239.076 104.686 238.695C103.811 238.315 103.126 237.776 102.631 237.078C102.136 236.375 101.863 235.542 101.811 234.578H104.232C104.279 235.156 104.467 235.638 104.795 236.023C105.128 236.404 105.553 236.687 106.068 236.875C106.589 237.057 107.16 237.148 107.779 237.148C108.462 237.148 109.068 237.042 109.6 236.828C110.136 236.609 110.558 236.307 110.865 235.922C111.173 235.531 111.326 235.076 111.326 234.555C111.326 234.081 111.191 233.693 110.92 233.391C110.654 233.089 110.292 232.839 109.834 232.641C109.381 232.443 108.868 232.268 108.295 232.117L106.404 231.602C105.123 231.253 104.107 230.74 103.357 230.062C102.613 229.385 102.24 228.49 102.24 227.375C102.24 226.453 102.49 225.648 102.99 224.961C103.49 224.273 104.167 223.74 105.021 223.359C105.876 222.974 106.839 222.781 107.912 222.781C108.995 222.781 109.951 222.971 110.779 223.352C111.613 223.732 112.269 224.255 112.748 224.922C113.227 225.583 113.477 226.344 113.498 227.203H111.17ZM121.469 239.242C120.344 239.242 119.362 238.984 118.523 238.469C117.685 237.953 117.034 237.232 116.57 236.305C116.107 235.378 115.875 234.294 115.875 233.055C115.875 231.81 116.107 230.721 116.57 229.789C117.034 228.857 117.685 228.133 118.523 227.617C119.362 227.102 120.344 226.844 121.469 226.844C122.594 226.844 123.576 227.102 124.414 227.617C125.253 228.133 125.904 228.857 126.367 229.789C126.831 230.721 127.063 231.81 127.063 233.055C127.063 234.294 126.831 235.378 126.367 236.305C125.904 237.232 125.253 237.953 124.414 238.469C123.576 238.984 122.594 239.242 121.469 239.242ZM121.477 237.281C122.206 237.281 122.81 237.089 123.289 236.703C123.768 236.318 124.122 235.805 124.352 235.164C124.586 234.523 124.703 233.818 124.703 233.047C124.703 232.281 124.586 231.578 124.352 230.937C124.122 230.292 123.768 229.773 123.289 229.383C122.81 228.992 122.206 228.797 121.477 228.797C120.742 228.797 120.133 228.992 119.648 229.383C119.169 229.773 118.813 230.292 118.578 230.937C118.349 231.578 118.234 232.281 118.234 233.047C118.234 233.818 118.349 234.523 118.578 235.164C118.813 235.805 119.169 236.318 119.648 236.703C120.133 237.089 120.742 237.281 121.477 237.281ZM132.006 223V239H129.67V223H132.006ZM142.75 234.023V227H145.094V239H142.797V236.922H142.672C142.396 237.563 141.953 238.096 141.344 238.523C140.74 238.945 139.987 239.156 139.086 239.156C138.315 239.156 137.633 238.987 137.039 238.648C136.451 238.305 135.987 237.797 135.648 237.125C135.315 236.453 135.148 235.622 135.148 234.633V227H137.484V234.352C137.484 235.169 137.711 235.82 138.164 236.305C138.617 236.789 139.206 237.031 139.93 237.031C140.367 237.031 140.802 236.922 141.234 236.703C141.672 236.484 142.034 236.154 142.32 235.711C142.612 235.268 142.755 234.706 142.75 234.023ZM153.834 227V228.875H147.279V227H153.834ZM149.037 224.125H151.373V235.477C151.373 235.93 151.441 236.271 151.576 236.5C151.712 236.724 151.886 236.878 152.1 236.961C152.318 237.039 152.555 237.078 152.811 237.078C152.998 237.078 153.162 237.065 153.303 237.039C153.443 237.013 153.553 236.992 153.631 236.977L154.053 238.906C153.917 238.958 153.725 239.01 153.475 239.063C153.225 239.12 152.912 239.151 152.537 239.156C151.923 239.167 151.35 239.057 150.818 238.828C150.287 238.599 149.857 238.245 149.529 237.766C149.201 237.286 149.037 236.685 149.037 235.961V224.125ZM156.418 239V227H158.754V239H156.418ZM157.598 225.148C157.191 225.148 156.842 225.013 156.551 224.742C156.264 224.466 156.121 224.138 156.121 223.758C156.121 223.372 156.264 223.044 156.551 222.773C156.842 222.497 157.191 222.359 157.598 222.359C158.004 222.359 158.35 222.497 158.637 222.773C158.928 223.044 159.074 223.372 159.074 223.758C159.074 224.138 158.928 224.466 158.637 224.742C158.35 225.013 158.004 225.148 157.598 225.148ZM166.951 239.242C165.826 239.242 164.844 238.984 164.006 238.469C163.167 237.953 162.516 237.232 162.053 236.305C161.589 235.378 161.357 234.294 161.357 233.055C161.357 231.81 161.589 230.721 162.053 229.789C162.516 228.857 163.167 228.133 164.006 227.617C164.844 227.102 165.826 226.844 166.951 226.844C168.076 226.844 169.058 227.102 169.896 227.617C170.735 228.133 171.386 228.857 171.85 229.789C172.313 230.721 172.545 231.81 172.545 233.055C172.545 234.294 172.313 235.378 171.85 236.305C171.386 237.232 170.735 237.953 169.896 238.469C169.058 238.984 168.076 239.242 166.951 239.242ZM166.959 237.281C167.688 237.281 168.292 237.089 168.771 236.703C169.251 236.318 169.605 235.805 169.834 235.164C170.068 234.523 170.186 233.818 170.186 233.047C170.186 232.281 170.068 231.578 169.834 230.937C169.605 230.292 169.251 229.773 168.771 229.383C168.292 228.992 167.688 228.797 166.959 228.797C166.225 228.797 165.615 228.992 165.131 229.383C164.652 229.773 164.295 230.292 164.061 230.937C163.831 231.578 163.717 232.281 163.717 233.047C163.717 233.818 163.831 234.523 164.061 235.164C164.295 235.805 164.652 236.318 165.131 236.703C165.615 237.089 166.225 237.281 166.959 237.281ZM177.488 231.875V239H175.152V227H177.395V228.953H177.543C177.819 228.318 178.251 227.807 178.84 227.422C179.434 227.036 180.181 226.844 181.082 226.844C181.9 226.844 182.616 227.016 183.23 227.359C183.845 227.698 184.322 228.203 184.66 228.875C184.999 229.547 185.168 230.378 185.168 231.367V239H182.832V231.648C182.832 230.779 182.605 230.099 182.152 229.609C181.699 229.115 181.077 228.867 180.285 228.867C179.743 228.867 179.262 228.984 178.84 229.219C178.423 229.453 178.092 229.797 177.848 230.25C177.608 230.698 177.488 231.24 177.488 231.875ZM194.311 239V223H200.014C201.258 223 202.29 223.227 203.107 223.68C203.925 224.133 204.537 224.753 204.943 225.539C205.35 226.32 205.553 227.201 205.553 228.18C205.553 229.164 205.347 230.049 204.936 230.836C204.529 231.617 203.915 232.237 203.092 232.695C202.274 233.148 201.245 233.375 200.006 233.375H196.084V231.328H199.787C200.574 231.328 201.212 231.193 201.701 230.922C202.191 230.646 202.55 230.271 202.779 229.797C203.008 229.323 203.123 228.784 203.123 228.18C203.123 227.576 203.008 227.039 202.779 226.57C202.55 226.102 202.188 225.734 201.693 225.469C201.204 225.203 200.558 225.07 199.756 225.07H196.725V239H194.311ZM208.195 239V227H210.453V228.906H210.578C210.797 228.26 211.182 227.753 211.734 227.383C212.292 227.008 212.922 226.82 213.625 226.82C213.771 226.82 213.943 226.826 214.141 226.836C214.344 226.846 214.503 226.859 214.617 226.875V229.109C214.523 229.083 214.357 229.055 214.117 229.023C213.878 228.987 213.638 228.969 213.398 228.969C212.846 228.969 212.354 229.086 211.922 229.32C211.495 229.549 211.156 229.87 210.906 230.281C210.656 230.687 210.531 231.151 210.531 231.672V239H208.195ZM216.639 239V227H218.975V239H216.639ZM217.818 225.148C217.412 225.148 217.063 225.013 216.771 224.742C216.485 224.466 216.342 224.138 216.342 223.758C216.342 223.372 216.485 223.044 216.771 222.773C217.063 222.497 217.412 222.359 217.818 222.359C218.225 222.359 218.571 222.497 218.857 222.773C219.149 223.044 219.295 223.372 219.295 223.758C219.295 224.138 219.149 224.466 218.857 224.742C218.571 225.013 218.225 225.148 217.818 225.148ZM232.383 227L228.031 239H225.531L221.172 227H223.68L226.719 236.234H226.844L229.875 227H232.383ZM237.727 239.266C236.966 239.266 236.279 239.125 235.664 238.844C235.049 238.557 234.563 238.143 234.203 237.602C233.849 237.06 233.672 236.396 233.672 235.609C233.672 234.932 233.802 234.375 234.063 233.937C234.323 233.5 234.674 233.154 235.117 232.898C235.56 232.643 236.055 232.451 236.602 232.32C237.148 232.19 237.706 232.091 238.273 232.023C238.992 231.94 239.576 231.872 240.023 231.82C240.471 231.763 240.797 231.672 241 231.547C241.203 231.422 241.305 231.219 241.305 230.937V230.883C241.305 230.201 241.112 229.672 240.727 229.297C240.346 228.922 239.779 228.734 239.023 228.734C238.237 228.734 237.617 228.909 237.164 229.258C236.716 229.602 236.406 229.984 236.234 230.406L234.039 229.906C234.299 229.177 234.68 228.589 235.18 228.141C235.685 227.687 236.266 227.359 236.922 227.156C237.578 226.948 238.268 226.844 238.992 226.844C239.471 226.844 239.979 226.901 240.516 227.016C241.057 227.125 241.563 227.328 242.031 227.625C242.505 227.922 242.893 228.346 243.195 228.898C243.497 229.445 243.648 230.156 243.648 231.031V239H241.367V237.359H241.273C241.122 237.661 240.896 237.958 240.594 238.25C240.292 238.542 239.904 238.784 239.43 238.977C238.956 239.169 238.388 239.266 237.727 239.266ZM238.234 237.391C238.88 237.391 239.432 237.263 239.891 237.008C240.354 236.753 240.706 236.419 240.945 236.008C241.19 235.591 241.313 235.146 241.313 234.672V233.125C241.229 233.208 241.068 233.286 240.828 233.359C240.594 233.427 240.326 233.487 240.023 233.539C239.721 233.586 239.427 233.63 239.141 233.672C238.854 233.708 238.615 233.74 238.422 233.766C237.969 233.823 237.555 233.919 237.18 234.055C236.81 234.19 236.513 234.385 236.289 234.641C236.07 234.891 235.961 235.224 235.961 235.641C235.961 236.219 236.174 236.656 236.602 236.953C237.029 237.245 237.573 237.391 238.234 237.391ZM252.361 227V228.875H245.807V227H252.361ZM247.564 224.125H249.9V235.477C249.9 235.93 249.968 236.271 250.104 236.5C250.239 236.724 250.413 236.878 250.627 236.961C250.846 237.039 251.083 237.078 251.338 237.078C251.525 237.078 251.689 237.065 251.83 237.039C251.971 237.013 252.08 236.992 252.158 236.977L252.58 238.906C252.445 238.958 252.252 239.01 252.002 239.063C251.752 239.12 251.439 239.151 251.064 239.156C250.45 239.167 249.877 239.057 249.346 238.828C248.814 238.599 248.385 238.245 248.057 237.766C247.729 237.286 247.564 236.685 247.564 235.961V224.125ZM259.988 239.242C258.806 239.242 257.788 238.99 256.934 238.484C256.085 237.974 255.428 237.258 254.965 236.336C254.507 235.409 254.277 234.323 254.277 233.078C254.277 231.849 254.507 230.766 254.965 229.828C255.428 228.891 256.074 228.159 256.902 227.633C257.736 227.107 258.71 226.844 259.824 226.844C260.501 226.844 261.158 226.956 261.793 227.18C262.428 227.404 262.999 227.755 263.504 228.234C264.009 228.714 264.408 229.336 264.699 230.102C264.991 230.862 265.137 231.786 265.137 232.875V233.703H255.598V231.953H262.848C262.848 231.339 262.723 230.794 262.473 230.32C262.223 229.841 261.871 229.464 261.418 229.187C260.97 228.911 260.444 228.773 259.84 228.773C259.184 228.773 258.611 228.935 258.121 229.258C257.637 229.576 257.262 229.992 256.996 230.508C256.736 231.018 256.605 231.573 256.605 232.172V233.539C256.605 234.341 256.746 235.023 257.027 235.586C257.314 236.148 257.712 236.578 258.223 236.875C258.733 237.167 259.329 237.312 260.012 237.312C260.454 237.312 260.858 237.25 261.223 237.125C261.587 236.995 261.902 236.802 262.168 236.547C262.434 236.292 262.637 235.977 262.777 235.602L264.988 236C264.811 236.651 264.493 237.221 264.035 237.711C263.582 238.195 263.012 238.573 262.324 238.844C261.642 239.109 260.863 239.242 259.988 239.242ZM273.738 239V223H276.152V236.922H283.402V239H273.738ZM285.969 239V227H288.305V239H285.969ZM287.148 225.148C286.742 225.148 286.393 225.013 286.102 224.742C285.815 224.466 285.672 224.138 285.672 223.758C285.672 223.372 285.815 223.044 286.102 222.773C286.393 222.497 286.742 222.359 287.148 222.359C287.555 222.359 287.901 222.497 288.188 222.773C288.479 223.044 288.625 223.372 288.625 223.758C288.625 224.138 288.479 224.466 288.188 224.742C287.901 225.013 287.555 225.148 287.148 225.148ZM291.447 239V227H293.689V228.953H293.838C294.088 228.292 294.497 227.776 295.064 227.406C295.632 227.031 296.312 226.844 297.104 226.844C297.906 226.844 298.577 227.031 299.119 227.406C299.666 227.781 300.07 228.297 300.33 228.953H300.455C300.742 228.312 301.197 227.802 301.822 227.422C302.447 227.036 303.192 226.844 304.057 226.844C305.145 226.844 306.033 227.185 306.721 227.867C307.413 228.549 307.76 229.578 307.76 230.953V239H305.424V231.172C305.424 230.359 305.202 229.771 304.76 229.406C304.317 229.042 303.788 228.859 303.174 228.859C302.413 228.859 301.822 229.094 301.4 229.562C300.979 230.026 300.768 230.622 300.768 231.352V239H298.439V231.023C298.439 230.372 298.236 229.849 297.83 229.453C297.424 229.057 296.895 228.859 296.244 228.859C295.801 228.859 295.393 228.977 295.018 229.211C294.648 229.44 294.348 229.76 294.119 230.172C293.895 230.583 293.783 231.06 293.783 231.602V239H291.447ZM310.891 239V227H313.227V239H310.891ZM312.07 225.148C311.664 225.148 311.315 225.013 311.023 224.742C310.737 224.466 310.594 224.138 310.594 223.758C310.594 223.372 310.737 223.044 311.023 222.773C311.315 222.497 311.664 222.359 312.07 222.359C312.477 222.359 312.823 222.497 313.109 222.773C313.401 223.044 313.547 223.372 313.547 223.758C313.547 224.138 313.401 224.466 313.109 224.742C312.823 225.013 312.477 225.148 312.07 225.148ZM321.971 227V228.875H315.416V227H321.971ZM317.174 224.125H319.51V235.477C319.51 235.93 319.577 236.271 319.713 236.5C319.848 236.724 320.023 236.878 320.236 236.961C320.455 237.039 320.692 237.078 320.947 237.078C321.135 237.078 321.299 237.065 321.439 237.039C321.58 237.013 321.689 236.992 321.768 236.977L322.189 238.906C322.054 238.958 321.861 239.01 321.611 239.063C321.361 239.12 321.049 239.151 320.674 239.156C320.059 239.167 319.486 239.057 318.955 238.828C318.424 238.599 317.994 238.245 317.666 237.766C317.338 237.286 317.174 236.685 317.174 235.961V224.125ZM329.598 239.242C328.415 239.242 327.397 238.99 326.543 238.484C325.694 237.974 325.038 237.258 324.574 236.336C324.116 235.409 323.887 234.323 323.887 233.078C323.887 231.849 324.116 230.766 324.574 229.828C325.038 228.891 325.684 228.159 326.512 227.633C327.345 227.107 328.319 226.844 329.434 226.844C330.111 226.844 330.767 226.956 331.402 227.18C332.038 227.404 332.608 227.755 333.113 228.234C333.618 228.714 334.017 229.336 334.309 230.102C334.6 230.862 334.746 231.786 334.746 232.875V233.703H325.207V231.953H332.457C332.457 231.339 332.332 230.794 332.082 230.32C331.832 229.841 331.48 229.464 331.027 229.187C330.579 228.911 330.053 228.773 329.449 228.773C328.793 228.773 328.22 228.935 327.73 229.258C327.246 229.576 326.871 229.992 326.605 230.508C326.345 231.018 326.215 231.573 326.215 232.172V233.539C326.215 234.341 326.355 235.023 326.637 235.586C326.923 236.148 327.322 236.578 327.832 236.875C328.342 237.167 328.939 237.312 329.621 237.312C330.064 237.312 330.467 237.25 330.832 237.125C331.197 236.995 331.512 236.802 331.777 236.547C332.043 236.292 332.246 235.977 332.387 235.602L334.598 236C334.421 236.651 334.103 237.221 333.645 237.711C333.191 238.195 332.621 238.573 331.934 238.844C331.251 239.109 330.473 239.242 329.598 239.242ZM341.83 239.234C340.861 239.234 339.997 238.987 339.236 238.492C338.481 237.992 337.887 237.281 337.455 236.359C337.028 235.432 336.814 234.32 336.814 233.023C336.814 231.727 337.031 230.617 337.463 229.695C337.9 228.773 338.499 228.068 339.26 227.578C340.02 227.089 340.882 226.844 341.846 226.844C342.59 226.844 343.189 226.969 343.643 227.219C344.101 227.464 344.455 227.75 344.705 228.078C344.96 228.406 345.158 228.695 345.299 228.945H345.439V223H347.775V239H345.494V237.133H345.299C345.158 237.388 344.955 237.68 344.689 238.008C344.429 238.336 344.07 238.622 343.611 238.867C343.153 239.112 342.559 239.234 341.83 239.234ZM342.346 237.242C343.018 237.242 343.585 237.065 344.049 236.711C344.518 236.352 344.872 235.854 345.111 235.219C345.356 234.583 345.479 233.844 345.479 233C345.479 232.167 345.359 231.437 345.119 230.812C344.88 230.187 344.528 229.701 344.064 229.352C343.601 229.003 343.028 228.828 342.346 228.828C341.643 228.828 341.057 229.01 340.588 229.375C340.119 229.74 339.765 230.237 339.525 230.867C339.291 231.497 339.174 232.208 339.174 233C339.174 233.802 339.294 234.523 339.533 235.164C339.773 235.805 340.127 236.312 340.596 236.687C341.07 237.057 341.653 237.242 342.346 237.242Z" fill="#00A863"/>
<line x1="-2.18557e-07" y1="259.5" x2="350" y2="259.5" stroke="#00A863" stroke-width="5"/>
</svg>
