<svg width="37" height="52" viewBox="0 0 37 52" fill="none" xmlns="http://www.w3.org/2000/svg">
<mask id="mask0_1971_4362" style="mask-type:luminance" maskUnits="userSpaceOnUse" x="4" y="4" width="33" height="48">
<path d="M4.76196 4.04883H36.8046V51.3232H4.76196V4.04883Z" fill="white"/>
</mask>
<g mask="url(#mask0_1971_4362)">
<path fill-rule="evenodd" clip-rule="evenodd" d="M18.6963 40.2205V45.3802L16.7124 46.8187L20.7142 50.6276L25.0159 41.8549L22.9639 42.3816V38.127L18.6963 40.2205Z" fill="#E3FFEB"/>
</g>
<path fill-rule="evenodd" clip-rule="evenodd" d="M8.90077 36.5614C13.6706 39.1812 6.65866 31.1369 14.34 18.3673C22.0272 5.60094 33.0219 8.6436 27.9875 5.64681C22.9591 2.65329 15.651 4.7938 8.90611 15.792C4.13033 23.5628 4.13097 33.9416 8.90077 36.5614Z" fill="#E3FFEB"/>
<path fill-rule="evenodd" clip-rule="evenodd" d="M12.2612 38.6667L12.3907 38.795C13.6675 39.8603 15.2967 40.4207 16.9653 40.3686C17.2039 40.3686 17.4493 40.3348 17.6948 40.3213L17.7152 45.1027L15.6018 46.3116C15.5341 46.3518 15.4771 46.4073 15.4354 46.4736C15.3937 46.5398 15.3685 46.615 15.3618 46.6928C15.3552 46.7706 15.3673 46.8489 15.3971 46.9212C15.427 46.9935 15.4738 47.0577 15.5336 47.1085L20.4013 51.2889C20.64 51.4915 21.0286 51.424 21.1717 51.1336L26.0054 41.4086C26.0513 41.3138 26.0655 41.207 26.0458 41.1037C26.0261 41.0004 25.9736 40.906 25.896 40.8344C25.8183 40.7627 25.7196 40.7175 25.6141 40.7054C25.5087 40.6933 25.4022 40.7149 25.31 40.767L23.6942 41.6922L23.6806 38.302C30.6618 34.0608 36.2931 24.2278 36.2658 16.2181C36.259 12.166 34.8342 9.12698 32.2639 7.64797L32.223 7.63446L27.778 5.06814C25.1873 3.56887 21.7717 3.87953 18.172 5.94609C18.068 6.01617 17.9946 6.12265 17.9667 6.24413C17.9387 6.3656 17.9582 6.49306 18.0213 6.60087C18.0843 6.70868 18.1863 6.78884 18.3065 6.82523C18.4268 6.86162 18.5566 6.85155 18.6697 6.79703C21.9421 4.91281 25.0032 4.60215 27.2803 5.91908L28.6915 6.72949C26.5985 6.72949 24.4851 7.50614 22.6648 8.53267C15.9154 12.3822 10.4954 21.3238 9.73865 29.0362C9.50685 31.454 9.69092 34.466 10.7749 36.6541L10.7817 36.6744L9.63638 36.0126C7.38658 34.7091 6.1526 31.9605 6.14578 28.2731C6.12533 22.6002 9.07052 15.7792 13.6451 10.8694C13.6938 10.8228 13.7323 10.7668 13.7584 10.7049C13.7845 10.6431 13.7976 10.5766 13.7968 10.5095C13.7961 10.4425 13.7816 10.3763 13.7541 10.315C13.7266 10.2537 13.6869 10.1986 13.6372 10.1531C13.5875 10.1075 13.529 10.0725 13.4651 10.0502C13.4013 10.0278 13.3336 10.0186 13.266 10.023C13.1985 10.0275 13.1326 10.0456 13.0723 10.0761C13.0121 10.1067 12.9588 10.1491 12.9156 10.2008C8.1706 15.2794 5.12997 22.3705 5.1436 28.2731C5.15724 32.3252 6.57529 35.3777 9.13188 36.8635L12.268 38.6667H12.2612ZM24.3896 42.4284L20.565 50.1273L16.7062 46.8181L18.4583 45.8186C18.5354 45.7753 18.5994 45.7125 18.6438 45.6365C18.6881 45.5605 18.7112 45.4742 18.7106 45.3864L18.6901 40.22C19.8628 40.0309 21.3763 39.5446 22.6852 38.8693L22.7057 42.5432C22.7056 42.6301 22.7287 42.7155 22.7727 42.7907C22.8166 42.8659 22.8799 42.9283 22.956 42.9715C23.0322 43.0147 23.1185 43.0372 23.2062 43.0367C23.2939 43.0362 23.38 43.0127 23.4556 42.9687L24.3896 42.4284ZM35.2705 16.2181C35.2909 25.4366 27.1167 38.1669 18.1243 39.3015C15.4654 39.6459 13.1747 38.8895 11.8385 36.5326C10.6795 34.4593 10.4954 31.454 10.734 29.07C11.4567 21.7222 16.6858 13.098 23.142 9.39712L23.1693 9.38361C25.8145 7.88434 29.0869 6.99963 31.7322 8.4854L31.7731 8.50566H31.7799C34.0297 9.80232 35.2705 12.5375 35.2773 16.2181H35.2705Z" fill="white"/>
<path fill-rule="evenodd" clip-rule="evenodd" d="M16.1705 7.26366C15.5953 7.69542 15.0402 8.15288 14.507 8.63462C14.4551 8.67705 14.4123 8.72949 14.3814 8.78876C14.3505 8.84803 14.3321 8.9129 14.3272 8.97944C14.3224 9.04598 14.3312 9.1128 14.3532 9.17586C14.3751 9.23893 14.4098 9.29691 14.455 9.34632C14.5003 9.39572 14.5552 9.43551 14.6164 9.46328C14.6777 9.49105 14.7439 9.50623 14.8113 9.50788C14.8786 9.50953 14.9456 9.49763 15.0081 9.4729C15.0706 9.44817 15.1275 9.41112 15.1751 9.36399C15.6933 8.89125 16.225 8.45227 16.7636 8.05382C16.8198 8.01675 16.8678 7.96873 16.9047 7.91269C16.9416 7.85664 16.9666 7.79374 16.9782 7.72782C16.9897 7.66191 16.9876 7.59434 16.972 7.52925C16.9564 7.46416 16.9275 7.40291 16.8872 7.34922C16.8469 7.29553 16.796 7.25052 16.7376 7.21695C16.6792 7.18338 16.6144 7.16194 16.5474 7.15393C16.4803 7.14593 16.4123 7.15153 16.3475 7.17039C16.2827 7.18926 16.2225 7.22099 16.1705 7.26366Z" fill="white"/>
<path fill-rule="evenodd" clip-rule="evenodd" d="M24.2984 23.0194C23.8484 22.7627 23.2689 22.8032 22.7031 23.1274C22.4577 23.2625 22.2259 23.303 22.0964 23.2355C21.9736 23.1612 21.8918 22.9518 21.8918 22.6749C21.8918 21.8645 22.4849 20.8515 23.1871 20.4463C23.4394 20.3112 23.6643 20.2639 23.7939 20.3382C23.9234 20.4125 23.9984 20.6219 23.9984 20.9055C23.9984 21.0363 24.0508 21.1617 24.1442 21.2541C24.2375 21.3466 24.3641 21.3985 24.4961 21.3985C24.6281 21.3985 24.7546 21.3466 24.848 21.2541C24.9413 21.1617 24.9937 21.0363 24.9937 20.9055C24.9937 20.2572 24.7347 19.7372 24.2915 19.4873C24.0461 19.3455 23.7462 19.3049 23.4462 19.3387V18.3797C23.4462 18.249 23.3938 18.1236 23.3004 18.0311C23.2071 17.9387 23.0805 17.8867 22.9485 17.8867C22.8165 17.8867 22.69 17.9387 22.5966 18.0311C22.5033 18.1236 22.4509 18.249 22.4509 18.3797V19.7642C21.9955 20.1078 21.6211 20.5456 21.3538 21.0471C21.0866 21.5486 20.9328 22.1018 20.9033 22.6682C20.9033 23.3165 21.1624 23.8298 21.6055 24.0864C22.0555 24.3363 22.6349 24.3025 23.2076 23.9716C23.453 23.8365 23.678 23.796 23.8075 23.8635C23.9302 23.9378 24.012 24.1472 24.012 24.4308C24.012 25.2277 23.4257 26.2408 22.7167 26.646C22.4713 26.7878 22.2395 26.8283 22.1168 26.754C21.9805 26.6865 21.9123 26.4771 21.9123 26.2002C21.9123 25.9301 21.6873 25.7072 21.4078 25.7072C21.1351 25.7072 20.9101 25.9301 20.9101 26.2002C20.9101 26.8418 21.1692 27.3551 21.6123 27.6117C21.8168 27.7198 22.0282 27.7738 22.2668 27.7738C22.3281 27.7738 22.3895 27.7535 22.4509 27.7468V28.726C22.4509 28.8568 22.5033 28.9822 22.5966 29.0747C22.69 29.1671 22.8165 29.2191 22.9485 29.2191C23.0805 29.2191 23.2071 29.1671 23.3004 29.0747C23.3938 28.9822 23.4462 28.8568 23.4462 28.726V27.3416C23.9063 26.9999 24.2848 26.5619 24.5546 26.0588C24.8245 25.5557 24.979 24.9998 25.0074 24.4308C25.0074 23.7825 24.7415 23.2692 24.2984 23.0126V23.0194Z" fill="black"/>
</svg>
