<svg width="37" height="52" viewBox="0 0 37 52" fill="none" xmlns="http://www.w3.org/2000/svg">
<mask id="mask0_2008_4226" style="mask-type:luminance" maskUnits="userSpaceOnUse" x="4" y="4" width="33" height="48">
<path d="M4.76123 4.04883H36.8038V51.3232H4.76123V4.04883Z" fill="white"/>
</mask>
<g mask="url(#mask0_2008_4226)">
<path fill-rule="evenodd" clip-rule="evenodd" d="M18.6963 40.2205V45.3802L16.7124 46.8187L20.7142 50.6276L25.0159 41.8549L22.9639 42.3816V38.127L18.6963 40.2205Z" fill="#E3FFEB"/>
</g>
<path fill-rule="evenodd" clip-rule="evenodd" d="M8.90101 36.5614C13.6708 39.1812 6.65891 31.1369 14.3402 18.3673C22.0274 5.60094 33.0221 8.6436 27.9877 5.64681C22.9593 2.65329 15.6512 4.7938 8.90635 15.792C4.13058 23.5628 4.13121 33.9416 8.90101 36.5614Z" fill="#E3FFEB"/>
<path fill-rule="evenodd" clip-rule="evenodd" d="M12.2616 38.6667L12.3912 38.795C13.668 39.8603 15.2972 40.4207 16.9658 40.3686C17.2044 40.3686 17.4498 40.3348 17.6952 40.3213L17.7157 45.1027L15.6023 46.3116C15.5346 46.3518 15.4776 46.4073 15.4359 46.4736C15.3942 46.5398 15.369 46.615 15.3623 46.6928C15.3556 46.7706 15.3678 46.8489 15.3976 46.9212C15.4275 46.9935 15.4743 47.0577 15.5341 47.1085L20.4018 51.2889C20.6404 51.4915 21.029 51.424 21.1722 51.1336L26.0059 41.4086C26.0518 41.3138 26.066 41.207 26.0463 41.1037C26.0266 41.0004 25.9741 40.906 25.8965 40.8344C25.8188 40.7627 25.72 40.7175 25.6146 40.7054C25.5092 40.6933 25.4026 40.7149 25.3105 40.767L23.6947 41.6922L23.6811 38.302C30.6623 34.0608 36.2936 24.2278 36.2663 16.2181C36.2595 12.166 34.8346 9.12698 32.2644 7.64797L32.2235 7.63446L27.7784 5.06814C25.1878 3.56887 21.7722 3.87953 18.1725 5.94609C18.0685 6.01617 17.9951 6.12265 17.9672 6.24413C17.9392 6.3656 17.9587 6.49306 18.0218 6.60087C18.0848 6.70868 18.1867 6.78884 18.307 6.82523C18.4273 6.86162 18.5571 6.85155 18.6702 6.79703C21.9426 4.91281 25.0037 4.60215 27.2808 5.91908L28.692 6.72949C26.599 6.72949 24.4856 7.50614 22.6653 8.53267C15.9159 12.3822 10.4959 21.3238 9.73914 29.0362C9.50734 31.454 9.69141 34.466 10.7754 36.6541L10.7822 36.6744L9.63687 36.0126C7.38707 34.7091 6.15309 31.9605 6.14627 28.2731C6.12582 22.6002 9.07101 15.7792 13.6456 10.8694C13.6943 10.8228 13.7328 10.7668 13.7589 10.7049C13.785 10.6431 13.7981 10.5766 13.7973 10.5095C13.7966 10.4425 13.782 10.3763 13.7546 10.315C13.7271 10.2537 13.6874 10.1986 13.6377 10.1531C13.588 10.1075 13.5294 10.0725 13.4656 10.0502C13.4018 10.0278 13.3341 10.0186 13.2665 10.023C13.199 10.0275 13.1331 10.0456 13.0728 10.0761C13.0126 10.1067 12.9593 10.1491 12.9161 10.2008C8.17109 15.2794 5.13045 22.3705 5.14409 28.2731C5.15772 32.3252 6.57578 35.3777 9.13237 36.8635L12.2685 38.6667H12.2616ZM24.3901 42.4284L20.5654 50.1273L16.7067 46.8181L18.4588 45.8186C18.5359 45.7753 18.5999 45.7125 18.6443 45.6365C18.6886 45.5605 18.7117 45.4742 18.7111 45.3864L18.6906 40.22C19.8632 40.0309 21.3767 39.5446 22.6857 38.8693L22.7062 42.5432C22.7061 42.6301 22.7292 42.7155 22.7732 42.7907C22.8171 42.8659 22.8804 42.9283 22.9565 42.9715C23.0326 43.0147 23.119 43.0372 23.2067 43.0367C23.2944 43.0362 23.3805 43.0127 23.4561 42.9687L24.3901 42.4284ZM35.271 16.2181C35.2914 25.4366 27.1171 38.1669 18.1248 39.3015C15.4659 39.6459 13.1752 38.8895 11.839 36.5326C10.68 34.4593 10.4959 31.454 10.7345 29.07C11.4572 21.7222 16.6862 13.098 23.1425 9.39712L23.1698 9.38361C25.815 7.88434 29.0874 6.99963 31.7326 8.4854L31.7735 8.50566H31.7804C34.0302 9.80232 35.271 12.5375 35.2778 16.2181H35.271Z" fill="black"/>
<path fill-rule="evenodd" clip-rule="evenodd" d="M16.1702 7.26366C15.595 7.69542 15.04 8.15288 14.5068 8.63462C14.4548 8.67705 14.4121 8.72949 14.3812 8.78876C14.3503 8.84803 14.3318 8.9129 14.327 8.97944C14.3221 9.04598 14.3309 9.1128 14.3529 9.17586C14.3749 9.23893 14.4095 9.29691 14.4548 9.34632C14.5001 9.39572 14.555 9.43551 14.6162 9.46328C14.6774 9.49105 14.7437 9.50623 14.811 9.50788C14.8783 9.50953 14.9453 9.49763 15.0079 9.4729C15.0704 9.44817 15.1272 9.41112 15.1749 9.36399C15.693 8.89125 16.2248 8.45227 16.7633 8.05382C16.8196 8.01675 16.8676 7.96873 16.9045 7.91269C16.9414 7.85664 16.9664 7.79374 16.9779 7.72782C16.9895 7.66191 16.9874 7.59434 16.9718 7.52925C16.9561 7.46416 16.9273 7.40291 16.887 7.34922C16.8467 7.29553 16.7958 7.25052 16.7373 7.21695C16.6789 7.18338 16.6142 7.16194 16.5471 7.15393C16.4801 7.14593 16.4121 7.15153 16.3473 7.17039C16.2825 7.18926 16.2222 7.22099 16.1702 7.26366Z" fill="black"/>
<path fill-rule="evenodd" clip-rule="evenodd" d="M24.2989 23.0194C23.8489 22.7627 23.2694 22.8032 22.7036 23.1274C22.4582 23.2625 22.2264 23.303 22.0968 23.2355C21.9741 23.1612 21.8923 22.9518 21.8923 22.6749C21.8923 21.8645 22.4854 20.8515 23.1876 20.4463C23.4399 20.3112 23.6648 20.2639 23.7944 20.3382C23.9239 20.4125 23.9989 20.6219 23.9989 20.9055C23.9989 21.0363 24.0513 21.1617 24.1446 21.2541C24.238 21.3466 24.3646 21.3985 24.4966 21.3985C24.6285 21.3985 24.7551 21.3466 24.8485 21.2541C24.9418 21.1617 24.9942 21.0363 24.9942 20.9055C24.9942 20.2572 24.7352 19.7372 24.292 19.4873C24.0466 19.3455 23.7466 19.3049 23.4467 19.3387V18.3797C23.4467 18.249 23.3942 18.1236 23.3009 18.0311C23.2076 17.9387 23.081 17.8867 22.949 17.8867C22.817 17.8867 22.6904 17.9387 22.5971 18.0311C22.5038 18.1236 22.4513 18.249 22.4513 18.3797V19.7642C21.9959 20.1078 21.6216 20.5456 21.3543 21.0471C21.0871 21.5486 20.9333 22.1018 20.9038 22.6682C20.9038 23.3165 21.1629 23.8298 21.606 24.0864C22.0559 24.3363 22.6354 24.3025 23.2081 23.9716C23.4535 23.8365 23.6785 23.796 23.808 23.8635C23.9307 23.9378 24.0125 24.1472 24.0125 24.4308C24.0125 25.2277 23.4262 26.2408 22.7172 26.646C22.4718 26.7878 22.24 26.8283 22.1173 26.754C21.9809 26.6865 21.9128 26.4771 21.9128 26.2002C21.9128 25.9301 21.6878 25.7072 21.4083 25.7072C21.1356 25.7072 20.9106 25.9301 20.9106 26.2002C20.9106 26.8418 21.1697 27.3551 21.6128 27.6117C21.8173 27.7198 22.0287 27.7738 22.2673 27.7738C22.3286 27.7738 22.39 27.7535 22.4513 27.7468V28.726C22.4513 28.8568 22.5038 28.9822 22.5971 29.0747C22.6904 29.1671 22.817 29.2191 22.949 29.2191C23.081 29.2191 23.2076 29.1671 23.3009 29.0747C23.3942 28.9822 23.4467 28.8568 23.4467 28.726V27.3416C23.9068 26.9999 24.2853 26.5619 24.5551 26.0588C24.8249 25.5557 24.9795 24.9998 25.0079 24.4308C25.0079 23.7825 24.742 23.2692 24.2989 23.0126V23.0194Z" fill="black"/>
</svg>
