<svg width="146" height="84" viewBox="0 0 146 84" fill="none" xmlns="http://www.w3.org/2000/svg">
<path d="M56.5466 64.6896L5.92188 54.0689L88.9858 19.3103L146 31.3793L56.5466 64.6896Z" fill="#B9B9B9"/>
<path d="M145.994 84.0001V31.8622H89.5308L38.4688 84.0001H145.994Z" fill="#757575"/>
<path d="M0 54.0689V0H108.511L54.0101 54.0689H0Z" fill="#53A0DD"/>
<path d="M17.9012 22.0175C17.8261 21.0779 17.4737 20.345 16.8442 19.8189C16.224 19.2927 15.2797 19.0296 14.0113 19.0296C13.2032 19.0296 12.5408 19.1282 12.024 19.3256C11.5166 19.5135 11.1407 19.7719 10.8965 20.1007C10.6522 20.4296 10.5253 20.8054 10.5159 21.2283C10.4971 21.5759 10.5582 21.8907 10.6991 22.1726C10.8495 22.4451 11.0844 22.6941 11.4038 22.9196C11.7233 23.1357 12.132 23.333 12.63 23.5115C13.128 23.69 13.72 23.8498 14.4059 23.9907L16.7737 24.4981C18.371 24.8364 19.7382 25.2827 20.8751 25.837C22.012 26.3914 22.9422 27.0444 23.6657 27.7961C24.3892 28.5384 24.9201 29.3747 25.2584 30.3049C25.606 31.2351 25.7845 32.2499 25.7939 33.3492C25.7845 35.2472 25.31 36.8539 24.3704 38.1694C23.4308 39.4849 22.0872 40.4855 20.3395 41.1714C18.6012 41.8574 16.5106 42.2003 14.0676 42.2003C11.5589 42.2003 9.36959 41.8292 7.49977 41.0869C5.63934 40.3446 4.19235 39.203 3.15878 37.662C2.13461 36.1117 1.61782 34.1291 1.60843 31.7143H9.05012C9.0971 32.5975 9.31791 33.3398 9.71254 33.9412C10.1072 34.5425 10.6615 34.9982 11.3757 35.3083C12.0991 35.6184 12.9589 35.7734 13.9549 35.7734C14.7911 35.7734 15.4911 35.67 16.0549 35.4633C16.6187 35.2566 17.0462 34.97 17.3375 34.6036C17.6287 34.2371 17.7791 33.819 17.7885 33.3492C17.7791 32.9076 17.6334 32.5224 17.3516 32.1935C17.0791 31.8552 16.6281 31.5546 15.9985 31.2915C15.369 31.019 14.5186 30.7653 13.4475 30.5304L10.5723 29.9102C8.01655 29.3559 6.00109 28.4304 4.52591 27.1337C3.06012 25.8276 2.33192 24.0471 2.34132 21.792C2.33192 19.9598 2.82052 18.3578 3.80711 16.9859C4.80309 15.6047 6.17962 14.5289 7.93669 13.7584C9.70315 12.9879 11.728 12.6027 14.0113 12.6027C16.3415 12.6027 18.3569 12.9926 20.0576 13.7725C21.7583 14.5524 23.0691 15.6517 23.9899 17.0705C24.9201 18.4799 25.3899 20.1289 25.3993 22.0175H17.9012ZM31.5769 41.8621H23.1204L32.648 12.9973H43.3596L52.8872 41.8621H44.4307L38.1166 20.9464H37.8911L31.5769 41.8621ZM29.9984 30.474H45.8965V36.3372H29.9984V30.474ZM52.0953 41.8621V12.9973H64.5545C66.6968 12.9973 68.5713 13.4201 70.178 14.2658C71.7847 15.1114 73.0344 16.3 73.927 17.8316C74.8197 19.3631 75.266 21.1531 75.266 23.2014C75.266 25.2686 74.8056 27.0585 73.8848 28.5713C72.9733 30.0841 71.6908 31.2492 70.0371 32.0666C68.3928 32.8841 66.4713 33.2928 64.2726 33.2928H56.8309V27.2042H62.694C63.6148 27.2042 64.3994 27.0444 65.0477 26.725C65.7055 26.3961 66.2082 25.931 66.5558 25.3297C66.9129 24.7283 67.0914 24.0189 67.0914 23.2014C67.0914 22.3746 66.9129 21.6699 66.5558 21.0873C66.2082 20.4954 65.7055 20.0444 65.0477 19.7343C64.3994 19.4148 63.6148 19.2551 62.694 19.2551H59.9316V41.8621H52.0953Z" fill="white"/>
<path d="M103.783 49.2577C103.738 48.8029 103.544 48.4496 103.202 48.1978C102.86 47.946 102.396 47.8201 101.81 47.8201C101.411 47.8201 101.075 47.8765 100.801 47.9892C100.526 48.0982 100.316 48.2504 100.169 48.4459C100.026 48.6413 99.955 48.8631 99.955 49.1111C99.9475 49.3178 99.9907 49.4982 100.085 49.6523C100.182 49.8064 100.316 49.9399 100.485 50.0526C100.654 50.1616 100.849 50.2574 101.071 50.3401C101.293 50.4191 101.53 50.4867 101.782 50.5431L102.819 50.7911C103.323 50.9039 103.785 51.0542 104.206 51.2422C104.627 51.4301 104.991 51.6612 105.299 51.9356C105.608 52.21 105.846 52.5332 106.015 52.9053C106.188 53.2773 106.277 53.7039 106.28 54.185C106.277 54.8916 106.096 55.5042 105.739 56.0229C105.386 56.5378 104.875 56.9381 104.206 57.2237C103.541 57.5056 102.738 57.6465 101.798 57.6465C100.866 57.6465 100.055 57.5037 99.363 57.2181C98.6752 56.9324 98.1378 56.5096 97.7507 55.9496C97.3673 55.3858 97.1662 54.6886 97.1474 53.858H99.5096C99.5359 54.2451 99.6468 54.5684 99.8422 54.8277C100.041 55.0833 100.306 55.2768 100.637 55.4084C100.972 55.5362 101.349 55.6001 101.77 55.6001C102.184 55.6001 102.543 55.5399 102.847 55.4197C103.155 55.2994 103.394 55.1321 103.563 54.9179C103.732 54.7037 103.817 54.4575 103.817 54.1794C103.817 53.92 103.74 53.702 103.586 53.5254C103.435 53.3488 103.214 53.1984 102.92 53.0744C102.631 52.9504 102.276 52.8376 101.855 52.7361L100.598 52.4204C99.6242 52.1836 98.8556 51.8134 98.2919 51.3098C97.7281 50.8062 97.4481 50.1278 97.4519 49.2746C97.4481 48.5755 97.6342 47.9648 98.01 47.4424C98.3896 46.92 98.9101 46.5122 99.5716 46.219C100.233 45.9259 100.985 45.7793 101.827 45.7793C102.684 45.7793 103.432 45.9259 104.07 46.219C104.713 46.5122 105.213 46.92 105.57 47.4424C105.927 47.9648 106.111 48.5699 106.123 49.2577H103.783ZM107.877 57.483V48.8236H110.279V57.483H107.877ZM109.084 47.7074C108.727 47.7074 108.42 47.589 108.165 47.3522C107.913 47.1116 107.787 46.8241 107.787 46.4896C107.787 46.1589 107.913 45.8751 108.165 45.6383C108.42 45.3978 108.727 45.2775 109.084 45.2775C109.441 45.2775 109.745 45.3978 109.997 45.6383C110.253 45.8751 110.38 46.1589 110.38 46.4896C110.38 46.8241 110.253 47.1116 109.997 47.3522C109.745 47.589 109.441 47.7074 109.084 47.7074ZM114.604 45.9371V57.483H112.203V45.9371H114.604ZM124.601 48.8236L121.574 57.483H118.868L115.84 48.8236H118.377L120.176 55.0194H120.266L122.059 48.8236H124.601ZM129.498 57.6522C128.607 57.6522 127.84 57.4718 127.198 57.1109C126.559 56.7464 126.066 56.2315 125.72 55.5662C125.375 54.8972 125.202 54.1061 125.202 53.1928C125.202 52.302 125.375 51.5203 125.72 50.8475C126.066 50.1748 126.553 49.6505 127.181 49.2746C127.812 48.8988 128.552 48.7109 129.402 48.7109C129.973 48.7109 130.505 48.8029 130.997 48.9871C131.493 49.1675 131.926 49.44 132.294 49.8046C132.666 50.1691 132.955 50.6277 133.162 51.1801C133.369 51.7289 133.472 52.3716 133.472 53.1082V53.7678H126.16V52.2795H131.212C131.212 51.9337 131.136 51.6274 130.986 51.3605C130.836 51.0937 130.627 50.8851 130.36 50.7348C130.097 50.5807 129.791 50.5036 129.441 50.5036C129.077 50.5036 128.753 50.5882 128.472 50.7573C128.193 50.9227 127.975 51.1463 127.818 51.4282C127.66 51.7063 127.579 52.0164 127.575 52.3584V53.7735C127.575 54.2019 127.654 54.5721 127.812 54.8841C127.974 55.196 128.201 55.4366 128.494 55.6057C128.787 55.7748 129.135 55.8594 129.537 55.8594C129.804 55.8594 130.048 55.8218 130.27 55.7466C130.492 55.6715 130.682 55.5587 130.839 55.4084C130.997 55.258 131.118 55.0739 131.2 54.8559L133.421 55.0025C133.309 55.5362 133.078 56.0022 132.728 56.4006C132.382 56.7952 131.935 57.1034 131.386 57.3252C130.841 57.5432 130.212 57.6522 129.498 57.6522ZM135.039 57.483V48.8236H137.368V50.3345H137.458C137.616 49.797 137.881 49.3911 138.253 49.1168C138.625 48.8386 139.053 48.6996 139.538 48.6996C139.659 48.6996 139.788 48.7071 139.927 48.7221C140.066 48.7372 140.189 48.7578 140.294 48.7841V50.9152C140.181 50.8813 140.025 50.8513 139.826 50.825C139.627 50.7987 139.444 50.7855 139.279 50.7855C138.926 50.7855 138.61 50.8626 138.332 51.0167C138.057 51.167 137.84 51.3775 137.678 51.6481C137.52 51.9187 137.441 52.2306 137.441 52.5839V57.483H135.039ZM83.3648 76.483V64.9371H87.92C88.7957 64.9371 89.5418 65.1044 90.1582 65.4389C90.7745 65.7696 91.2443 66.23 91.5676 66.8201C91.8946 67.4064 92.058 68.0829 92.058 68.8497C92.058 69.6164 91.8927 70.2929 91.5619 70.8792C91.2312 71.4655 90.752 71.9222 90.1243 72.2492C89.5004 72.5761 88.745 72.7396 87.858 72.7396H84.9546V70.7834H87.4634C87.9332 70.7834 88.3203 70.7026 88.6247 70.541C88.9329 70.3756 89.1622 70.1482 89.3125 69.8588C89.4666 69.5656 89.5437 69.2293 89.5437 68.8497C89.5437 68.4663 89.4666 68.1318 89.3125 67.8462C89.1622 67.5568 88.9329 67.3331 88.6247 67.1753C88.3165 67.0137 87.9257 66.9329 87.4521 66.9329H85.8059V76.483H83.3648ZM95.8353 76.6465C95.2828 76.6465 94.7904 76.5507 94.3582 76.359C93.926 76.1636 93.584 75.876 93.3322 75.4964C93.0841 75.1131 92.9601 74.6358 92.9601 74.0645C92.9601 73.5834 93.0484 73.1794 93.225 72.8524C93.4017 72.5254 93.6422 72.2623 93.9467 72.0631C94.2511 71.8639 94.5969 71.7136 94.984 71.6121C95.3749 71.5106 95.7845 71.4392 96.213 71.3979C96.7166 71.3453 97.1225 71.2964 97.4307 71.2513C97.7389 71.2024 97.9625 71.131 98.1016 71.0371C98.2407 70.9431 98.3102 70.804 98.3102 70.6199V70.5861C98.3102 70.229 98.1974 69.9528 97.9719 69.7573C97.7502 69.5619 97.4345 69.4642 97.0248 69.4642C96.5926 69.4642 96.2487 69.56 95.9931 69.7517C95.7376 69.9396 95.5684 70.1764 95.4857 70.462L93.2645 70.2816C93.3773 69.7554 93.599 69.3007 93.9297 68.9173C94.2605 68.5302 94.6871 68.2333 95.2095 68.0266C95.7357 67.8161 96.3445 67.7109 97.0361 67.7109C97.5172 67.7109 97.9776 67.7672 98.4173 67.88C98.8608 67.9927 99.2536 68.1675 99.5956 68.4043C99.9414 68.6411 100.214 68.9455 100.413 69.3176C100.612 69.6859 100.712 70.1275 100.712 70.6424V76.483H98.4342V75.2822H98.3666C98.2275 75.5528 98.0415 75.7915 97.8084 75.9982C97.5754 76.2011 97.2954 76.3609 96.9684 76.4774C96.6415 76.5901 96.2637 76.6465 95.8353 76.6465ZM96.5231 74.9891C96.8764 74.9891 97.1883 74.9195 97.4589 74.7805C97.7295 74.6376 97.9419 74.446 98.096 74.2054C98.2501 73.9649 98.3271 73.6924 98.3271 73.388V72.469C98.2519 72.5179 98.1486 72.563 98.017 72.6043C97.8893 72.6419 97.7446 72.6776 97.5829 72.7114C97.4213 72.7415 97.2597 72.7697 97.0981 72.796C96.9365 72.8186 96.7899 72.8392 96.6584 72.858C96.3765 72.8994 96.1303 72.9651 95.9198 73.0553C95.7094 73.1455 95.5459 73.2677 95.4294 73.4218C95.3129 73.5721 95.2546 73.76 95.2546 73.9856C95.2546 74.3125 95.373 74.5625 95.6098 74.7354C95.8503 74.9045 96.1547 74.9891 96.5231 74.9891ZM102.575 76.483V67.8236H104.903V69.3345H104.994C105.151 68.797 105.416 68.3911 105.789 68.1168C106.161 67.8386 106.589 67.6996 107.074 67.6996C107.194 67.6996 107.324 67.7071 107.463 67.7221C107.602 67.7372 107.724 67.7578 107.829 67.7841V69.9152C107.717 69.8813 107.561 69.8513 107.361 69.825C107.162 69.7987 106.98 69.7855 106.815 69.7855C106.461 69.7855 106.146 69.8626 105.867 70.0167C105.593 70.167 105.375 70.3775 105.213 70.6481C105.056 70.9187 104.977 71.2306 104.977 71.5839V76.483H102.575ZM114.111 67.8236V69.6277H108.896V67.8236H114.111ZM110.08 65.749H112.482V73.8221C112.482 74.0438 112.516 74.2167 112.583 74.3407C112.651 74.461 112.745 74.5456 112.865 74.5944C112.989 74.6433 113.132 74.6677 113.294 74.6677C113.406 74.6677 113.519 74.6583 113.632 74.6395C113.745 74.617 113.831 74.6001 113.891 74.5888L114.269 76.3759C114.149 76.4135 113.98 76.4567 113.762 76.5056C113.544 76.5582 113.279 76.5901 112.967 76.6014C112.388 76.624 111.88 76.5469 111.445 76.3703C111.012 76.1936 110.676 75.9193 110.435 75.5472C110.195 75.1751 110.076 74.7053 110.08 74.1378V65.749ZM118.077 71.4768V76.483H115.676V67.8236H117.964V69.3514H118.066C118.258 68.8478 118.579 68.4494 119.03 68.1562C119.481 67.8593 120.028 67.7109 120.671 67.7109C121.272 67.7109 121.796 67.8424 122.243 68.1055C122.691 68.3686 123.038 68.7444 123.286 69.233C123.534 69.7179 123.658 70.2967 123.658 70.9694V76.483H121.257V71.3979C121.261 70.8679 121.125 70.4545 120.851 70.1576C120.577 69.8569 120.199 69.7066 119.718 69.7066C119.395 69.7066 119.109 69.7761 118.861 69.9152C118.617 70.0542 118.425 70.2572 118.286 70.524C118.15 70.7871 118.081 71.1047 118.077 71.4768ZM129.498 76.6522C128.607 76.6522 127.84 76.4718 127.198 76.1109C126.559 75.7464 126.066 75.2315 125.72 74.5662C125.375 73.8972 125.202 73.1061 125.202 72.1928C125.202 71.302 125.375 70.5203 125.72 69.8475C126.066 69.1748 126.553 68.6505 127.181 68.2746C127.812 67.8988 128.552 67.7109 129.402 67.7109C129.973 67.7109 130.505 67.8029 130.997 67.9871C131.493 68.1675 131.926 68.44 132.294 68.8046C132.666 69.1691 132.955 69.6277 133.162 70.1801C133.369 70.7289 133.472 71.3716 133.472 72.1082V72.7678H126.16V71.2795H131.212C131.212 70.9337 131.136 70.6274 130.986 70.3605C130.836 70.0937 130.627 69.8851 130.36 69.7348C130.097 69.5807 129.791 69.5036 129.441 69.5036C129.077 69.5036 128.753 69.5882 128.472 69.7573C128.193 69.9227 127.976 70.1463 127.818 70.4282C127.66 70.7063 127.579 71.0164 127.575 71.3584V72.7735C127.575 73.2019 127.654 73.5721 127.812 73.8841C127.974 74.196 128.201 74.4366 128.494 74.6057C128.787 74.7748 129.135 74.8594 129.537 74.8594C129.804 74.8594 130.048 74.8218 130.27 74.7466C130.492 74.6715 130.682 74.5587 130.839 74.4084C130.997 74.258 131.118 74.0739 131.2 73.8559L133.421 74.0025C133.309 74.5362 133.078 75.0022 132.728 75.4006C132.382 75.7952 131.935 76.1034 131.386 76.3252C130.841 76.5432 130.212 76.6522 129.498 76.6522ZM135.039 76.483V67.8236H137.368V69.3345H137.458C137.616 68.797 137.881 68.3911 138.253 68.1168C138.625 67.8386 139.053 67.6996 139.538 67.6996C139.659 67.6996 139.788 67.7071 139.927 67.7221C140.066 67.7372 140.189 67.7578 140.294 67.7841V69.9152C140.181 69.8813 140.025 69.8513 139.826 69.825C139.627 69.7987 139.444 69.7855 139.279 69.7855C138.926 69.7855 138.61 69.8626 138.332 70.0167C138.057 70.167 137.84 70.3775 137.678 70.6481C137.52 70.9187 137.441 71.2306 137.441 71.5839V76.483H135.039Z" fill="white"/>
</svg>
