<svg width="37" height="38" viewBox="0 0 37 38" fill="none" xmlns="http://www.w3.org/2000/svg">
<mask id="mask0_2015_4256" style="mask-type:luminance" maskUnits="userSpaceOnUse" x="0" y="0" width="37" height="38">
<path d="M0 0H36.8V37.3864H0V0Z" fill="white"/>
</mask>
<g mask="url(#mask0_2015_4256)">
<path fill-rule="evenodd" clip-rule="evenodd" d="M11.3608 33.6468H26.5138V37.3855H11.3608V33.6468ZM13.5255 5.87402H20.9667C22.7364 5.91141 24.0568 6.78198 24.9281 8.49107C25.9401 6.74459 27.3364 5.87402 29.1223 5.87402H36.7961V21.3627H13.5255V5.87402Z" fill="#E3FFEB"/>
<path fill-rule="evenodd" clip-rule="evenodd" d="M13.5298 17.0908H20.971C22.535 17.422 23.85 18.3032 24.9215 19.7399C25.9137 18.3459 27.4226 17.3941 29.1211 17.0908H36.8004V21.3636H13.5298V17.0908Z" fill="#89CEFF"/>
<path fill-rule="evenodd" clip-rule="evenodd" d="M25.9497 34.1332H10.8238C10.6073 34.1332 10.4287 34.0157 10.4287 33.8661C10.4287 33.7166 10.6019 33.5938 10.8238 33.5938H25.9497C26.1661 33.5938 26.3501 33.7166 26.3501 33.8608C26.3501 34.0157 26.1715 34.1332 25.9497 34.1332Z" fill="black"/>
<path fill-rule="evenodd" clip-rule="evenodd" d="M26.3164 37.3858H10.9307C10.824 37.3858 10.7216 37.3444 10.6456 37.2704C10.5697 37.1964 10.5263 37.0959 10.5248 36.9906V31.0248H8.30061C7.39014 31.0262 6.5163 30.671 5.87098 30.0371C5.22566 29.4032 4.86159 28.5425 4.85873 27.644V23.0668H0.404845C0.337278 23.0675 0.270623 23.0514 0.211085 23.0198C0.151548 22.9883 0.101064 22.9424 0.0643334 22.8864C0.0276031 22.8305 0.00582075 22.7662 0.00101446 22.6997C-0.00379184 22.6332 0.00853419 22.5666 0.0368449 22.506L3.24061 15.424V13.9178C3.24669 11.0586 4.14317 8.27033 5.80859 5.93075C7.47401 3.59116 9.82788 1.81334 12.5513 0.838144C15.2747 -0.137056 18.2361 -0.262503 21.0342 0.4788C23.8323 1.2201 26.3318 2.79232 28.1943 4.98246C28.3404 5.14803 28.3187 5.39905 28.151 5.54326C28.1102 5.57743 28.0629 5.60329 28.012 5.61938C27.961 5.63546 27.9073 5.64144 27.854 5.63697C27.8007 5.6325 27.7488 5.61768 27.7013 5.59335C27.6538 5.56901 27.6117 5.53566 27.5773 5.49519C26.3273 4.03026 24.7694 2.85114 23.0117 2.03957C21.2539 1.228 19.3384 0.803393 17.3978 0.795183H17.2354C13.7334 0.842663 10.3899 2.24364 7.92296 4.69724C5.45604 7.15084 4.06247 10.4614 4.04155 13.9178V15.5094C4.04155 15.5628 4.03073 15.6216 4.00908 15.6696L1.0272 22.271H5.26461C5.48108 22.271 5.66508 22.4526 5.66508 22.6716V27.6386C5.66579 27.9795 5.73452 28.3169 5.86736 28.6316C6.00019 28.9462 6.19452 29.232 6.43925 29.4725C6.68398 29.713 6.97432 29.9036 7.29369 30.0334C7.61307 30.1632 7.95522 30.2297 8.30061 30.229H10.9307C11.1526 30.229 11.3366 30.4052 11.3366 30.6242V36.59H25.9105C25.9917 35.6821 25.3423 29.2409 28.8653 20.9251C28.9062 20.8267 28.9851 20.7483 29.0845 20.7072C29.184 20.6661 29.2959 20.6658 29.3957 20.7061C29.4954 20.7465 29.5748 20.8243 29.6165 20.9225C29.6581 21.0206 29.6585 21.1311 29.6176 21.2295C26.0999 29.524 26.8143 35.8743 26.7223 36.9852C26.7223 37.2096 26.5383 37.3858 26.3164 37.3858Z" fill="black"/>
<path fill-rule="evenodd" clip-rule="evenodd" d="M24.8543 21.6726H13.587C13.5337 21.6719 13.4811 21.6609 13.4321 21.6401C13.3831 21.6193 13.3388 21.5892 13.3016 21.5515C13.2644 21.5138 13.2351 21.4693 13.2154 21.4204C13.1956 21.3715 13.1858 21.3193 13.1866 21.2667V17.1969C13.1866 17.0901 13.2299 16.9833 13.3056 16.9085C13.3423 16.8715 13.386 16.842 13.4343 16.8218C13.4827 16.8017 13.5346 16.7912 13.587 16.791H20.8388C22.0258 16.8065 23.1583 17.2857 23.988 18.1236C24.8178 18.9615 25.2772 20.0898 25.2656 21.2614C25.2656 21.4857 25.0816 21.6673 24.8597 21.6673L24.8543 21.6726ZM13.9875 20.8608H24.4322C24.3429 19.9757 23.9257 19.1543 23.2606 18.554C22.5954 17.9538 21.7292 17.617 20.828 17.6082H13.9875V20.8608Z" fill="black"/>
<path fill-rule="evenodd" clip-rule="evenodd" d="M24.8534 21.673C24.8015 21.6737 24.75 21.6643 24.7018 21.6454C24.6535 21.6265 24.6096 21.5983 24.5724 21.5626C24.5352 21.5269 24.5055 21.4843 24.485 21.4373C24.4645 21.3902 24.4536 21.3397 24.4529 21.2885V9.5705C24.44 8.66201 24.0624 7.7957 23.4028 7.16181C22.7433 6.52792 21.8558 6.17828 20.9352 6.18969H13.9865V17.4163C13.9865 17.6299 13.8025 17.8009 13.5806 17.8009C13.5288 17.8016 13.4773 17.7922 13.429 17.7732C13.3808 17.7543 13.3369 17.7262 13.2997 17.6904C13.2625 17.6547 13.2328 17.6121 13.2123 17.5651C13.1918 17.5181 13.1809 17.4675 13.1802 17.4163V5.80515C13.1802 5.59151 13.3588 5.41526 13.5806 5.41526H20.9406C22.0708 5.40384 23.1596 5.83456 23.9689 6.61323C24.7782 7.39191 25.2421 8.45517 25.2592 9.5705V21.2831C25.2592 21.4968 25.0752 21.673 24.8534 21.673Z" fill="black"/>
<path fill-rule="evenodd" clip-rule="evenodd" d="M36.3849 21.6741H25.1121C25.0584 21.6741 25.0052 21.6636 24.9556 21.6431C24.906 21.6227 24.861 21.5927 24.8232 21.5549C24.7855 21.5171 24.7557 21.4724 24.7356 21.4231C24.7155 21.3739 24.7056 21.3213 24.7063 21.2682C24.6947 20.0957 25.1549 18.9666 25.9858 18.1286C26.8167 17.2905 27.9505 16.8119 29.1385 16.7979H36.3849C36.6013 16.7979 36.7853 16.9794 36.7853 17.2038V21.2629C36.7853 21.4925 36.6067 21.6741 36.3849 21.6741ZM25.5343 20.8623H35.979V17.6097H29.1385C28.2373 17.6185 27.371 17.9553 26.7059 18.5555C26.0408 19.1557 25.6236 19.9772 25.5343 20.8623Z" fill="black"/>
<path fill-rule="evenodd" clip-rule="evenodd" d="M25.114 21.6731C25.0612 21.6745 25.0087 21.6655 24.9595 21.6465C24.9103 21.6276 24.8654 21.5991 24.8276 21.5627C24.7898 21.5264 24.7597 21.4829 24.7392 21.4349C24.7186 21.3869 24.7081 21.3353 24.7081 21.2832V9.57055C24.7252 8.45429 25.1899 7.39022 26.0003 6.61139C26.8108 5.83256 27.901 5.40247 29.0321 5.41532H36.3867C36.6032 5.41532 36.7872 5.59157 36.7872 5.80521V17.4164C36.7872 17.63 36.6086 17.8009 36.3867 17.8009C36.3344 17.8023 36.2823 17.7935 36.2334 17.7748C36.1846 17.7562 36.14 17.7282 36.1022 17.6924C36.0645 17.6567 36.0343 17.6138 36.0134 17.5664C35.9926 17.519 35.9815 17.468 35.9808 17.4164V6.18975H29.0321C28.1115 6.17834 27.224 6.52797 26.5645 7.16186C25.9049 7.79575 25.5273 8.66207 25.5145 9.57055V21.2885C25.5145 21.5022 25.3359 21.6731 25.114 21.6731ZM21.5314 14.089H16.3577C16.1196 14.089 15.9248 13.9661 15.9248 13.8166C15.9248 13.667 16.1196 13.5495 16.3577 13.5495H21.5314C21.7695 13.5495 21.9643 13.667 21.9643 13.8166C21.9643 13.9661 21.7695 14.0836 21.5314 14.0836V14.089ZM19.3829 10.8364H16.309C16.0926 10.8364 15.9248 10.7135 15.9248 10.5693C15.9248 10.4144 16.098 10.2969 16.309 10.2969H19.3829C19.5994 10.2969 19.7672 10.4144 19.7672 10.564C19.7672 10.7135 19.594 10.8364 19.3883 10.8364H19.3829Z" fill="black"/>
<path fill-rule="evenodd" clip-rule="evenodd" d="M33.0598 14.0889H27.8807C27.6426 14.0889 27.4478 13.9661 27.4478 13.8165C27.4478 13.667 27.6426 13.5495 27.8807 13.5495H33.0598C33.2979 13.5495 33.4927 13.667 33.4927 13.8165C33.4927 13.9661 33.2979 14.0836 33.0598 14.0836V14.0889ZM32.5565 10.8363H29.4826C29.2661 10.8363 29.0983 10.7135 29.0983 10.5693C29.0983 10.4144 29.2715 10.2969 29.4772 10.2969H32.5565C32.7729 10.2969 32.9407 10.4144 32.9407 10.5639C32.9407 10.7135 32.7675 10.8363 32.5565 10.8363Z" fill="black"/>
</g>
</svg>
