<svg width="37" height="38" viewBox="0 0 37 38" fill="none" xmlns="http://www.w3.org/2000/svg">
<mask id="mask0_1971_4348" style="mask-type:luminance" maskUnits="userSpaceOnUse" x="0" y="0" width="37" height="38">
<path d="M0 0H36.8V37.3864H0V0Z" fill="white"/>
</mask>
<g mask="url(#mask0_1971_4348)">
<path fill-rule="evenodd" clip-rule="evenodd" d="M11.3608 33.6478H26.5138V37.3864H11.3608V33.6478ZM13.5255 5.875H20.9667C22.7364 5.91239 24.0568 6.78296 24.9281 8.49205C25.9401 6.74557 27.3364 5.875 29.1223 5.875H36.7961V21.3637H13.5255V5.875Z" fill="#E3FFEB"/>
<path fill-rule="evenodd" clip-rule="evenodd" d="M13.5298 17.0898H20.971C22.535 17.421 23.85 18.3022 24.9215 19.7389C25.9137 18.345 27.4226 17.3931 29.1211 17.0898H36.8004V21.3626H13.5298V17.0898Z" fill="#89CEFF"/>
<path fill-rule="evenodd" clip-rule="evenodd" d="M25.9499 34.1332H10.824C10.6075 34.1332 10.429 34.0157 10.429 33.8661C10.429 33.7166 10.6021 33.5938 10.824 33.5938H25.9499C26.1664 33.5938 26.3504 33.7166 26.3504 33.8608C26.3504 34.0157 26.1718 34.1332 25.9499 34.1332Z" fill="black"/>
<path fill-rule="evenodd" clip-rule="evenodd" d="M26.3164 37.3858H10.9307C10.824 37.3858 10.7216 37.3444 10.6456 37.2704C10.5697 37.1964 10.5263 37.0959 10.5248 36.9906V31.0248H8.30061C7.39014 31.0262 6.5163 30.671 5.87098 30.0371C5.22566 29.4032 4.86159 28.5425 4.85873 27.644V23.0668H0.404845C0.337278 23.0675 0.270623 23.0514 0.211085 23.0198C0.151548 22.9883 0.101064 22.9424 0.0643334 22.8864C0.0276031 22.8305 0.00582075 22.7662 0.00101446 22.6997C-0.00379184 22.6332 0.00853419 22.5666 0.0368449 22.506L3.24061 15.424V13.9178C3.24669 11.0586 4.14317 8.27033 5.80859 5.93075C7.47401 3.59116 9.82788 1.81334 12.5513 0.838144C15.2747 -0.137056 18.2361 -0.262503 21.0342 0.4788C23.8323 1.2201 26.3318 2.79232 28.1943 4.98246C28.3404 5.14803 28.3187 5.39905 28.151 5.54326C28.1102 5.57743 28.0629 5.60329 28.012 5.61938C27.961 5.63546 27.9073 5.64144 27.854 5.63697C27.8007 5.6325 27.7488 5.61768 27.7013 5.59335C27.6538 5.56901 27.6117 5.53566 27.5773 5.49519C26.3273 4.03026 24.7694 2.85114 23.0117 2.03957C21.2539 1.228 19.3384 0.803393 17.3978 0.795183H17.2354C13.7334 0.842663 10.3899 2.24364 7.92296 4.69724C5.45604 7.15084 4.06247 10.4614 4.04155 13.9178V15.5094C4.04155 15.5628 4.03073 15.6216 4.00908 15.6696L1.0272 22.271H5.26461C5.48108 22.271 5.66508 22.4526 5.66508 22.6716V27.6386C5.66579 27.9795 5.73452 28.3169 5.86736 28.6316C6.00019 28.9462 6.19452 29.232 6.43925 29.4725C6.68398 29.713 6.97432 29.9036 7.29369 30.0334C7.61307 30.1632 7.95522 30.2297 8.30061 30.229H10.9307C11.1526 30.229 11.3366 30.4052 11.3366 30.6242V36.59H25.9105C25.9917 35.6821 25.3423 29.2409 28.8653 20.9251C28.9062 20.8267 28.9851 20.7483 29.0845 20.7072C29.184 20.6661 29.2959 20.6658 29.3957 20.7061C29.4954 20.7465 29.5748 20.8243 29.6165 20.9225C29.6581 21.0206 29.6585 21.1311 29.6176 21.2295C26.0999 29.524 26.8143 35.8743 26.7223 36.9852C26.7223 37.2096 26.5383 37.3858 26.3164 37.3858Z" fill="white"/>
<path fill-rule="evenodd" clip-rule="evenodd" d="M24.8543 21.6726H13.587C13.5337 21.6719 13.4811 21.6609 13.4321 21.6401C13.3831 21.6193 13.3388 21.5892 13.3016 21.5515C13.2644 21.5138 13.2351 21.4693 13.2154 21.4204C13.1956 21.3715 13.1858 21.3193 13.1866 21.2667V17.1969C13.1866 17.0901 13.2299 16.9833 13.3056 16.9085C13.3423 16.8715 13.386 16.842 13.4343 16.8218C13.4827 16.8017 13.5346 16.7912 13.587 16.791H20.8388C22.0258 16.8065 23.1583 17.2857 23.988 18.1236C24.8178 18.9615 25.2772 20.0898 25.2656 21.2614C25.2656 21.4857 25.0816 21.6673 24.8597 21.6673L24.8543 21.6726ZM13.9875 20.8608H24.4322C24.3429 19.9757 23.9257 19.1543 23.2606 18.554C22.5954 17.9538 21.7292 17.617 20.828 17.6082H13.9875V20.8608Z" fill="black"/>
<path fill-rule="evenodd" clip-rule="evenodd" d="M24.8534 21.672C24.8015 21.6728 24.75 21.6634 24.7018 21.6444C24.6535 21.6255 24.6096 21.5973 24.5724 21.5616C24.5352 21.5259 24.5055 21.4833 24.485 21.4363C24.4645 21.3893 24.4536 21.3387 24.4529 21.2875V9.56952C24.44 8.66104 24.0624 7.79472 23.4028 7.16083C22.7433 6.52694 21.8558 6.17731 20.9352 6.18872H13.9865V17.4153C13.9865 17.629 13.8025 17.7999 13.5806 17.7999C13.5288 17.8006 13.4773 17.7912 13.429 17.7723C13.3808 17.7533 13.3369 17.7252 13.2997 17.6895C13.2625 17.6538 13.2328 17.6112 13.2123 17.5641C13.1918 17.5171 13.1809 17.4665 13.1802 17.4153V5.80417C13.1802 5.59053 13.3588 5.41428 13.5806 5.41428H20.9406C22.0708 5.40286 23.1596 5.83358 23.9689 6.61226C24.7782 7.39093 25.2421 8.45419 25.2592 9.56952V21.2822C25.2592 21.4958 25.0752 21.672 24.8534 21.672Z" fill="black"/>
<path fill-rule="evenodd" clip-rule="evenodd" d="M36.3849 21.6731H25.1121C25.0584 21.6731 25.0052 21.6626 24.9556 21.6421C24.906 21.6217 24.861 21.5917 24.8232 21.5539C24.7855 21.5162 24.7557 21.4714 24.7356 21.4222C24.7155 21.3729 24.7056 21.3203 24.7063 21.2672C24.6947 20.0948 25.1549 18.9656 25.9858 18.1276C26.8167 17.2895 27.9505 16.811 29.1385 16.7969H36.3849C36.6013 16.7969 36.7853 16.9785 36.7853 17.2028V21.2619C36.7853 21.4915 36.6067 21.6731 36.3849 21.6731ZM25.5343 20.8613H35.979V17.6087H29.1385C28.2373 17.6175 27.371 17.9543 26.7059 18.5545C26.0408 19.1548 25.6236 19.9762 25.5343 20.8613Z" fill="black"/>
<path fill-rule="evenodd" clip-rule="evenodd" d="M25.114 21.6721C25.0612 21.6735 25.0087 21.6645 24.9595 21.6455C24.9103 21.6266 24.8654 21.5981 24.8276 21.5618C24.7898 21.5254 24.7597 21.4819 24.7392 21.4339C24.7186 21.3859 24.7081 21.3343 24.7081 21.2822V9.56958C24.7252 8.45331 25.1899 7.38924 26.0003 6.61041C26.8108 5.83159 27.901 5.4015 29.0321 5.41434H36.3867C36.6032 5.41434 36.7872 5.59059 36.7872 5.80423V17.4154C36.7872 17.629 36.6086 17.7999 36.3867 17.7999C36.3344 17.8014 36.2823 17.7925 36.2334 17.7739C36.1846 17.7552 36.14 17.7272 36.1022 17.6915C36.0645 17.6557 36.0343 17.6128 36.0134 17.5655C35.9926 17.5181 35.9815 17.467 35.9808 17.4154V6.18878H29.0321C28.1115 6.17737 27.224 6.527 26.5645 7.16089C25.9049 7.79478 25.5273 8.66109 25.5145 9.56958V21.2876C25.5145 21.5012 25.3359 21.6721 25.114 21.6721ZM21.5314 14.088H16.3577C16.1196 14.088 15.9248 13.9652 15.9248 13.8156C15.9248 13.6661 16.1196 13.5486 16.3577 13.5486H21.5314C21.7695 13.5486 21.9643 13.6661 21.9643 13.8156C21.9643 13.9652 21.7695 14.0827 21.5314 14.0827V14.088ZM19.3829 10.8354H16.309C16.0926 10.8354 15.9248 10.7125 15.9248 10.5683C15.9248 10.4134 16.098 10.2959 16.309 10.2959H19.3829C19.5994 10.2959 19.7672 10.4134 19.7672 10.563C19.7672 10.7125 19.594 10.8354 19.3883 10.8354H19.3829Z" fill="black"/>
<path fill-rule="evenodd" clip-rule="evenodd" d="M33.0598 14.0889H27.8807C27.6426 14.0889 27.4478 13.9661 27.4478 13.8165C27.4478 13.667 27.6426 13.5495 27.8807 13.5495H33.0598C33.2979 13.5495 33.4927 13.667 33.4927 13.8165C33.4927 13.9661 33.2979 14.0836 33.0598 14.0836V14.0889ZM32.5565 10.8363H29.4826C29.2661 10.8363 29.0983 10.7135 29.0983 10.5693C29.0983 10.4144 29.2715 10.2969 29.4772 10.2969H32.5565C32.7729 10.2969 32.9407 10.4144 32.9407 10.5639C32.9407 10.7135 32.7675 10.8363 32.5565 10.8363Z" fill="black"/>
</g>
</svg>
