<svg width="37" height="34" viewBox="0 0 37 34" fill="none" xmlns="http://www.w3.org/2000/svg">
<path fill-rule="evenodd" clip-rule="evenodd" d="M10.0564 30.2383H23.4656V33.5982H10.0564V30.2383Z" fill="#E3FFEB"/>
<path fill-rule="evenodd" clip-rule="evenodd" d="M22.9733 30.6742H9.58812C9.39656 30.6742 9.23853 30.5686 9.23853 30.4342C9.23853 30.2999 9.39177 30.1895 9.58812 30.1895H22.9733C23.1649 30.1895 23.3277 30.2999 23.3277 30.4294C23.3277 30.5686 23.1697 30.6742 22.9733 30.6742Z" fill="white"/>
<path fill-rule="evenodd" clip-rule="evenodd" d="M9.67283 33.5995C9.5784 33.5995 9.48776 33.5623 9.42054 33.4958C9.35331 33.4293 9.31492 33.339 9.31366 33.2443V27.8824H7.34538C6.53969 27.8837 5.76641 27.5644 5.19535 26.9947C4.62429 26.425 4.30213 25.6514 4.29959 24.8439V20.73H0.358256C0.298465 20.7307 0.23948 20.7162 0.186794 20.6878C0.134108 20.6595 0.0894335 20.6182 0.05693 20.5679C0.0244265 20.5176 0.0051509 20.4599 0.000897714 20.4001C-0.00335548 20.3403 0.00755208 20.2804 0.0326049 20.226L2.86768 13.8609V12.5072C2.87307 9.9374 3.66638 7.43138 5.14014 5.32863C6.61391 3.22588 8.6969 1.62803 11.1069 0.751544C13.5169 -0.124938 16.1375 -0.237685 18.6136 0.428576C21.0897 1.09484 23.3016 2.5079 24.9497 4.47634C25.079 4.62515 25.0598 4.85076 24.9114 4.98037C24.8753 5.01107 24.8335 5.03432 24.7884 5.04878C24.7433 5.06323 24.6958 5.06861 24.6486 5.06459C24.6014 5.06058 24.5555 5.04725 24.5135 5.02538C24.4715 5.00351 24.4342 4.97353 24.4037 4.93716C23.2976 3.62053 21.919 2.56077 20.3635 1.83135C18.808 1.10194 17.1129 0.720311 15.3957 0.712932H15.252C12.153 0.755606 9.19422 2.01477 7.01119 4.21999C4.82816 6.42521 3.59497 9.40061 3.57645 12.5072V13.9377C3.57645 13.9857 3.56688 14.0385 3.54772 14.0817L0.908989 20.0148H4.65876C4.85032 20.0148 5.01315 20.178 5.01315 20.3748V24.8391C5.01378 25.1454 5.0746 25.4487 5.19215 25.7315C5.30969 26.0143 5.48166 26.2711 5.69823 26.4873C5.9148 26.7035 6.17172 26.8748 6.45434 26.9914C6.73696 27.1081 7.03974 27.1678 7.34538 27.1672H9.67283C9.86918 27.1672 10.032 27.3256 10.032 27.5224V32.8843H22.9287C23.0006 32.0683 22.4259 26.2791 25.5435 18.8051C25.5797 18.7166 25.6495 18.6462 25.7375 18.6093C25.8255 18.5724 25.9246 18.572 26.0128 18.6083C26.1011 18.6446 26.1714 18.7145 26.2082 18.8028C26.245 18.891 26.2454 18.9903 26.2092 19.0787C23.0964 26.5335 23.7285 32.2411 23.6471 33.2395C23.6471 33.4411 23.4843 33.5995 23.2879 33.5995H9.67283Z" fill="white"/>
<path fill-rule="evenodd" clip-rule="evenodd" d="M27.5318 21.0851C27.5318 21.3731 27.2876 21.5987 26.9859 21.5987H21.8521C21.5504 21.5987 21.3062 21.3683 21.3062 21.0851V18.7188H27.5318V21.0851Z" fill="#89CEFF" stroke="black" stroke-width="0.147763"/>
<path fill-rule="evenodd" clip-rule="evenodd" d="M29.6931 9.92579C29.6931 11.1547 29.2429 12.3403 28.4192 13.2716C26.7479 15.1629 27.0544 17.3998 27.0544 17.7598H21.7961C21.7961 17.3182 22.16 15.3501 20.3259 13.1468C19.8783 12.6131 19.5469 11.9915 19.3531 11.3219C19.1593 10.6523 19.1073 9.94948 19.2004 9.25855C19.3886 8.00873 20.021 6.86915 20.981 6.0497C21.9411 5.23024 23.1643 4.78611 24.4252 4.79911C27.3321 4.79911 29.6931 7.10323 29.6931 9.92579Z" fill="#FFFFA5"/>
<path d="M21.0706 17.7589V18.4789H27.7704V17.7205L27.7608 17.4805C27.6519 16.1929 28.0335 14.9117 28.8288 13.8947L28.9533 13.7507C29.8896 12.6971 30.4077 11.3358 30.4091 9.92484C30.4043 6.69427 27.7129 4.07812 24.4181 4.07812C21.3963 4.07812 18.8581 6.30065 18.4798 9.1616C18.2786 10.7169 18.7001 12.2434 19.6579 13.4722L19.768 13.6066C20.8503 14.9075 21.1472 16.0404 21.0946 17.3028L21.0754 17.6005V17.7589H21.0706ZM24.4181 4.79816C27.3202 4.79816 29.686 7.10229 29.686 9.92484C29.686 11.0961 29.2741 12.229 28.5223 13.141L28.4121 13.2706C26.7408 15.1619 27.0473 17.3989 27.0473 17.7589H24.6288V12.349C24.6285 12.2847 24.641 12.2209 24.6657 12.1615C24.6903 12.1022 24.7267 12.0484 24.7725 12.0034L27.1574 9.68483C27.1909 9.65232 27.212 9.60918 27.2172 9.56278C27.2225 9.51638 27.2115 9.4696 27.1861 9.43042L27.1574 9.39202C27.1171 9.35244 27.063 9.33027 27.0066 9.33027C26.9501 9.33027 26.896 9.35244 26.8557 9.39202L24.7486 11.4417C24.6595 11.5268 24.5412 11.5743 24.4181 11.5743C24.2951 11.5743 24.1767 11.5268 24.0877 11.4417L21.9805 9.39202C21.9402 9.35244 21.8861 9.33027 21.8297 9.33027C21.7733 9.33027 21.7191 9.35244 21.6788 9.39202C21.6442 9.42481 21.6223 9.46887 21.617 9.51634C21.6117 9.56381 21.6235 9.61161 21.6501 9.65123L21.6788 9.68483L24.0637 12.0034C24.1547 12.0946 24.2074 12.2194 24.2074 12.349V17.7589H21.7842L21.789 17.6293C21.8273 17.0244 21.9997 15.2579 20.4193 13.2706L20.314 13.1458C19.8664 12.6121 19.535 11.9905 19.3412 11.3209C19.1474 10.6514 19.0954 9.94854 19.1885 9.25761C19.3768 8.00696 20.0099 6.86672 20.971 6.04717C21.932 5.22761 23.1564 4.78401 24.4181 4.79816Z" fill="black"/>
<path fill-rule="evenodd" clip-rule="evenodd" d="M31.8359 10.3994H36.4142C36.6249 10.3994 36.7973 10.289 36.7973 10.1545C36.7973 10.0201 36.6249 9.91453 36.4142 9.91453H31.8359C31.6252 9.91453 31.4528 10.0201 31.4528 10.1545C31.4528 10.289 31.6252 10.3946 31.8359 10.3946V10.3994ZM31.7114 6.30954L33.6366 4.37983C33.7659 4.25022 33.7994 4.06301 33.7036 3.96701C33.6079 3.871 33.4259 3.9046 33.2918 4.03901L31.3666 5.96392C31.2325 6.09832 31.2038 6.28553 31.2996 6.37674C31.3953 6.47274 31.5773 6.44394 31.7114 6.30954ZM31.7114 13.9996L33.6366 15.9293C33.7659 16.0589 33.7994 16.2461 33.7036 16.3421C33.6079 16.4381 33.4259 16.4045 33.2918 16.2701L31.3666 14.35C31.2325 14.2156 31.2038 14.0284 31.2996 13.9372C31.3953 13.8411 31.5773 13.8699 31.7114 14.0044V13.9996Z" fill="black"/>
</svg>
