<svg width="25" height="35" viewBox="0 0 25 35" fill="none" xmlns="http://www.w3.org/2000/svg">
<path d="M12.5 0C5.58929 0 0 5.4775 0 12.25C0 21.4375 12.5 35 12.5 35C12.5 35 25 21.4375 25 12.25C25 5.4775 19.4107 0 12.5 0ZM12.5 16.625C11.316 16.625 10.1805 16.1641 9.34327 15.3436C8.50606 14.5231 8.03571 13.4103 8.03571 12.25C8.03571 11.0897 8.50606 9.97688 9.34327 9.15641C10.1805 8.33594 11.316 7.875 12.5 7.875C13.684 7.875 14.8195 8.33594 15.6567 9.15641C16.4939 9.97688 16.9643 11.0897 16.9643 12.25C16.9643 13.4103 16.4939 14.5231 15.6567 15.3436C14.8195 16.1641 13.684 16.625 12.5 16.625Z" fill="black"/>
</svg>
