<svg width="37" height="33" viewBox="0 0 37 33" fill="none" xmlns="http://www.w3.org/2000/svg">
<path fill-rule="evenodd" clip-rule="evenodd" d="M10.0566 29.4404H23.4658V32.7117H10.0566V29.4404Z" fill="#E3FFEB"/>
<path fill-rule="evenodd" clip-rule="evenodd" d="M22.9726 29.8656H9.58739C9.39583 29.8656 9.23779 29.7627 9.23779 29.6319C9.23779 29.501 9.39104 29.3936 9.58739 29.3936H22.9726C23.1642 29.3936 23.327 29.501 23.327 29.6272C23.327 29.7627 23.1689 29.8656 22.9726 29.8656Z" fill="black"/>
<path fill-rule="evenodd" clip-rule="evenodd" d="M9.67283 32.713C9.5784 32.713 9.48776 32.6767 9.42054 32.612C9.35331 32.5473 9.31492 32.4593 9.31366 32.3672V27.1467H7.34538C6.53969 27.148 5.76641 26.8371 5.19535 26.2825C4.62429 25.7278 4.30213 24.9746 4.29959 24.1883V20.1831H0.358256C0.298465 20.1837 0.23948 20.1696 0.186794 20.142C0.134108 20.1144 0.0894335 20.0742 0.05693 20.0252C0.0244265 19.9763 0.0051509 19.92 0.000897714 19.8618C-0.00335548 19.8036 0.00755208 19.7453 0.0326049 19.6923L2.86768 13.4951V12.1772C2.87307 9.6752 3.66638 7.2353 5.14014 5.18803C6.61391 3.14076 8.6969 1.58507 11.1069 0.731714C13.5169 -0.121641 16.1375 -0.231414 18.6136 0.417268C21.0897 1.06595 23.3016 2.44173 24.9497 4.35823C25.079 4.50311 25.0598 4.72277 24.9114 4.84896C24.8753 4.87886 24.8335 4.90149 24.7884 4.91556C24.7433 4.92964 24.6958 4.93487 24.6486 4.93096C24.6014 4.92705 24.5555 4.91408 24.5135 4.89279C24.4715 4.87149 24.4342 4.8423 24.4037 4.8069C23.2976 3.525 21.919 2.4932 20.3635 1.78303C18.808 1.07286 17.1129 0.701305 15.3957 0.694122H15.252C12.153 0.735669 9.19422 1.96161 7.01119 4.10864C4.82816 6.25568 3.59497 9.15258 3.57645 12.1772V13.5699C3.57645 13.6166 3.56688 13.6681 3.54772 13.7101L0.908989 19.4867H4.65876C4.85032 19.4867 5.01315 19.6456 5.01315 19.8372V24.1837C5.01378 24.482 5.0746 24.7772 5.19215 25.0525C5.30969 25.3279 5.48166 25.5779 5.69823 25.7884C5.9148 25.9989 6.17172 26.1657 6.45434 26.2793C6.73696 26.3928 7.03974 26.451 7.34538 26.4504H9.67283C9.86918 26.4504 10.032 26.6046 10.032 26.7962V32.0166H22.9287C23.0006 31.2221 22.4259 25.5858 25.5435 18.3089C25.5797 18.2228 25.6495 18.1542 25.7375 18.1183C25.8255 18.0823 25.9246 18.082 26.0128 18.1173C26.1011 18.1527 26.1714 18.2208 26.2082 18.3067C26.245 18.3925 26.2454 18.4892 26.2092 18.5753C23.0964 25.8335 23.7285 31.3904 23.6471 32.3625C23.6471 32.5588 23.4843 32.713 23.2879 32.713H9.67283Z" fill="black"/>
<path fill-rule="evenodd" clip-rule="evenodd" d="M27.5304 20.5285C27.5304 20.8089 27.2861 21.0286 26.9844 21.0286H21.8506C21.5489 21.0286 21.3047 20.8043 21.3047 20.5285V18.2246H27.5304V20.5285Z" fill="#89CEFF" stroke="black" stroke-width="0.147763"/>
<path fill-rule="evenodd" clip-rule="evenodd" d="M29.6929 9.66258C29.6929 10.859 29.2427 12.0134 28.419 12.9201C26.7476 14.7615 27.0541 16.9394 27.0541 17.2899H21.7958C21.7958 16.8599 22.1598 14.9438 20.3256 12.7986C19.878 12.279 19.5467 11.6738 19.3529 11.0218C19.1591 10.3699 19.1071 9.68565 19.2002 9.01295C19.3884 7.79611 20.0207 6.68659 20.9808 5.88876C21.9409 5.09093 23.164 4.65852 24.425 4.67117C27.3319 4.67117 29.6929 6.9145 29.6929 9.66258Z" fill="#FFFFA5"/>
<path d="M21.0701 17.2895V17.9905H27.7699V17.2521L27.7603 17.0184C27.6514 15.7648 28.033 14.5174 28.8283 13.5273L28.9528 13.387C29.8892 12.3613 30.4072 11.0359 30.4086 9.66218C30.4039 6.51684 27.7124 3.96973 24.4176 3.96973C21.3958 3.96973 18.8576 6.13361 18.4793 8.91908C18.2781 10.4333 18.6996 11.9195 19.6574 13.116L19.7675 13.2468C20.8498 14.5134 21.1467 15.6164 21.0941 16.8455L21.0749 17.1353V17.2895H21.0701ZM24.4176 4.67077C27.3197 4.67077 29.6855 6.9141 29.6855 9.66218C29.6855 10.8025 29.2737 11.9055 28.5218 12.7935L28.4116 12.9197C26.7403 14.7611 27.0468 16.939 27.0468 17.2895H24.6283V12.0224C24.628 11.9597 24.6405 11.8977 24.6652 11.8399C24.6898 11.7821 24.7262 11.7297 24.772 11.6859L27.1569 9.4285C27.1904 9.39685 27.2115 9.35485 27.2168 9.30967C27.222 9.2645 27.211 9.21894 27.1857 9.1808L27.1569 9.14341C27.1166 9.10487 27.0625 9.08329 27.0061 9.08329C26.9497 9.08329 26.8955 9.10487 26.8552 9.14341L24.7481 11.139C24.659 11.2219 24.5407 11.2681 24.4176 11.2681C24.2946 11.2681 24.1762 11.2219 24.0872 11.139L21.98 9.14341C21.9397 9.10487 21.8856 9.08329 21.8292 9.08329C21.7728 9.08329 21.7186 9.10487 21.6783 9.14341C21.6437 9.17534 21.6218 9.21823 21.6165 9.26445C21.6112 9.31067 21.623 9.35721 21.6496 9.39578L21.6783 9.4285L24.0632 11.6859C24.1542 11.7746 24.2069 11.8962 24.2069 12.0224V17.2895H21.7837L21.7885 17.1633C21.8268 16.5744 21.9992 14.8546 20.4188 12.9197L20.3135 12.7982C19.8659 12.2786 19.5346 11.6734 19.3408 11.0214C19.1469 10.3695 19.0949 9.68525 19.1881 9.01255C19.3763 7.7949 20.0094 6.68475 20.9705 5.88681C21.9316 5.08888 23.1559 4.65698 24.4176 4.67077Z" fill="black"/>
<path fill-rule="evenodd" clip-rule="evenodd" d="M31.8374 10.1247H36.4157C36.6264 10.1247 36.7988 10.0172 36.7988 9.88632C36.7988 9.75546 36.6264 9.65264 36.4157 9.65264H31.8374C31.6267 9.65264 31.4543 9.75546 31.4543 9.88632C31.4543 10.0172 31.6267 10.12 31.8374 10.12V10.1247ZM31.7129 6.14276L33.6381 4.26397C33.7674 4.13779 33.8009 3.95552 33.7051 3.86204C33.6093 3.76857 33.4273 3.80129 33.2932 3.93215L31.3681 5.80626C31.234 5.93713 31.2052 6.1194 31.301 6.20819C31.3968 6.30167 31.5788 6.27362 31.7129 6.14276ZM31.7129 13.6299L33.6381 15.5087C33.7674 15.6349 33.8009 15.8171 33.7051 15.9106C33.6093 16.0041 33.4273 15.9714 33.2932 15.8405L31.3681 13.9711C31.234 13.8402 31.2052 13.6579 31.301 13.5691C31.3968 13.4757 31.5788 13.5037 31.7129 13.6346V13.6299Z" fill="black"/>
</svg>
